<mxfile modified="2022-11-25T08:38:46.399Z" host="app.diagrams.net" agent="5.0 (Windows NT 10.0; Win64; x64) AppleWebKit/537.36 (KHTML, like Gecko) Chrome/107.0.0.0 Safari/537.36" etag="nznfS2lhdPi8e7fYBR48" version="20.6.0" type="github">
  <diagram id="Ht1M8jgEwFfnCIfOTk4-" name="Page-1">
    <mxGraphModel dx="1045" dy="1531" grid="1" gridSize="10" guides="1" tooltips="1" connect="1" arrows="1" fold="1" page="1" pageScale="1" pageWidth="1169" pageHeight="827" math="0" shadow="0">
      <root>
        <mxCell id="0" />
        <mxCell id="1" parent="0" />
        <mxCell id="8_0EVFcnMzScwtMn9t5G-3" value="" style="shape=image;verticalLabelPosition=bottom;labelBackgroundColor=default;verticalAlign=top;aspect=fixed;imageAspect=0;image=data:image/png,iVBORw0KGgoAAAANSUhEUgAAAggAAAFrCAYAAAC0dHEKAAAAAXNSR0IArs4c6QAAIABJREFUeF7snQmYFcXV/quru++9syISEDUm0RhZjYm4fEbEQQVEo4nKMAugYqIxJmY1moCYEVCjMV80i9mNUWA2XKJRAQVHUFGjJtEgEjUa9cMFFRBm5t5eqv/Pb9I9/8vlzsy9s+AMVD0PDzDTS9Xp7jpvvec9pwyhm7aAtoC2gLaAtoC2gLZAhgUMbRFtAW0BbQFtAW0BbQFtgUwLaICg3wltAW2BXW0BUwjxCSFEiRDifSHE60KIIKMTe4XH8PONQohNu7qT+n7aAnu6BTRA2NPfAD1+bYGeWwCHf5gQYoIQ4kAhRIEQYrAQYqsQ4v/CPw+Hv/+iEGKUEKJUCGELIVIhSHhBCLFGCPFZIcShQoghIYCgd80hQPibEKJRCHFfFkDR81HoK2gLaAvsYAENEPQLoS2gLdCRBRJCiI8JIY4UQowQQnxECMGcoYQQrhDixfDP+UKI00NH/m8hxLbQoe8thPi4EGKoEIJrOUKIB4QQy4QQr4T/LwqZghlCiHFCiMeFEA8KIf4lhHgrvB9gg/sDLgAQPxVCLAz7QD900xbQFugDC2iA0AdG1ZfUFhjgFpBCiGohxLeFEIeETpoVPqGAD0KggMPHae8X/v5aIcRPhBBbhBBeuMJnfoFNgC04Swjx1/BPZjgBcxFy2Df8PednazEhxBQhxJ0heHhGCLFYCFE/wO2tu68t0C8toAFCv3wsulPaAh+aBaD2fyOEGB/S+fcLIV4WQvxHCJFM6xVzx/AwpPBpIcSqcNW/Kzp+ghDiM0KIY4QQJwohnhZCzBZCvLErbq7voS2wp1hAA4Q95UnrcWoL5GaBbwohvieEOFMI8WRup3yoRx0dAppHhBAXa23Ch/os9M13MwtogLCbPVA9HG2BbliAkAJswOeFEHOFED8LwwXZLkVoAXYBnUB6izQG6BPybdy/OAxf5Hsux6N/uCpkFfzuXECfoy2gLbCzBTRA0G+FtsCebQHo+qvDLIR3w9j+ZWHIIJtlSE08WwhxU5rOAE3B94UQvwwFimQ1pDtqshX4P/NN+s+tUK9A1sLkTkBJR08IUPKd8A/ah4mhTmLPfqJ69NoCvWQBDRB6yZD6MtoCA9ACiAJXh8LAPwoh/imEeLOLcQAQqsLaBDj1YUKIHwkhfhVS/YAMBImkN/5YCHFNqF9A7Ij4kLoHlwshvhGCEgSHpEaeIoQ4LUx7zNWUZFU0CSHo+7RQKzEz15P1cdoC2gKdW0ADBP2GaAvsuRbAIS8QQhwVphzmYgkAQoUQgrAAdQkODusZ7BOyCvNCUPCVEHyUCyGuEEIgdjw1ZCsADl8QQtwqhPizEOKSsA+wEpkN9iEuhGjNYB84jvkLFoHfAUAAG2O1DiGXx6iP0Rbo2gJ9BhDOPffcRHNzs9XY2EiRk/a0pjPPPPPje+211/s333zz9p58yBdffDGTRvznP/85aVdtraamRm7cuLHk9ddfT95///0UYOm0XXDBBfZvf/vbHfKoy8vLB7mua9x1111Qlh9amz179gGtra3HSSnvX7JkyeaedqSsrMwqKyvDRjulkJWXl8caGxv5eXfixz3tmj7/w7MAzp66AzhYGIDlYZoi30RH3w/nVIYZDRyPHqEwZAGoT/BbIcQdQgjCDH8PdQ2/Dlf51DqgfkGdEIJ/PxUOnSyJ44QQ/5vFFNNDTcQ6IQQCSliOzMY8Buggq+HYD8+c+s7aAruXBfoKIBgVFRW/tSzrCMdxjm5sbKRAipg6dWp80KBBj0kpt7uue3JjYyMTU4dt2rRppDCJpUuXrsw8qLKyck4ikbjglltuIX+6rZWXlw8vLCzc0NraeklDQ8PvOrv2uHHj7JEjR97ned7S+vp60ro4f5BlWfcHQbDJ9/3KrvoXnjPUsixWU91qnucZRUVFW2655Zb0FDIxc+bMs4IgaFBKfba2tvbZbl087aSZM2f+0HGc/RsaGi5IvxbAYfjw4eSRG77vn93Y2Ahw67CVl5cX2LZ9qO/73R6zlNLwPG9DY2MjdLNuH64FSFGkOuEnhRA8e4ABThjKPxtIACBA4/O+wgpQPRGAQEEk3qNvCSEWhfUKqFFAcaNfhPUKYBOol4CgEOaCb/QcIcQtISsB+5BZ+IgwyCQhxKwwJEGGxZ9C1mJQ+DPCFRRzItUR0KKbtoC2QC9YoFcBAs5j06ZNbllZmVq/fv1i27aPfu+990ZFq/mKioqxtm0/p5S6dsmSJYiaOnVEpmk+bZrmoJaWllPuvPNOnGQ7E1FRUTE3Ho9/7dZbb6VQS1ubOXPmvlLKVxzHubiurq4zgGBMnz79u/F4/BrHcabV19dDc7a1ysrKebFY7ErHcSbV1dXtBEwyO1xdXf1UEAT7d/dZSClt3/cvrKurW5p+jcrKygopZZ3rumMaGxufz7i+UV5eDjAqkFLuUHRGKWW4rrsxkwGZOXPm7xzHOaihoaENdEWtvLx8f9M0XzYM447a2lqK43TaZsyYMVpKSd55wjB2fH2CIBCZP8u8GMdIKUVra2tFQ0NDQ1f307/vcwtQ7AgW4aKwKiLZDKz+/5KF0qczFCuCxodxomriAaGzxrFTCfFRIcR5YYokmQ7UK+B9IaQAs4Ao8qFwpY/jvy28zlfDf3fElgFIYRAAILw3BwkhjghLOj8nhPh6GPLoc4PpG2gL7CkW6DWAcN5555V4nleXTCYXjR49ur4DgPCdeDx+bSqVOqK+vv4fXRjZqKysPM00zXop5Xuu6x7l+34yHo8fo5TylFJVtm2f5nneDFakXMvzvEGxWOxWz/NuMgzjfsMwmFTeWLx4MRNIe6usrDzANM31vu9vCIKgyjTNdCdLWdeHgiD4smEYEQXafq7rujKRSLxx2223EToBlLzs+/5ehmFsCoKgM3ui3qY/7ccopWQsFvuk67rn1NXV3VZVVbVPEATzgyCQUkpiqhOCIFiqlGoLo9i2LRzHWTl48ODGDz744PFEIjEymw2TyeTX6urqWJW1NwCC53kH1tXVnZT+8+rq6jNN02zwPG9ybW0txW46bVVVVSNN03zK9/27DMNg4m9vPAeeTehgOrrOYNM0v59KpaoaGhpu7+p++vd9bgGc/ROh8PDuPr9bz24Am7A+zJR4LGQL1oZlm3dg4Hp2G322toC2ABboNYBwxhlnDNlrr71eam5uvm706NHXZgKE0047rbC0tPSvQRCMVEpRgCVrvrJpmlDdt0QMQEVFxdcty/o5qxvXdS9PJBIAAPpuBkFgGobRFr6IWhAEaBM8KaWHwzYM49bFixfvQKtXVlbeaJrmN5RSjmmazTjktEsoHL5pmmgQdqLRLcsSyWSyqr6+HnpVnHPOOS+nUqk/JxKJ+Z29Up7nfctxnFWFhYXt4YJUKrV/UVHRX7dv3/4VAEJ1dfWnpJQIv3C0llLKNk0zaRhGG4CRUha4rntjSUnJpdu2bVtrGEbM87zfh0BIBEGwdywWm+c4zrkNDQ3QsO1t1qxZv3Vd96BMgFBVVVUrpTwtCIK5SqmWDsaArdcC6gAIlmU9lUqlzm9oaKiNji8vLy8uKChYlkwmIQbIo8/aysvLP1ZYWPhCa2vrLA0Q+sUkBFtAquCVYWgB0Pd2uK8CoQOyBNhoqS8b3yxiQzZ3ymzMUdRIQOCI2JH+wSIAmvU+DH35VPS193gL9BpAKC8v37uwsPClVCp17ciRI3+cCRCmTZs2IxaL3WYYxnuhw0MQt5MDxtnhBOvq6ohRtvnF6urqa4MgOEVKWe77/kmGYYAQTjZNc4Lv+3OilbthGCVSygW+7zcahvEIK3Qp5fPpK+Py8vLTLcti5WoFQUA8s10HEfZrehAEhxiGcU0QBDuJ9gATpmnevWTJEkrPtgEEx3Eaamtrf9DR23T66aeX7L333q9v3779sqVLl7bpHWgwGcXFxRsigIDw8t133x1B2EApxfVODYLg84ZhtE2ctm3f6zjOraWlpTUwCJZl/WfRokVUvGtr1dXVB5mmyTOYDUAAlA0aNGhQKpUK4vH4jz3P+7jv+9Pj8biRSqXei8fjQ3zf/5thGEMZewfhAUAWz+R7dXV110cAwXGcr9TX1xNjRrsBUPthPB6f67ru14QQ92baApbGcRxS6PbXAKHfzTt8h8TwvySE+B8hBFstMzdQdpmVOlkGvO+wZjsA8rSRsOnS50JAkY/jJmTBu054666QDYgWD2z2hEaCLAv+DcNxqd76ud+9P7pDu6kFdhlAqK6ufswwjP0cx2FbWEcpddCQIUNeIdMh07bvv/9+Kj0LASHd0KFD7XTRIBqERCJx0Z/+9Kf2+H+kQUgmkxdnEynOmjWrSClFuOFAYuGu6w7JFMrNmDHjZ77vTywtLT08M8Mh2zuQC0BgdZ1IJF5zHOfS+vr633cEENKvX1VV9Rel1GdaW1tH3X333eyOZ8yePfuV1tbW35eWll4LQDBN8/XFixcjAmtrFRUVn4zFYi9GAKGiouLLpmn+BqCjlGKliEZAAQY8z5tomuaJpmle5nneD6SUMCk7vA8cFwTBXrFYbEEqlfp+fX39jR0AhONjsVgTAANwkw40sLNSCnaj1ff9kb7vGxog9PvZJHoPECoiMETvgjYANgFdwWtpQIH3ih0fKVKECPH6UIiYiwCV88g+IFMBzQMpkx8N0xoxEtd4KQQGfxBCvNfvLac7qC2wG1mgzwFCKpUiTj4pkUjc4TjOTfX19d+uqqpi9f9HHFNdXR1U+E67u5WXl7OqPbKhoYG933dqZDHEYrGvp4sUyWIoKCh4NRtAgOGwbZttZlHgP21ZFulQbFebzhLgEIcHQVBgmuarOLf0Rozddd2FhAOin0cAwfO8y4uKisjZ3qlt3bq1qKSkhJX9nIKCAoq6tLVkMjm0uLj4he3btyNSbL8mQMb3/eeVUq/X1dWhEldlZWWJAw888OXm5uYb99prr5/mAhCqqqomWZb1JQallGK8MdM00VcI3/evlFLepZR6rba2loI3WdsZZ5wxrLS09EXHcX5QW1t7UyZAOPPMMw9KJBL3SykPcF33B4ZhtCvfQ4CBCHKe7/vPmqZ5nOM4e2mAMKBmEFgEMhzYRfFwIcTocDXfBjjDhuN+VQhBKiKgAjaBrZrZH2GDEILiScw1MBUUN4IVQGAIGICZgKEgjEGGBOEErs3Hx7sEe9YRazGgDKk7qy0w0CzQ1wDhqFQqdaRlWY9LKT/ied6R9fX1L5eXlx9s2/bthmF80vO88vr6ehx3ujcmTfJ627YvdBzny8S6Z8+ePbSlpaXChKv+74r4ZNu2x3ueR2pUmzJeKVVsmuaVvu9z7UehxkMdQpNSaoht2/f7vv8r3/dfsCzrJtd1f2cYRru4KaTZy5i4lFLkamfqJNBHNCxdunRNJkAIr/m9SC8Q/R7nHGolRgRB8JZhGO/D2Yer6ouLi4vvzQQI06dPn4LTdV33gtra2jbGobq6enAsFgNk1JSUlPw6DDG8tmjRojOie2WGGKKfAy723Xffvyml3qivr0c5LqZNm3Z2QUHBzalUqhrRQFVVFbaMbdq0aXVTU1N7rQTCIIlEYl0qlfoOfUkHCI7jPFBYWEhxGhTlvud5dxQUFFwapWwC8mAwYCqSyeSJt99++1NagzDQpogd+ovjhupHmxAxfwBsQg9oAviWyIIAjFIrgQyHoeGWz3zfAARSKd8RQrB9NN8YW0B/qDVHBvQT0Z3XFuhDC/QpQLAsa5zjOJcVFhYubW1trWloaIh0BaKqqurThmEQdkgEQXDCkiVLKPna3qZNm3ZcIpG4WykV931/plLq3wUFBW1On4NwZqT02badiihtwIDrunEppW+aphtS3kZra+vlzc3NNxUVFf3S9/3vSiln2bZ9g+/7Q0tKSnYQRiGy9H3/BN/3jxw8ePBOzMZ+++3n19TUtLMOEYMQBMEGwzAuz2AdSEdgUm0LaRiGwcT4Af0OAdH5WQCCUVVV9b+2bZ+fSqUOA1Ax3srKyv1s20aoeX5paWlbFoNlWdtCHUWb3Xzf/6ht23ekUqkdRIrl5eUHWpb1gud5jzQ2Np4I2FBKvUxKqOu6FJfxpZTLLMs6vLW1dewdd9zRXm531qxZH5NSrksmk9+or6//YwQQWlpavialJFX0IMdxCHM4iURimeu6aB2uisViCaXUXZZlHZVMJmc1NjYCJNAraJFiH37Q/ezSfKuID9EZEAqkXsG3hRAdiWH7Wfd1d7QF9mwL9ClAsG0bBuEwy7JuUUpdFjm70OQ4winxePyuZDJ5Vl1dXaawjVoFX7BtexFLcM/zqg3DaKsHYJomE89fgiB4Ryl1bvQIlVJ72bbdFATB40qpC/l5WBfgXeoCRJUTy8vLvxmLxQAIhBh2YAkMwyDVsNAwDEIMOwAEAIfv+/PT1fsRQCgpKbli8+bNqLF3aJZlfcUwjOs51/O8rymlKC8btb0HDRq0Pp1BqKioONyyrNVKqSc8z/u853mFhYWFru/730MvoJQ6oqSkZP3WrVvX2rY9zrKs9j7SXQoveZ53Tn19fft9KioqsONdjuOsNgzjx6NGjbpv/fr1h8KqNDY2riK9EgDh+/6dS5YsQajWfk1YiVgs9mwymbygrq5uSTqDEATBRsMw7Pr6+hVUsVy/fv35tm1f57oujNEI0zQLATTpdSY0QNgjJxzCBtRHGBVmS7A51E7ge4+0jB60tkA/tkBfA4S2QknvvPOO+tSnPkVsn5VEekP9/lkp5TO+77etyh3H2XbnnXey0m5rFRUVF9i2XeO67tSodsL06dMnJhKJ+5LJ5IUZ6Xxy+vTp347H4zUhdX5PNttHAMEwDEIF7WxAGLqg/gBpjjvVQOBaruv+rL6+noIvba0zkWJFRcUoy7KaUqnUy4lE4tOu636rM5EilRzRSRiGMRpKXkr5RjweX44T9n2ffj3nuu7RMBsffPDBE5ZlISxsZ2XQT5im+SfXdWen10GorKy8yTTNr3qe12zbNmmcF9XW1lLtLrLx2YlE4ubW1tYzGhoadrDZzJkzD7Ys6+/JZPJcijllEylykbBK5jjDMH5vmuaoEKz8xTCMhb7v/7uxsXETx2mA0I9ng77pGgxajRCCHSLR6LwSll/OLP7VN3fXV9UW0BbotgV2CUAgI6G6uvrhIAhGpYUDok63FSuIqvAFQVBXW1sLFdnezjrrrJG33347YqcAIaJt2xRZesN13UklJSU7pFRt27YtiMVi1BIgjn704sWL2/dqSHOI3yTEkEqlsmUx3IjC/+233z48PRbfkYU7AghUlYzFYndIKT+TTCaPKCgo+EeYCZA1i+Gtt96qHT58+K2WZVX6vn8taZPsZ+G67v1KKWK5ZH5Qoe4TAIYgCE6VUr6TbiuYAMMwfqOUuqGurg7FuSADZL/99nsiCIKDlVJryTKA9nccZ3x9ff0LZWVlRcOHD38acSHFkizLmud53iVRxkh5efmhRUVFT7S2ts4EGKXVQbgwCIK7bNsmVXK8YRjftSyLojsUtVpCtT3btkmdK1ZK/ScIAgrckF76VCwW+6uug9Dtb3agnQhAoMARBY0QJfJtw25lq3kw0Mam+6stsFtbYJcBhJkzZ/6DVTBhgVCsBI0/GOFetFe8lJI45R+XLFmCI8zWqK54s2ma51JdMAiC9yl0kHGgT6hBSjlIKfU0eoLM/QVgEOLx+A1KqXN830/fD4JY/PlCiDHE9rPVQUADEYvFHrn11lvZzjYrgwDd/sILL/zStu2vUNxp6NChP9myZcubXaU5kqZoGMaCrVu3zo7SPNlIqaioiHv6pF3OmjUL8eI+iUTic83NzW5jY+MOIRJqEjQ2NsKKtFG4CB4ty7pZSrnWdV0qPp5tWdYTSqmS1tbWT8bj8UNt217puu65vu8/ads2FSYJB5F+hjjyqFgsttp13WmLFy/+S1RJ0XGcH1uWda6UcphhGHHXdSmuM5cwxZgxY7Y1NTXJoUOH7iOl/KqU8kscB+PhOM5psVjsvtbW1rN1oaTdem5JH1xBKEokrZGQ4A5FvPYYK+iBagsMMAvsaoDwjpTyrC1btpiDBg2aYVnWNa2trUfYto2WoJi4v2EYf0oHCBUVFV81TdN3XfcPpmkukFJeGubro3x+AfahnYr4r2RgpGEYfw+C4Ali9hRNSiaTF915553tOdTTp0//hm3bNyqltmTk7FMjAEYCKjTrZkSkOvq+f25tbS1FXXYCCKzY99lnn0ts217geV6j7/vE9M1c6yBA1Xe2E+WsWbPudV136Isvvnjs008/3WlBGsCCaZp3mKYZNwzj357nHUIlxerq6imu6w4bM2bM4g0bNiySUh7f3Nw8xrbtbbAeSimEhWOxWUVFxf8UFBQQJvlibW3tsohBcF33m4ZhfAldiFJqke/7/6EYEymkvu9To+HNeDz+1i233LK1uroaYELNfwSNj+g0xwE2S/S8u2Q9wCABENhQaYcy4D2/vL6CtoC2QF9YYFcDhDdra2tPZiCVlZXnJRKJG5LJ5Mi6urqNX/ziF/cqKCigyuIOAKGysvI29lxwXfd20zTP9n3/KZgHwzDWL1mypD3Fj2tGDtGyrOJUKsUeA1DgEzzPq62trWUHurZWXl5+QXFx8Rw2DHJdt333Qtu2ieH/j+M49yqlsjpfGItYLPafKHSRHmIgJNDa2nqpZVlXBkGwTik1ta6u7vVcCyVVVVXNtCzri5n1F9IePLrJ8WR2GIaxamfy5P8fqZT6q1JqSSwW+2dLS8ulaCA8zxuRXmr5jDPOOKywsPBh13VvaGhooNRuUFVVdUIsFnsgmUzOqK+vr0PvUVhYuLy1tfXziBHTNQhvv/327U1NTW1potS2sG2b8MYwlOu+72+XUpIpsfq2225rDxlpDUJffMb9/poaIPT7R6Q7qC2wswX6PUCorq4mlv4ppdQLpmnuv23btuOLiooeMk1zQ3oNgAggWJZ1p2maRYsWLToRet627bVBEPyitraWAkXp441SDdutUlVV9YWSkpJb3nnnnU/cddddncVI2xXYaYWSfmia5h8sy5rped4bvu8fFlVpzAMgXGNZFqGNrO+q7/vpxWmo/eBnK48cZltQBOkv1CGADaA+QfpmTYApy7KWmaZ54MEHH4wAUqxbt84oKCjYy/M8hGRPLFmyZHJ1dfVU27bvdhynbTOnjkSKnE9p5+Li4sOCIPifIAjOMgzjMCnl35csWXJcGjjTaY573kyUC0CgSBIVQ8kEQqvATpE0mCfeR+ouEE4DkPLtUm+B8KTOhtjz3ic94l1kgX4NEBD6xePxf3qet8VxHPYkGFRSUkKlxGfY4VEpNSeqixDZKwiCqy3LSgIQ+BnMhG3bLcTxW1pafmlZ1jCKFIVV/tLHT3gBBuGzruuSSRAVdtnhUYQFme6tq6v7Nb8IN2taEQTB52Kx2FjHcf7huu4Zd9xxR9teDbQpU6bsPWzYMGoOfLuuru7m6OeZezHMmDGj1HEcJsodGrWhDMOoEkKwRXYqCAIrTCEk3JI1U4MxJ5NJ9AXV9fX1X505c+Zv0wFCZWXlNCllbRAEXI/SuQbXNAyDPSqYfFUqlTrZMIzSoqKipclksqyurm5NJkAgDdL3/VOVUn/zff910zTfaWxsTJaXlycsyyqyLEvedttt7VkpmkHYRV92/7pNZwCBb/DzYalm9mTgu6IOx7/CrZypowBoIA36u2ygyoJBCEFdDcq2t1fu7F9D1r3RFhj4FujXAOGss85C/f+o7/s31tbWkiYVQOOnUilU95R8zbaZErKEpiVLlpxYWVk5LhaLvXLrrbe+B9gwTfM+0zSp7JbeVBAEtmEYrKIl4ME0TeonUN4VjcMOq3Yu7vt+fW1tbdvujQCEZDLJ1scUFCLvn33t/880zQNisdg213Ut3/fPicfj1ziOQ9XI9hTJTICQ7XWCBTFNc5aUEvr+67Ztn4J+QAhxv2VZVJr80ujRo5elF2+KrkMFxeHDhw+vq6t7NXO7ZwpVWZb1UCj2pOASYk0yPjYrpTbFYrGZjuMsMgzjoXg8jo7jmPr6+sczAUJFRcVs27YBPU4QBC1KKcDA40IIAMM/gyB4nc11xowZs4U+aoAw8CeNboygM4AAMzArrLhIhs+XhRDsBgoY5htHw0MhLjQM/IxCS5Rp5hzAgi661I0Hok/RFsjFAv0aIJSXl8+Kx+O3Oo4zLVK8pwEEh7LJmVtWG4ZRyY6RFFaSUiJUfDVTq5BuGICDZVkLTdP8muM4z8TjcRgEagwc4bruRYMGDartbNOmKMTw6quvzj/00EM9jj311FMHDx48+F++76NjiEkph5C9EQTBp2tra1H7t7WuAAKUfUFBwQ8TicR3U6nUH5RSF8Xj8Xs8z/vIyJEjP/fiiy8uNk3zdMdxvrF169ZbOxM3ZgIEMi3WrVt3tBDiycxMCPpWVVV1ned59WExpt8gJm1sbHw6C4PQtkOklPLTQRCwE+XHYA5830d0SmEp2BrYk8mNjY0vaYCQy2e52x3TVYgBQTBbOJP+yF4O1OiYQwVSIcRFQojThRAATYAB26V/lhRmIQQZR5R51k1bQFugDyywSwGC53kb6+rqpobOsU2k+MEHH4ygtC9FgizLYp+CdpFiRUXFdbZtX+y67rH19fXPcF4IEJ4xTfOF9K2OI9uw0dHWrVvREpoFBQWvSCnvWbx48dnZbIezE0L83LIshIzk9W8pKir6g+M4IxHu2bY9zXGce5RSX2tsbCTeuVPLVgeBio1btmypN02T7W/RCbzmed6choaGh9Iv0BlAoG9BENwSApVfKaW+29jY6MycOfM+AEJpaemxb731VqK4uPh3tm2fmUqlVvi+/0OceLZ+ZgKErt4lsjGoA1FdXX0ZxY4IV9x+++0vdKRBAHBs3LgxsX37dkpjszHWF8iGUEodGY/HD0gmk6PCfTi0BqEr4+9+v+8KIMAiIGQlu4EDk6b6AAAgAElEQVQU55uEEGzFTuXFC4QQiJHZCIpNoM4K2QQ2MYNt0ABh93tf9Ij6iQV6DSCcccYZQwYPHvxia2vrdSNGjLhu/fr1i23bbqukyMqWOgie5yGsuyZMUzzesqxzUqnUJaZpvk95Yynlb8mRJs0xLPDTZJrmIclk8lONjY1tokEod8uy1pim2XrwwQefkI1a5zjCEyUlJU+kUqmzopTEyOZnn332kJaWljMSiURNuNPhdz3PY4OnU4qLi2/dtm3bJ1KplCouLr6ClY2U8i3Xda+3LOv2xYsXv5H+7EKAsHTEiBFzN27c2G5PnHdRUVHctu1g8+bNrdu2bXMOOeSQHey9efPmjw4aNGjd9u3bvxLt5ghogD41TfO7QRAUBUFwLXsbAA64bzpACOsiFLmuey01Cf5bkdprlFLeDTOQzlbkCxC4F0Dngw8+QMhI2eTDCNWkFUq6xHXd9nBJtveZrZ3j8XihZVlU0fxPKpXyqHVRXFz8GIWXdB2EfjIL9H03cgEIXxdC/DLc/hnAAJgGEBwabu70WLip06XhdtIwDIAHHWLo++en77CHWqDXAMJ5551X4nlened5tx1yyCEN2QBCEARjDcNo3ykwqp4Y2V4pFQuC4I+1tbXnnX766SXFxcVsgPT24sWLoRTbW0VFBav+i1zXnWPbNiuLHZrjONKyrO/atn2E4zhjiMGHGQ37wkbYtj1fSvlxz/OoMMheAcQ3KSp0WgQQQkBCYabTpJQ/kVIepJTaHAQBAGftyJEjn6qpqWFF/zL7JVAWOTPc0dU7hSDQNM1DHcehjPGi6dOnn8kuk4ZhDA2C4P983/96fX09zr5dqZ0JEKJ7VFVVTRdCXG2a5kHhds5/qqurI+e8rXUFECjSRNVHWBTTNJNBELhKqcOllDcFQbAiSk8FIEgpn1JKoc1of5adjTVdEIqGQ0pZlB426spO+vcD3gJdAQQGiBARwSHv1V5U5AxHzfbQ1DxhrkJzBHjgOK6JbkZnMQz410MPoL9aoNcAAgNk1V9WVtYmHOyAQWAFOcf3fduyot1i23ZmJE6dMAyjPgoxsANhIpF4LqxhQKyxvc2aNWtYEAT/ME1zn2xCRSYTpZTX2to6Z+nSpf/LJDJ9+vSzEonErdzHcZy3lFKXDho0qCFdX5AFILTdMwxrzDcM42LTNNmlcKvv+4dS42DGjBkvs+lREASb04s25fLAYVJs2z7Add1zYBDKy8vHx2KxlVQjLCwsPP/mm28m7WuH1hFA4CCyIKiCyG7OJE8AjHIFCNOnTz8FfYNSaDYDdqFs26aaDIpkMokGpK0wVBpA2MTW1eHOlLkMt+0YykRbljU6lUpN1wxCzmYb6AfmAhAG+hh1/7UFdjsL9CpAiKwTlhq+RUp5tOu6h0KPz5o1a6nneW/X1tZ+LZsVqRUQi8XYr+HeJUuWXHHuuecOdxznWtd1H2psbNyp8lplZeUn2BQoLB+8wypCSul6nvevxsbGf0YrjPLycuLiv/N9/0F2Nly0aFH7lsZRfyorK08FRLiue2DmHg7UDZBSfhI/LKVsra2tvZZrz549+5VkMokugA1p8m3DCwsLCYN8mZ0S8Z+VlZWf2bp16/MdCQ7PPvvsZY7j7FtaWnpER+LJqqqqj9TW1r6b3pkZM2b82vf9j0cakMyOnnnmmR8l08IwjJII6Ciltvm+v/Sdd975S7QvBZs3CSGWp1KpOYlE4i/5DjiZTO6bSCQeTCaT6Doyd/DM93L6+IFhga4AAiJFyqxTvhxdEPuuRCXE2QmShUDbtudhGxzWTCAjiRBDes0SNoTj9+1i4IFhIt1LbYH+Z4E+AQgMc+bMmdD5hfX19RQ8CQgZDBo0SN12220diYqM8vLyUtLloo2CuE64t8AO+w1014ys2MP6BlkvAUiRUh4watSoDR1pGzJPPOecc8akUqnNVIPMt18wLkOGDBmRSCRez7apVLbrVVZWHsEqvLa2llTCnOnVM888c99YLGbBeuTbz/Tja2pqrHXr1u2TTCY333PPPXnHf3mejuPsF4vF3k1/zj3pkz6331ugqzoI/B49we/CFMfvhGGGzwghmBO+IIQglRbaEWBPVgPsGHUQSKtl23YAxJAQWFAD5T4yiIQQqzpgGfu90XQHtQU+bAv0GUD4sAem768toC3QbyzQGUAYJISAPYOZwskDCv4qhLhQCHFSqDVAc0DBJHZpBQxQmZNj2S0UwPCcEGJyuIcKosal7CYa6hZ+wy7t/cYSuiPaAgPIAhogDKCHpbuqLTBALdAVg0AYAQaBLKZfCCFgEN4XQtQKIR4MxYgcQ3XSzUIIUqVhDggxEEqjyNliIcR+4e+WhYADoPFIrmLaAWpb3W1tgT6zgAYIfWZafWFtAW2B0AKdAYR9w6JHpwkhEMJSMIkCaKQ1koUDAGD/hY+H4QKAwZiQLZgohHhACEF5cvQsVDHdFIYlyIZYSbqvfgraAtoC3bOABgjds5s+S1tAWyB3C3QGEKj7cXzo1NEnEUpA2/JE2rbrlFqGHfhTGGYARMAOwCSQ5sz27PyOwkmNQojqEEywpwgAQjdtAW2BblhAA4RuGE2foi2gLZCXBToDCGQwoDdgLkKkyLbjsAfUJkFjQIEwRIlszlQQsgJnCiH+EIYlEOoCKAAIiBOpsAjbQGVGKplSmpnsCN20BbQF8rSABgh5Gkwfri2gLZC3BToDCKzyceR/DjMQCA2wCRNMAI6fTZlot6Xd9aAwi4F6Hzj/f4QbOwEQ0BywXTRFvLgvAkgtUsz7kekTtAX+i9p10xbQFtAW6EsLdFUHoS/vra+tLaAt0E0LaIDQTcPp07QFtAVytoAGCDmbSh+oLdB/LKABQv95Fron2gK7qwU0QNhdn6we125tAQ0QduvHqwenLdAvLKABQr94DLoT2gL5WUADhPzspY/WFtAWyN8CGiDkbzN9hrbAh24BDRA+9EegO6AtsNtbIB0gsDPr73f7EesBagvsBhbQAGE3eIh6CNoC/cECbMS1bt060hR3aI7jGC+99BI7MlqDBw9+b999923tqr9jxozxGxsbe2WTtq7upX+vLaAtkN0CGiDoN0NbQFugxxaYOHHiYUEQsDES2zX3qAVBoKiY6HnerEcffTTvXVJ7dHN9sraAtkC7BTRA0C+DtoC2QI8sMHXq1NKWlhb2PLjbMIxn2Fa9JxcMt2RnJ8fx27ZtO/zpp5/Oe1vxntxfn6stoC3wXwv06EPWRtQW0BbQFigrKxsrpVxmWdaIFStWsJ9Cj9uECRMOjMfjL/m+f9CqVavYxVE3bQFtgV1sAQ0QdrHB9e20BXY3C0ycOHGcaZq3Nzc3j1q7dm2X+oJcxn/sscd+rLCw8JXm5uZDHnvssZdzOUcfoy2gLdC7FtAAoXftqa+mLbDHWSACCJs3bx7dW+EADRD2uNdID7gfWkADhH74UHSXtAUGkgW6AggTJ0481fO8N9esWfNM+rjGjx//ecuyHmlqatqSOV4NEAbSG6D7urtaQAOE3fXJ6nFpC+wiC3QGENASBEFwq2EYc1evXr06vUvHH3/8+fF4/M8rVqx4RwOEXfSw9G20BfKwgAYIeRhLH6otoC2wswU6Awjjx48vi8ViDpkNDz300KPpZ5eVlX05FovdrQGCfqu0BfqnBTRA6J/PRfdKW2DAWKCLEIM84YQTDvR9f7+HH354Ta4AYcKECQfE4/FXW1tbP/XII4+8RpGl8I8Ms6+iv6mZsFUIEaRdm3ltkBCCY3JtnE+oI/063LM01wuEx7lCiG0Z59hCiOI8s8ayXSchhKAqZT4tKYTITBMtEELwJ59Gdkoq4wTGFMvnIkKI7UIIJ+NZYeOdCmx1cl2eEc+cZx81nnm+1+FcrpNekIt3hncnH9/I+R9kvDtdXYcxRPflb08IwTNPH1Oepu39w/MxQu/fXV9RW0BbYMBboCOAcNpppxW+//77H5FSHmBZ1j5BEOygQVBKVZimucz3/fellJuamppwQDidoUOGDPncZz7zmVsff/zxB5qbm/cKJ20cAM6WPzhL2ttCiEMynFeJEGK9EOIjeRiXex8shNiUds7xQojleVyDQ6kHMSHjnJOFELfn6QQBU5MyrvMdIcTVefaHstZfzzhnoRDikjyvwzUyS2Q3CiFOy/M6M0JbRKcVCSGeFkJ8Io/rkCnzaSHE62nnAFT+JoT4ZB7X4dDDhBAb0s7hHXguT4AAgP2sECI9xfcAIcSzXQAxwBJAAQAHUPmHEGJWnv3v08M1QOhT8+qLawvs/hbIAhCMsrKyEUEQzAuC4B0pZXMQBFJKySqprSmlAqVUgWEYKcMw9lZKlaRSqZ88+eST/0uBpHg8HjvuuOPEo48+6rS2tuIQWF1xPhMqf6KV1ntCiKMyVqUAhLUhqMj1AXDNw4UQ76adMF4IUZvrBcLjcAqnZpxD0ac/5MloPC6EKM+4zteEEN/Psz/1WcDA5UKIr+RxHfzEHCHErRnn3CKEODGP63AoY7g77RwYkSYhxL55XAcGAvD2RgZA4Do45lwb45oohHgx7YSDwv7k4xvfEkKUZQCE/YUQDwsh4p10JmJN+Bu2CoDDu5LePiWEOFIIsUoIsTkLi5PrWLt1XD5G6NYN9EnaAtoCu7cFMgHCxIkTR/i+f2MQBLNN04QZ6JQ2LSsrk47j7G+a5k/Wrl070fO84oKCgmc/97nPjXv22We/tGnTpsfCyRGgEIUA0v/OpNCZ16DQ85nfuF769XloTNwRU5HrQ2SsmbUgunMdaGfCA+kN5iRfSh9glU7pcz2uwbXyaTAs7QAvPBHnh2PLp2W7Ds8qn3AQ9+OZp4eD+BlgI59nzrFcJ/39pB/5hl8iFiDdDly7q3BQ1FfeD0At/09nRbgeYK4mDFs9Ef7/qXwM3pNj8zFmT+6Ty7n0JbM/2SYWXsh8+x2tPDI/tlz6lX4MH1tmy/dD4/zM6/BS5hODi/rQG9fh5c788LvTH55V5uY6jCnfD59rZD73bM+c46LVZL7PUR/fixbIBAjHH3/8PMuyblq5ciWr+2xtmBDiGyG1fGd0wPjx4w/ZvHnzN9atW3ftYYcdVjBs2LD1oQbh373YXX0pbYGBZAEYhW8KIY4VQgwOtQ6EZH4nhODbyQSRvTq2fB1tT2+OwyCOSNzpo0KIMeHfQ4QQe4coKkKF9G1eGMdJv++vw3hPrn3BuVRm0Ej04YFcLxAex2Q3LUPwAxJfkQfiZEyIWc4KY05RF6BIf5EFEXfWRTaxgYJMd+68RD/L4vA7ug79gZa7NOMAYqYL8hDM8Fz/KIT4ZcZ1Lgttlqvwhv5cKYS4N+M6XBeaLX3FQGoclNv7YdyYOOILQgieE7G9KL6X52PWh+drgQyAkDzuuONq1qxZc0WW6yD+OjOMow8PJ7kLouPKysqKlVK/2WeffWZv3LhxuK6kmO+T0MfvphZgfiV0co4QAg3Hx0MGaGXoIwEM2RavPTbHrgQIgIHZoQgD8VDmyjKTLmJwU7OIhKAb/yfPkeNcMGLUACSIm/JZ3eKQiAelK5ShohA1dUUlpXcXpTSiqvRYJ+PMdIpdDZH+fyzjxfhCiCq7Ojf9938WQpyRcQLPiZhpPg1g8q2MEwANvNT5NGKjoOP0Rv488eBsLfMd5kMBLOB4iEPr1scWSAcIJSUljlLq+6tXr0YIl94OFUIsCsVlfOuI/wCmCMLa2rhx4wqLi4tvKy0tnYW4UQOEPn5w+vID0QL4rLOFEHxf6Bz4lthFFQFrr5Q5TzfKrgQIqHhZPTAgVnmvhOwAMRdEHjg8VoT8oV8cB7XISjC9oVJF6Zxr41qsLNOpGBAZgCWf8eN4uE5mas3YPIEG1DgK63Q6nvgT4ph8GrE8HGE6sOI62Ccb2Oro2qhnX834JapxUGo+DQD1ZsYJvMD5KMnpN+8D70Bnz5zj9hFCAPSg3RA4Ad5QNgOaeD9OEULcn88A9LHds0CWEMPVDz/8MKI2WrGUcq5S6quhaBDQhoL+6bKyMn/o0KFBY2Nj27dQVlb2kSAILn744Ydrjj322AM0QOje89Bn7REWGCqEOFcI8b1wjmUORwDaq3NePg4yV6tHOb+ZkzwIh0n8TyEYACRAt+umLdAbFgBZAxYAJIA/WId0loawEsibuN3/9cYN9TX+a4FMgDBhwoQTDMMY8/TTT6/cvn37NUVFRad7nvd/ZCkIIW6OwmtlZWVfFEL8vamp6VXCC77vX2QYxj2rV69er0st67dLWyAnCzDXzRdCnB5mURAaJhMon0VihzfqbYCAjgDacGQYe84Uv+U0Yn2QtkAfWAB2gTx8gCmr2fv6WuDTB2Pol5fMluZ42GGHXdPS0vLNt956C53Om5/4xCdOeu6552Dg2tvxxx8/S0r5ZDKZHBSLxc5XSj26Zs0aFhCBBgj98lHrTvVPC7A4Ol8I8aNQUxYx9T3ubW8BBDpI7u+NITUdxdk7UjH3uOP6AtoCeVqAcMcSIcTnwjDROiHEdCHES3leRx+eYYEsAIHiOUtisVhxLBb7xdixYxcVFha+sWrVqh2YGwCCZVlPJJPJpOd5qSeeeIIwY1vTAEG/ZgPYAoSw0adlhscZEoCZmgkP9YGwEJ0PzH16fYgembE3AELEGhBXJJb4l1ABj/goM+2tR53VJ2sL9NACfLhkkBAfp4IaHxKZFgAH3bppgQggNDc3j1q7di2V4K4NM5UuFkLcctxxx42xbfvtTIBwwgknzFJKrbUsa9ODDz6IFqa9aYDQzYehT/swLQDNzxyDkP62kPZH+0YmXaRVi7J3WOVHmQf4YcAzWqofZ8ke4/dU1iR80Cuhg1yN1FOAsF9oiBNCoWFUJUuHFnJ9Avq4D8MC6BFIpyRjAvaLmB0fX6+rgD+Mwe3qewIQLMta+sorrxz20ksvPR+KRL8cltQNxo8fPy4Wi72VCRAmTJhAypYVBMH2NWvWIGLWAGFXP7zd9H6TJ08mlb4oHo+rRCLxQWNjY2axqN4eeVS9EyYdoTWLDuYUmErmG8pSwx4gIkfMnV6WmZ//VgixVAhxYAcAAQDdHe0UPpo5rlusQk8AAgNBkYyanPrjqMbJSd+lCKe3n7K+3h5jAT6ayUKIxUIIsjbQJFR1QAvuMUbpzkAzQgzfDbOTSJ9ta2VlZUewgGhqatphkiorK/uKYRiXtrS0fPaJJ57YQbCsGYTuPAl9zrhx4wbtvffe3zFNcybfdRAEZJ2RJbfgmGOOWVpTU5NrTZZ8jQlzRvo9e1bgAwECzC0UOiLUAItAOvxdYVp5uu8FLGQrEJdvHzKP555kNbDPxXGhHfK6ZncBAnWwqctNShn576zGAAe6aQsMNAugAga9o03AqVE/gZRN3XK0QAZASN8zoe0KEyZMONB13a1r167dYY4oKysb7/u+s2bNGhYYOzQNEHI0vj6s3QInn3xyuWmaP1JKoTd6LgiCd6WUOMn9giBgE6YnlVKzly9f3tu6I8IHFHP7fLj6JwUdkMC+GQAFKiFSP4fwARtwwSpEvpcQPUCCuYd9IQhRcC6hicySz+zVQHmAXBvMxPVh+iOFAQmvpjMXXV4nX4DA8aAkqBBy0H8agoM+LffY5Sj0AdoCPbMApX+huKlEyaYopN9lExj17C676dldbPfcrVFrgNAts+2pJ8lJkyZV2Lb9a6XUP4UQV2zatGn1008/3RbjP/bYY0tKSkrImJkTBIGbTCY//9BDD+Gke6stCwECxe7Y8ZI/6BDwlxScw7FzPwrH3SSEuCftxqPYvTScf1icwGzCaFYLIX4e/j/ahoDrpxf8y6X/gATCG+gjGsJU78xtuzu8Tr4AgYmU3coY0A+FEFfpkEIuz0gfMwAswIcJHUfYgfLTrAbyQtsDYIy93UU26ymcOHHiQaZp3h6KFHtFxzFhwoQD4vH4q83NzYc89thjL/d2x/X1dh8LTJky5WDbtp9yXXfl8uXLWSVnbWVlZQcXFBQ8YRjGuqOOOqqsF8MNMBboA6jDwu6Z6BCivWlgBNABINqn/PgPwmOjYoCUH0fUm76VNiJqNA1s1ETtoMyCePk+PEACO0tS0p9kghty9dv5AAQq67HvAGWC6Tg5lzpLId9HpY/vzxaA7kNcBEigsmVmhcn+3Pdd3TcmPiaaE0eMGHH28OHD7zNN85jXXnutW2KozM4PHz78mFgstqq5uXnf9PTHXT1Ifb/+bYFjjjmmoLS0dKWUsqS1tXViU1NTenG0zM4bkydPPsm27Ts8z6tZvnw5hbt6q+FLCTPADsBC/iosPY+2BgcNiCA0zxwDkxA1nDYaAcol0xBXUoacBQo7TXK9a8JFS0/6CtCgXxSSo7Q/i6AuWz4A4ZjwBmgPiKlkCyuwNSqKTSgS2Ia/h8dBl9yRhbZF2IE4LLNeAqs5DJptrwRASa9MQl1aRx+wJ1qATcQQ9NTuiYPPY8xsFAZl+ffi4uLJRxxxxBWGYUyXUrbXMsjjWjscGqAsU2ofz/N+/cgjj1Alrq+EZd3toj6vn1hg0qRJpyQSiTubm5snrlq1Clq/yzZ16lRC5J8qLi4+PCrz3eVJXR9wuBACwIFYH99IFg8aAjR6UUM4yQo+KhiG1gA/WRfuP0OJeNIjbwlBAv6PBTkAge+tp2FPBJOUISDTCADChn+dtnwAAhdiV0QcekclkhFlUKUOgEDchU1/SC8h24G8c4o4UMzhs2F8BrqFFLP0/dxJ53gkZCswWGZWBEWYEJTppi2gLfDhWAAQxTfNd84mWv8YN26cXVJSco6U8mCleubPpZTC87y/rV69GrpWN22BTAsYU6ZMGez7/pG2bX/XMIxRruse/cADD5A+2GUW3eTJk0+zLOt213W/bZrmmmQy+a+mpqae6OiobQDoQMfE4pWFMit1mHYYgihEhj9ENMlmdPhemIVxoU+EQQBAEGpAtEgCAH3CB8Lec31qtnQ5vk5eFwAHIIat1lkAcb9eBQhdXY/BfCbcRIKaCIADkBUbSgAuaAAEjILYkdgMk0A6UAF8QKuQEpINwGAgHRvu6kno32sL9J0FWPGw9fm3u7FNed/1Sl95j7DA5MmTZ9i2fYNhGCW+78eVUs8HQVBoGEZ9EAR3r1ix4vHOWKeTTjppkGVZyyzLwnm3ep5HfP5ry5Yt625IEfqekDvZTyxw+ZvUSlhwQgoshGmwCoAChIqUB+A7IruC3XSfEkIAvMmqgmFAywNbjr8jnIdO4cLQp/bkOXN/MhpIPZ7QlegxXwahq44x0KPDWAvKSZw/KwwEF+kiDFAUIABKiKISNPpCqAGlptY2dGVp/ftdaQEQPKuTvi62sivH1N17MalSJpZJmJStntEF3e2FPm+PtMCkSZN+ZNv2N33ff94wjD/5vv+CYRiULv5VEAQo9Y+WUuJoibG/YJomeqIF991333/SDTZ16tRSpdTIIAjOtSwL+j6ZSqWqV65cScXC7jQ2KYwqI0bn4+cQ9Ee73B4Qhs3pC04fliAKmXf1HeHYe2v+IYRKqAG9BkAhc2PF9vF3BhCidIt86hvwoHgghADILX9QCEHhFHbQY+tmkBX3JAzBH8Qakc4A7QIKVDpMwRrSP0BP0e/TqRVYhuuEEDmna3TnietztAVChI84t9e3Uh2A1iWk8IQQgomO75xQoG7aArvCAvKkk076Ent7eJ735zfeeGPm888/71AxUSn1W9u2z7v//vvxB0Z5eXnRli1bZkgpL7Bt+/BUKjX9gQceYMGatU2aNOkIy7LqDMMo9jyvbMWKFTtsKrYrBvch3IPQPgwg5dB/0dH9OwMIR4aKbsooR6v8XMZB6iNAgQ1bQDyIEyk5STEJlJ0jQsBArIYiDqAsGukeUDEwEKSLEK5AmwANAxggvZJjAQwgNVBYV6grl/7qY7QFOrMAITIcITtBwobtyY395wH1fI/ojXoSD92T7ajHnqcFJk+efIBt2/9USj1QXFxckSYuRI/QGATBRStWrGgvcFZWVmbFYrE7DMNwlFLfeOCBBzoV5HF9y7KeUUo9tmzZsi/k2b2BeDjhD4ouoXMg7L8DwxINqCOAwM8JAZwYFo9hcsyloRsgnkOoAEpkYbjyqggdPcwAsRqcPtUXKTuZziAgmgAgRLnUKEKJdX4pZBcogrEnoLtcbK2P2TUWAJQSHuPdhA1jx9I9sRFLZR4AyLN1dj6Lhj3RXnrMvWiBU0455bogCL7iOM6RK1eu/Ff6pSdPnlxjGMai9AqJU6ZMuSEIgpdXrFhBsaFcGimQ59u2/ZNUKjX1wQcfzJcdgwEnpE7GHn6TsMKjQggEjOgRaLCQvxZCnCyEICSB/0tvCBvJFswMseMjATiRHyYF++pwTkLXAENP9hCavnQghBiS4kvZgDw+Hn9MVuK8MFNiJzt1BBDI1yQXkwpR6ApyXSlwIzrJAFFdwkLAIjCpkl8Ou4CDJ/2Dfd/JG00vOcn5EUAAbETU7j/CsAVhCQbcK8VYcnlr9DHaAqEi+a/he40It6fpRgPRqFCR1D3gG2Vy0k1bYJdYAL1AEATrlVJLV6xYQYr9Du3kk0+e4vt+8oEHHmBxCqNwpu/7xz/44IMcm6vvEuXl5WZzc/Na3/dfKy0tTWcpchknG78RFv9OuB8DgkccO7s2kr2AT8TfkfpPn4j/ZwIEgDdpvZlag2iHSMICXJO0R8ACC20W3ITzYT0QPsLunRP62LND3wsYiRbi+FtY/UgHQZ+47g6gKxpwNoBAigYCJPIv0RIwoFwa1yINg4fEiv/8UK3JgKExSPnAaCA6RIs4fxx/1HEAAQYCIGBMJiFCDNSvjtIdySkFle2pq7hcnoM+pm8swLvNh8lHt6hvbtFvr8o3SolXWARWL1pE3G8f1e7XscmTJ0+KxWJ3bd++fUxTU9NOmQYnnnjiEMuyLlq+fPkCqioqpRqllCcuX748H/1cm+EmTZp0RSwWO6e5udCJSP0AACAASURBVJl75Zr6CGPAKp5S7bDcLGSjfQ8Iy5Gaj1iRhTFFkWAQ8GMRI8D3tCnH74pMhrmhDojvEoBACQFqGxD2w48S3sf/4sf5OfeO6pMANlj4d1kDAXtkAwg4aBSgiDpAIjkjsFCZiZO/KERR6AagIkn94DrQMIib+Bv9AaiLxj7YCJ9uDkWKDIgNXAAQGJfGZhc0UiSplZ81ZrL7fR56RP3EAryfUR109DR70oZO54WrFFYal/aT56G7sYdY4NRTT/2SaZpXua57yP33379TDZ7y8vLi7du318bj8VmO49zkOM73H3zwwde6Y54pU6ZQabEhCIJP3nvvvR2q+zOuzX4LhBEQ8E4JKxVS14DvBX+F8B7tHey6Fy6C16el6/N7wEUu2zmj46NfABLYCvz1t8KsBELy+EkW6SzAKUQI286CGhYj75YNIEB7UEsaoSEoJ982OozDQEVCx+LIQXLEclFNRowAKzKOofFviidxPxSVoBwmZB5y5mqFHa8QV3Q3ZzXf8ejjtQUiC4DQYbZYFRC72xMaqx7isaSO8T1HKVvtY6+pqUFv9JGampqN0LRjxowpqamp2VJTU2Mlk8mSH/3oR5tramr28zyvJB6Pi+bm5nds2z7IMIyPeB7zpRBSysCyrMffe++9VElJyZirr776mblz5x6glEpec801rK7ybQivWIwwUeJU0DJFjdUU8WLYIDIzaMw5VLFjEzomWuYd5kd2/mOnPRYzlMGl0WmePwJWbBI1UuSY79IL0EAlwzihw2Ih1DbckB5mTqRfkdgaB0F1SiZ24tE0+kDhHM5FMM5Ci59R259iVYyBPTFo1Ich7ky6H7sIRllg7DHCIo2YczSfohNjvPwMajq6F6FhxskqN/rZi2HIGWYYhpnG6hrHSDgaW0f9IgUWATr9isbFvRG3QoPDQEX9QueGQ8M2kS+K7IUNeBZqv/32mzh27NjPPP7449M/+OADhMLRopUV+D+klF/62Mc+Nru1tXWDbduxN954g/tQThinHB1LgT+ccqftlFNOYSxPJpPJg1etWpWLw+Z62GR6mFXH+8SzQ0hPMSIW2Yw/0kLwzFnBY0veFVb8pPtjL/QEvIc0UiD5fbqP5p3lmQMMYAZg1gEI1DVgMQ5LD4AgRME7yJ4OLMZh3pmz8m6ZAIHVP6uk1eHH1R0qkWsyyP9++dkbx/CRdOf6eQ9Sn6At0EsW4KNlVzZWCjifPSGLhrgqEzEaIia1ndrll18+gpz0oUOHHv/mm2+Wkle+YMGCm+bNm3dcEARfXrhw4blz586tlFIyaX2glLpRSnl+EASvSSlNpZQKgmB0EAS/icVi//A871v82zAMiuH86NBDD31m+vTp+c4VxGdxPNC9LCaorxI15jgWGmyCEzlt5iTyw6Nsq8jhMfkCGLgGK0Aav+M4FjxM6lFjMx4ACdRu1HBKAAkK4VAEh8a9eH9wLHenOTHCuUz4VKFloRUdi1NEvEZ8OWqMD4fA+xgBBIAUFDbXpKxuNAZsANBhLJHDxOkz3+OcWJxF96IEL8I6gEbUGNOMcGGGU6Lh9Cjyg/NBmBfdi8UeDDTfSHQvbMfY6Rd0fHQvnCJggn5FoWaqDuKkcXhcv+3Y8ePHv/7kk0/e7DgONo4aBYdwiM8ZhiEp0R1S6YCjaNMkfsZ3yor+62nnZv3n5MmTx5qmybM6+P7778+npD8OmGfBM0R7x07HgB0AAe9IJOrFtuiZqGbIz3g/cPoAsmgfCc5nnCzUsUtkW3wqY2GhwrvAs8CevAcwmoA+vlEYP2wLqwF4x55ROAPQg54op7krEyAQ22CXRgqgQFPopi2gLfD/LcDHCsMGjciEnWt2z0C2Ias4xImsFrNu8DJnzpyxhmGwlS4O4CEpZfXChQt/Onfu3EsMwxjped73EonEVqUUNOcbV1555Yof/vCHP1VKYcsx27dvX1xYWHiV53lLY7HYYMMwhgdBMF4p9VfLspzNmzff9vOf/7yj8u4d2ZaVMCtIHDFapsg5czwiU2LFxG5hSCKHhVPi/1TGi5wb7CdAAqqYyZbG5Er4k8k+Ahj8nBUfIVGuGzXuzbEACrRX0b24P/Mv/YruxRhxMpzPyjK9XziDaPXNz3EIOBgYjGjVycqRdxL9GHqR6HzAADUC6EN0L6hnnBkgIWJG6A/3R9SGDaKG48FxAyT4HQ1nxb0AJOwnEN2LejeMg35F9+LegB6eByns0bHYlT7Tr6jBgvAcOL/t2YwaNeqLBx544My///3vEzdu3Mj7GDXYrLcsyzpi7Nixl6VSqdfWr18PUwEABFwQqqYPsB0ApC7foSlTphxn2/bdrut+Mk8NA8+HcbKIwEnXhM+XdyW9gBIVhXHqZPFFDA4ACUAHs8Uz4P8I+gEOABtCCOnhDlgBmBcEkNwvEvsDonku0bvCuAEoZBMCZqPfR1kVaaZse7fRN3BPAEz7Q4r+DZqFSuSl56UFIebbeFEjxMa5UFdch0p0vKQ5oZYQNeV6LKEIBBcMno+KjzASZGDskeG9O2M0onFyLismDNSR9oJVBC9C5gZT+dpKHz8wLUCJcGhUNlRhZbYntGgVk/WbmDNnzqellFMNw/i067rzLMv6gmVZN3qexyoILVFs4cKFd11++eXnSylfmz9//vIrrrjiYs/z9gqC4EHTNGcopQgb/tM0zTZhmVLqdN/374IyVkq9dtVVV+VK90bPg7r4hEUQWufLPuwJz3TAjPGUU075vGmai5PJ5KiO6hk0NDSYzz//fJBlC2d8AAwMfgjg0WmbPHnyxezvIKUcfc8996TvEdTZeTjziFkBAMH+EG7CH/KHUAphBcAVISQYAMARrAG+CzYI9gqfAoPDz2EYaDh2ABxif64Fc4DTZ1wwJdwXoBcx94ToyRTknpzDfQhvwPTAHCBezFaREfAG4EOvQGhiJ4AA5cZ2kNyAzuUjToyuh3MlpkbeOP8mFkRnQVQwE1BgfOhQf4gsEDNmAgGMRIgDISLnQLNE1B7HMjiuTx1pPnwGQ39Bt6BP0CwplDQMSewJeow+QMVF4wKdgrzSaSSQO5tZsELsaFLBwMSYULTrtmdagNUQTpN3Llcgu9taCoBgWdaJvu8/YRgGzEpy69att5WWlt4ipWTSOfTQQw+tfvbZZ8+LAMK8efMuDIIAQH63YRjX+b5PvHabaZqfCoKAyY7vjMm0NQiCh6+66qp02j4XWzI5sopmbtjjn1EuBuuvx5ClYJomDMCcFStWEFLIp+EDcKCwCugBOmvG1KlT/+L7fsJxnClNTU25LCq5HovQqOAfK3pW9oQYeI/5w4od38e7CGCN9iXiXBgRtHeEFVjs4vvoJwwPcwx+Ct0emgxCH/jVKBwD04+/Q+MS3QtWiXoL1CtBUMzf+HRCDrAWEAH41cxSAQANABTMBOXU26oUp4cY6ARbUfLLdoohnycRXg+EE5VjZbLAAeNwcdoYCXEPA0JkweQROWzQFQ4bAQboH9QDowFtB1XERw51hqFw5LATCIdAPhxD3YYo3QQjQesAGLgW4ID7QqFEG2AQpyG2xgonajAn9J80kcxJBVtF1A7nIQTKFWHmaUZ9eD+3AOCQbwUaFEp2j26XXXbZYbZtn7Rw4cKfXH755TArLyql3iR33ff9f8ZisZt937/Qtu0zlVKvL1y4cNm8efOY6P8WBMFgpdR/DMOoNAzjZwsXLlw1d+5cJlFK5SrTNL+ZZVWYi72jua07C51crq+P2YUWmDp16h+UUmdKKclkyEe0iuPGz/CnU6HelClTjpJSPuS67qwHH3yQWgHdafgjfAtajPTGQhfQAFNAeAgQQMjowNAZU9+HxTXOG58ZZf9FmzaRNomWJX31zx4SVEQkBBg1QmGAbY7Fl8Pek3DA/fCxLMwJW8AwZDZ8HxsrwpLiw9sBAidiQBATF83cdCJXQ6HgxCnj0DEQnYcxAOlgcB4saAZUxGoeY7KK4L6sEOgU9Ar/h0nguChuREwJKgfGgDgX1AsOHVAAnUPchqJOjANAAqXDy8HDImWTVBKoYRrOHwaCa8EGUAoaw3M/DBpVa2QsxIaYbBgbcU3uQUlo4ooABSagXNNhcrWjPq5/WwDlNmwb72O6aKp/97qPejdnzpx9DcP45FVXXfXIvHnzjjYMg1VNoZTy/pqamg/4mWmagIURsVhsy7x5816cN2/eFdu3b/+xZVmDioqKkp7nlUsp+a5Z9R+WTCavNU3zeNM0T7Is62c1NTX8Lp8GA8GqCMo0G4PA/MOCI32RxL+ZmPnuoW8jgSZxeiZ14rO6fQgWQDwYi8We8DzvN8uWLWMRmWvLCSAcc8wxBYMGDXpUStnS0tJSlgd7kNkPnD4MAmn8UcO/4vcQfsIC0PA/hD5YsbNgxofQV1b4rN7xgRG4hTFgsc37l/4uk6mRzphzXcIRsAaELlhA48/wvdF9CcNzjWw1HugTPhL2Dbah/eOA5qCSEpReT+KqgAI+MhSkOFEGSGwRpMMKHiePY+UjRD27MnSyoCriIyAfAEKEdpiAMQ7hhmj1j2ITQ6GVQB3Ky0K+KSIaJmsUm8RbqC6FEAghFAwCKmyQFh8+AIYJh/Qf7kefGTuxI8ACKSswDawUUb7ycKCAAAeETSKKB1THRIOaVrc9xwJ8gDAHiN0IM+yOlT2JpfJd5F1sJpfXYN68eUcuWLCgjakMsyCOa21tvTuRSJxlWdZigAW/mzdvHmDsgwULFhDWyafBHELZZitdy3Vw/swLzHuRdorJltRqxG/8Hi0TiwYmVRY7LCiY06CI6R/hS912gQXYWyEej18Fo6SUWphMJq/PsZARTpd3hxBDVgZh0qRJ+0kpf0mYLJlMfmHlypXRQrI7I+soi4+f9zabhR/iur2lseFdJ30WoS0sghehZ4QRKJBxzCgre9IACdAY1K3n+ukAAXQFhYEamo+MutSgLZw+HzT3jtI9AAdsSQnQoMOEFkD8UJgACZASwAZ9AogfFSaKYlTLXBchCJMbAAEAASKiX8SLCE+QpUHfWGVgYHKNARfsu02IgZ9xHgCEPuMEADr8LmI1mDigakByvbUVZ09sr8/ddRYgvgfKhyrfHQECFdpI74NBG4hFoWD7mBtYfGSbQGEfAfiENZkMWSzANvIsYS9ZEESpiVCypPKhkOeZM7/AhpL1pdsutMCUKVOW2LZd4brucqXUtYlE4q/vvvtuh463ublZrlu37reGYbxw5JFHpq/qRUlJCamRZ5imOde27Y+3trYSWsAP7cmNdxw8QBbLlgggIOJjdc1H0dMCRJG6koeBghIqA8cNhQJ9CPUHXc9DRb2ZDSDAMBDvJ4UGJTJhA2gRrs01SIshTgNIAHTATvBvECIgAIqE+1DUhrER+6HICKwCcWNWAzh2VgjcAz0B9wA44OzRS9A/hJsAFio8IoyEUcB46eky3A/Goieoc09+IQfq2FmZ5CpiGmhjZGWCpodvC0DtUgDpoIMOGn3ttdeywhA1NTUHRbR/TU3NITU1Nf+aO3fu/pZljSEf3XXdZDwefzTSD9TU1Bzhed7Rzc3NtT/96U/7hJXIMHJXAAGGgG+dWC3gACoWTRGCMhTvgATAAiCJuYxjmX8ILUHdQhtDGe+KsQy096fP+sv2zlLKr0gpfyKl5Pm86/t+pytopVTMMIzAMIwdQudhhsww3/dfcV33gvHjx6/upt4lfbxoAHiHMrNu8IEAbfoKMMVf9Md3B4EjWIB6HM9EAIG/I71AT2kQcjYJMeCsWWFzbZw7VDw0P0pJaHw0Anx4fMhoBlils4rHIWNg4iY4ecQdhAQwKh8yMRuYBuhBqoARRoAaIY4DI0D+KcifFRDKTQACKwNAAhXRAAgAAT507s2HjziE0Af3QS8BQ4EdiBGxgqLICvcD0KQDBKhmwh9Qk4g8ddMW2B0sABuHiBi6HWAtLrnkkqJEIvGA7/vnXXPNNS/MmzfvygULFvzwBz/4AXXw72xpaTmzpKSkVCl1tlIK0H3Xhg0b7mFbXtIblVJ7m6aJ431uwYIFjwI4+N2ll15aEovFjkScyFxBrRsm82xGDM9hLslljuLbZnFBCdtsDoRwIk4eZpG5irAldRpYOVGwhngscwtAgnBStBABULBwYAEDCxllTO0Oz32gjEGedNJJY6SUZWhfpJRRoaid+m8YhvHyyy9Pi8Vi7x5wwAEP/beWUlsDx7alPiaTyYeampqy1QbI1x74OtglwHW6yBHADaMN041vwdewWOX/UcPH9AfBM4wbDD+CxR+kC3TyNUa247kejhptACELVt5R1gBMAatwkBOr96gsJCEDkDs/Q2yIwwbpMWEgmCTOi4G5HkrPaJMJRIcYHefPdSkGwYTG73HypI6wyuNBIVTiOChHQAaNcAFoiUpWrARBo5lZDMRhYQvQZcBSEPJIBwgIT9AuILDUIYbeeIP0NfqDBQjdwSRCrZOtIUJHvghywLbtaqXUFfPnz78c5x8EwcGmaT42f/78P9fU1Bzluu5RV111Fd+GuPrqq4e2tLTcPGzYsGnDhw/3yFX3ff8wwzBmK6WI4aMTAKBfaBjGFKXUgRRQsixL+L6/jVWi67rFtm0nTdM8l4wH3/cfZ8JvaWkhy+Ez11xzTTYtACFJwoeMIZtIEccPCCBjgjkBVoAFCnMRbCfjx2kwTzB5AyJYWSF4xgFECwgWIN0VdfeHZ7279wF9CfoDFo3pVS/7Ytz4P943Fr/ZsiAAo7wrvJdoXyItG33E31Er6MNuLLbpBwzaEb0NEKD/iemBxPloSSGM0DtxPpgDnCm/i+i96BiMRfYAWQnQfWzVSb0EPm5+F9VDjwAC6B/QAdIByaOfIE4Ig4EoBTABQOCD5vdcg9BGpDon/MA129I5woYGgesBAtJXHdgJw3EdGA6Mx7UBNEwsXRbg+LCfur6/tkAeFuD9R7vD9wQAFhdffHFpaWkpNUIesW37Rd/3p7zwwgvzR40a9eNUKnWDbdvzN2zY8KUxY8YcGQIEwm6CKouWZU2bP39+zdy5c39lmuYjLS0tdxmGUZJIJC5jEx7f96cZhvEfKeWnPM97QEo5DdrYMAzmk5eDIGDvBpy4pZS61HXdey3LGqGU2mya5vb58+cjds63wSCgIUBjRAloJnYWDIQdmVcIYbLCi9K2cS6ABgTJsJrMS7AU5LbnW8Qp377q47tvgZyyGLp/+R3OjAAC7yqh56iRmcDiE/AZ1XHgWHwS4AAfiGavt8SGPR0O2Xn460/2NkBg5U64AHYARARlElGCxGYQdhF3AY2Tphg1VvfoAMjXJNOB//MxgraYpPibVKNotQ/Cp0YCGQUUwYD+43juzXUIXfAwUCPj0In9IJ4k9IHWgHFDpRCCSK/5wD2ieGPmw+IcAA70ImEOHjoUFSsMzR709JXU5/cnCxCmIx8bOr0tewCAMGjQoBssy7rQ9302WZOmaV7j+35jEARNhmFMMk2Tb49qijAIbQDh8ssvJ8/7yg0bNsweMWLEiaZpTlRK8d1sZP8Fy7LmAxCUUq2GYZxoWdY/Pc8jvHEcMeMgCPjO3jQMgxXgkVLK/V3X/YWU8tuGYbSmUqnrr7vuumin13QbdlUoCR0TIUUYTfRLpFtH2QmR1oBFCNlTzCPMS6RSU7CHOYfGNaJ89f70/HRf/r8FdjVAoH4PWj5AI+8RTAHsNgw4oXFYbvwfC2XeL94lsmPQunQVOovY+L5+vvQX8HxYbwME6hrgzDECmgGMEw2auCTOGWdK7B4BY9RwzCAsPr6oWhQOHwNGu61FIkX6TEiAjxmQEDEAZBcwsZDuCIVDeIKPHpqQlQA/j/KauS+AhQJL0QYZ/IwQBKCjI1qSlw3RVmS3qJZ4Xz8wff3+aQHeBZgqVgX9gR7sDStFKb+AfVbZbYxdCBAoZDT7iiuuYMxnBUHwbc/zRr300kt3jho16hRq4RcUFBT4vn/UggUL2gACOzr6vv9LwzBgJAj8QuszgbJiusA0ze/5vs+eDWuVUoDvPzmOszEWi7Ey/2sQBIcHQVBommZLEARMqp/3ff8aKeUlFFJasGBBR5kEXZVaZl4hdh2VZUdExgKD8AE/Z1HBwoMwI/MMoRAYjQgc9Iat9TX63gJRJUX8Srd2NMyji5EGAWYZQEDDbxEm532DHef/vFewT2js2OOEbwVATtZcR1U/YRo4bldkWeC7YQ4nMyBQNE4dVN8VgsnDVvpQbYHd3gLEn9HcAE7Rp+wODXCdngvdVnIVR8+Kuaam5u+h0z8sHo+/tWXLli3XX399c01NDecBsN/xPG/wwoULEQy3NbaDVkox6Vie562IxWKDlFIjXNd9MR6P/8t13S/Ytr0mlUohPBteUlKybPPmzYO2b9/eXFxcXGRZlmHb9nu+75/i+/6/hg8fvv7tt98+xTTNLfPnz+8oe6irLIbd4VnpMXRtAWh8QCSL1r4WlEYhBkBmNkeObg6tHUwA/pbFMkJ+wCmLjPTdOrONjIVutgJHXVshvyOiXZ2/yoAQCYJsKF/cH9Mu8huaPlpbYNdZABYKBgsaGqHs7tAoQAY9yoofp97vGumUUsobfN//xtVXXw39n63lAhAANUzQCJH5N86EfxNyYMXGJM6/AUfp/6YuC8dzDOFO9EleWVmZ29TUFG2kw0QO48A1OR7WlPmW60Rp3tG/6X/6MfybLAnO5focj1Ph39kWcdwftpRQC+wHWSj8m7/5P2Pib/5wT46HnY3GxL+jMWWOlWOisWbahntG4+PfnIsPoe/Yhn8zbo7h35HoO6+Q7AUXXGAPGzZspmVZT5um6fq+v8H3/bNd1/2zlJIw2PNh1c27fd8nC2Wv1tbWp2KxGJU7n62pqfHY32Pu3Lmf9X3/3WuvvRawEIHXsb7vF7DjuJTSINOGlN1uvvSdAQRsSE0f6meQxUC/eUboZ6D00e3tCuefy9Bg+9ED/ogBobiE3udPl9th5nJ1fYy2wB5iAZA/uhioQWLeu0OjGBmhM9J20Qz1uzZ37tyP27ZdUlNTQxpiRw2KFEaDSowdib+ogkkj1MizxKHyb9Kg0T7AggCYcKhUXo3+TSiUFMrY2LFj3ybUkkgkygoLC1uTyWTC930vkUhc//zzz/9ny5Yt3JtzoZWjwnFUc4VKJozKz2kcg14DZ8r1maRxstG/ce6EN7KNhRUfxyKsxDnzByfI34AL7oNz5v+MifLyOKxoTIAkQrCMiXFzPGON/k0KPCAC22BT7MS5bTYIzyUEw78JtaX/G8E55/JOEbLiXmSY5dKMyy+/fKRhGKVBEFwkpWT8Skp5j+d56Nxg7YaiVQmzX24wTROw/o7jOHXxeHzGmjVrfr969eqfjRkzZt/p06eXplKpdVJKHLH0ff9GwzAIi5dKKdsAgu/7b5OGm0vnshzTWRYD2TKE1gBShMIBe6TRw9ahhUME218W6HwLAITfMyAUlKA8Pha9+VA33wx92h5pAb4bJnCqj/VLZ9qNpwINypzAREuu9kBtCAgjEVhHoVMmwo4YiK7GbZSVlX3cMIw7pZRkPzUHQeAYRps8KSGlLHQcZ1UikTh7+fLl3b1Heh9w6MzP2WLUgAnEkv1FBd+R7TAOIAVWostGKMtxnJ9JKZ8zDIMVN7H9jwZB0GwYxvggCFYFQfCW7/t/M02zOgiCu23bvsz3/fc8zwMsVF511VWIzp/Zf//9my+88MKXlFJ3+L5PBcXXTNNEgAsI2qGNHj26dfr06fnYEsAVlT0mTEAdAVJjo8ZzQ2NAdgPHkQXD34T2eQcRwJJJ0190TAA9CiW9ygOLhHZMDG3xRt20BbQFcrIAqzpWUgiSerKHSU4320UHRRu2UJsgPVVrF92+127Ds2F+64i25XeEUMhXz3s76LKysvFSyj8rpeJBEFxs2/bKbdu2bSkpKTGUUh9xXfc027avCYLg347jTHr00Uej9Oz0AdKHbOAFNiDTQcESQH1nGw9gjjotPVrgjR49OjZkyJCRUsovGoZRaBjGmuLi4ofuueeerq6bOY7o//zNn8i+OEWAW05p4aHW5VKlFFky0yzLIoRw0Pbt2+8qLCwkk4Z+PZVKpVYkEokvDxs27NebNm2ag87FMIxm0zTPLygoWDRnzpxffPrTnx41c+bM2Vu3bn0FRoKsgSAIfmqa5nilFKwZfVwvpbSTyeTD1113Xbbn1dHLSeYCAC5bY8yk9cN4sJcPCwpsAstCrRAAAqm2gJ9+1+gohiDmSN5jPqip3w1Gd0hbYBdbAKQNwEZdT1XP3aGxlwkrHdKuEFsN1EYmEjQ5NQ2yzWvMffwOEJQXQCgrK4NaXwUtrZSqaGpqypbZYEyYMOE40zQXGYbxumVZk1esWBFVzuPerDqhndGwkDGBDozsLESXhBrIqCC0ATuFAyNeDRjNtoijFgspdF058qzPcty4cXZx8f9j703g46rK//97zr13ZpJuLG0poIIssomCVUppJjPpkqQs4lZRXAA30K+ooLJ0wQHaUhBZVFBQv26ICiqyNknbZGaStiwWBGQR8ecCuLRladMmmbnL+b/e/d6b/ySdySxZmqT3eb3yajq5yznPuXOfz3mWzzPxfVLKS4UQx7uuixvfocRUCPGy4zi/Nk1z5dq1a/vv/P154MEgPI0XgxACO2TGAxiAdIvNJ3w0GEhCHyVl4nu5B5fs3Lnze9XV1QullIRmUrZt/9cwjJtc1/2llHKaZVm/13X9ONM0+duPhRDc42nAWSQSOWnZsmVnHX744fudf/75Kzs7O6lqm6iUOumqq676ypVXXqk7jnMlJbvZbDYaCoWaK6BbLlYNCEjAQ084wV8/PBeEHMjHoMJiVNpeJsaAcSmycwiqGMbq6zAY957QAC5schDYEWFsxoPAZcCuGk4SyvvGqpCkSOycOG+hly/xdNz/5bz3MPw/NAzjjJ6entkbNmwgdl9QampqTg+Hxtx0EQAAIABJREFUw3fZtv2VVCpF7wbuhREFUGJUyQ0g5s8YMRa4neFoIQ8CdleqZMijgOWR/+cDMwAKjGLZRgZwMGHChC8bhvFNpdQrjuNAFbxBSslYjlBKnafr+mzXdddlMpmPbdy4MTdODkDmeUHP3J+xsZPGntBFEwp65kMojhJ3ciQwiuihqCQSiUg2m71USvmaZVnbwuHwyRh9XddvsG17peu6a4QQEOT9UAhBBczzruuelMlkfhqJRM7esWPHT/bdd99l119//ftnzJihnXvuuQ/39PTscF0X4JO56qqrPrN48eILdF3f0tPTk66qqvqq67oPrlixIl10cHvJAb4rCIZAXgiBBBoINFC6BgAIJByxMxgvAIHeIhhXdre86MeqFKti4N3HHOnBULIHYdasWRBGvdjd3f3N9vb2UvqvyFgsBkXzOTt27Dh606ZNABJAAWRUJMPBpQEIoCKGzRqgDFADDwVjhOCNdzNeCjwN+Wid8faQDV92iLi2tvbLpml+y7ZtjOrXm5ub+1RKEHaYOnXq6YZh/MR13XQymYRl0xeqFgAIeEP4LmBYScJjLpBK4ZUGEMFJA8MuuRokxZeUg7B48eIDdV0/SwjxF9d1Y3g3lFLf6erqerq6uprSxZuVUlNo3qSUet5xnKRhGEZXV9efq6urfyOEeEFKuaO5ufmv++23nzr55JPbHMf5h23bB7iu+z8rV678+rJlyx5SSv1DCPGi15uhxjCM8yrwIozV78mA4w4Awrhc1mBSI6SB8QgQeOHTUIZdLLu+sSrFPAi8+8izwN1dEkAAHITD4fNgccxkMu/qt5suqKd4PH6EYRh/tG37gtdee+2ep556ilADRh1iKDLxiUujb/ILAGXkG+CepySOEAgJehA6UYGQLwfhC16Nf27zn6LrFo1GDzRN83G8A5AIJZPJgt1Ja2trzzEM41bHcS5PpVK7SLByYukQZwFe8D7QHItqBcAPHDuEeZgHYQg8HQAguACKSiKRmGxZ1r6maU5zHEd3XVcQ+qAUkaqF5557bu1RRx11mGEYAI4dPT094UgkUrVjx45tEydODHd1dVnV1dWZe++9d+qhhx468fDDD39j+/btr8+YMaNeSvkc3UjpMVJdXa2eeeaZbpqHJRKJ6YlEgvGW41UqOpcxeMCupMsAIIzBlQuGPGo0MB4BAnFvStNwe4+WuuxKFhxeCkIIkFgVykEgVk4C2YAAAUOq6/r5QohPCCEOUUp9q62tjZ19ScIufNq0ac26ruMifxE3/l//+tf1r7zyCqVklCGSlMjOG2EHDycBme28nwEPuPspxyuUg4CbnbJOQhAlSTwep6/FHYZhvMuyrFh7e3vRSou6urpbpZQf7O7uPn7Dhg0AAsb3Fm+8fjIiSXd+hj45CYRKmBtGHO8HXoS1JQ1yaA5Ct+TU4IEZL5VGQ6OZga9yLUA1AAgjoergHuNVA+MRIIyXtSI+7udYFZpTvmqBPsfW1tYeL6VMGYYxxbKsf9q2/aAQYllHRweGvGSZN2/eAV4PC9z1b7Esi54TjQWqG/JdF6M7EA1vWfkH8Xh8hmEYf8lkMpe0t7f7DYQGnE80Gn1HJBJ5vLu7u7GjowOvQ7m7bBLzoLvf1d9jKAQvQ09Pz/RVq1a9mEgkpG3bRxqGAS/CcZAkLV26lAT8TQceeGD3BRdccPMrr7zym9tvvz3ovllc+aQd1AYAobiigiMCDRTSQAAQRu+zQRwckECFST5DxruPjrLExPMa3pqampmhUIgYtbJt+39s224rNaxQSC3z5s3b37KsBsMwvqOU+nsmk1no7caLaRIPAl6dfHkG1NATKinqQQCo2Lb9MSEETfDens1mj9qwYQMESEVl0aJF+ubNm+F9eDeVDbZt37lhwwYy8EsFCgAyEhaHjBAIgGDb9u2GYdBn4bBsNvtx0zTDrus+IoSISymvWL58eTISiby4bNmyVVu2bHkaavCikw0OgMshFgCE4EEINFC5BgKAULnuhvvMYkyKA+YgzJkzZ1IoFAI8sPM/I51OU60yZBKNRueYpvk713Ufq6qq+uDq1auLJRjimodIJ1/YBw4OeBAKGj6qFSZNmnSalJKW3ZRpvmTb9h3pdBoG0JJyMJh8bW3tibqu/0AIcTj0xa7r/q/jOFeX6FGheoMqBnanQyZLly693XXdb+i6HnUcZ6eUcqFhGN+2LOu4CRMmiBtuuOEHW7duhTr800N20/F/oQAgjP81DmY4zBoIAMIwK3gQly+ligHuAdrS72Yga2pqLg2FQlcqpRra2tr6GLT6+voJ3d3dR+m6DuHOgELHScuy3pgxY8bzd999d58eBHV1dR+GJ6Grq6txw4YNjGMgoccAO/18fQxoOU/iX0FSqFgsdiHcAUqpv1mW9VXbtps3btxY1OOQb0Ae2DjYdd3vmqa5wHGc5kwmc1YJ1wMgUNGA8RkyueKKK+bBqKiUOnXz5s03TZ8+/VtKqT8JId4diURW33LLLT/797//TaXIeCEzGzLdDXChACCMhJaDe4xrDYxHgECsm3lhiEp1HY/GRS4GEBgzCYIkBPYRAIDjOE9j+JLJJBUCvXrw3OxtUsrXlVIvCSHQV0FxXVcTQpDV/+9p06adkwsSZs6cWQ1TIXX+SqkzBqoi8EiTAAD51oRqgVcLeQKi0ej7TNO803Gc9UKIjyaTydwW9xWvHUChurr6Y6FQ6Bbbtu9KpVI0HBpIKIukJBKyoiGTyy67bF9YE2F/XL58eWLZsmXf0XX97kgk8uSOHTtmvPbaazW33norz0NJ5ZVDNrCxfaEAIIzt9QtGPwo0wAuPbHmyy8dLsyYy+1dqmnaW17BlFKi5oiEQk6eKoRBREiEGOB/u7W9Ya2trjwmHw1D4vj+dTrfk3F3U1NRcqOv666lUih1pSQDKIyO6Bsrgjo6OPm3Bo9Hoh0zTvMN13ROSySRVDYWEZnpUNOQLRXzWI1LajUkRQLN161byBHZks9lT169fDyNjr9TU1OxLi21d1wcEOpxgGMbra9as2Y2CuLa2NmGaJqWftR0dHXQqLCTkhBDe4PsyZHLbbbeZL7/88kbXdW9esWLFz5csWXKbaZo3JhKJ56Fr/utf//rAq6+++rNZs2Zlqqurm77+9a8HOQjFtd8LEKit5QHCTRVIoIFAA3u3Bj6SQ9wz0Mt+tGsJciJ2q3TKyxdjL9iLoa6u7nOu6y4Lh8NH59Aja/F4fKLjOI/QWrjEXbiIxWIkz/XQ1Ml13VXpdPoruYo76aST9p88efKLtm1/IplM9gEP/RQ8UA5CwV4MHpPjrzOZzGkdHR29rn0y/tetW3eGlPJrUCorpYoCBCllxnXdjXRSzA0n4AmZNGnSBtd1/3PAAQecBp9AgYeD1tmEGKCTHlJZvHjx20Oh0D8TicT2pUuXHr7ffvv96+KLLyaEQmLkphkzZrxx0UUXXd3d3Z2i/fOQ3nx8XqwXIFB6wheorB7d41MnwawCDez1GhgvAAHDAAgYyBjANQBVch9PQCwW+7kQYmoymaTKoVei0Sithe/buXPnvE2bNhXte0CiYyQS+TONg0zTfPuOHTu+197e/qnca86ePbsqEok84zjOLel0mgTCQgLYobSyULtnkij7lO9x7VAo9EchxDPJZJLGVL3znD179tGhUIi+Be/fvHlzSVUFhx9+uLF9+/YvSym3tbW13Zo70Nra2g+EQqHfZLPZ4wZI6ByWJMUi31i8fBB+bdI0rVgIZK//8ucooBcgBEoJNBBoINCAr4HxAhDodUBfAEJAhUIB5AZgWHP/LuPxOI2Y/t3a2tqnARcGX9f1h6WUJXsQ6urqLrdte/uMGTN+9N///ve6dDp9Ye6j5iX8PaGUujeVSkEfXEjoa4Ahzwd4aIaEt6cPQJgzZ85BVVVVL2Wz2U+k0+k7+xn0mw3DuKG1tbWkEsfa2tojlVLmq6+++uK0adPutSzrnNzyTP5eVVX1Qk9Pz3tTqVQhpkS8FHgR+oQ5hvmr5wMEQALenEBK00AAEErTU3BUoIG9SgPjBSCQg0BLXZoGFWJSzEe1TFjgAV3Xu1pbW/uHXfnbZeQCpFIpuhOWJLAWKqWuUEr9MZ1O0wirV2BZnD59Osb9V8lk8soBLlh2mWM0Gn1XJBLZZFnW8clk8k+5145Go3d1dXWdW4onhPPq6upIcDRaW1tnx2KxHwkhbs7tYkliZyaToR31zalU6roC88BbDSgbSQrvACCU9JTudlAAECrTW3BWoIFxrYHxAhCKVTEUbPcci8W+JaWc2dbWtlsDO5L+/vvf/9Jn4Eka/HhhjGIPxAleU6EPJpPJPqWIXsXEc7Ztr0qlUn3c9v0uCkDAAOdLUsybgxCNRueFQqG1lmW9JZ1OQ3vcK7FY7O5wOHxubo7FQJOIx+PQI8tkMjk/Go3CuXBde3s7XUx7pa6ubp2u6xvXrl27tMC19kSIgVATdNrPaJp2cbGFCv7eq4EAIAQPQ6CBQWoAIwPxC217B8pAH+RtRvT0vQUgoFS6Ku5GmRyLxUjeu8NxnLf3N6yc5GX+01yJEEYxEUKI17LZbDIfT0Btbe1bQ6HQnyzLOj2VSg2UvEePDMBBvoTLvGWOtbW19aZpNmez2YP691qora2FWOiBtrY2YvNFhfCKbduiqqoqq5S6u6en52OPPPIIz30u6HhI1/WnWltb8bLkEzwINKEiKX4khXXCi1QR78NIDnQU3asXINCYBVRLt7BAAg0EGihdA5Rt4bqlEcyHSz9tVB85XgACIQYaCdFyuFCIgRJIugv2yVEgdl9dXf1sNpu9MJVK/Xw4VysWi10spYSQiTAAVMqFhE6ILxdo90xpKr0R+ngnotHoSeFw+BH6EySTSbwdvVJbW/tmIcSvNE273nXdV0wT6ouBRSlV5bruuUqpe9Lp9H25R3uelSd0Xf9NW1tboZJfchAw1n2ARbH7DvLv3JPvJh0a0VEgpWmgDw8CPdHpjR5IoIFAA6VrAIBAkhsx5A+UftqoPnK8AASSASFCWlFumaOXF5CSUm7ftm3b6Zs2bepN/iMk0NPTM0vXdbxHJQmUxBj3/jwHdIk0DONJ13XvSaVS5xe52EAhBhgCf6ppWp/Kirlz5x6u6/pfLMuam0wmd2MvhO8BgCCl3FepgSkdhBAQPlmO49yZTqdv7w+q5s6de7AQ4u+O41yQTCZ/VGAuw1bmOIDuyEEAwOMpoetlIKVpICBKKk1PwVGBBgpqIAAIo/fh8Ov6C/UZwGg3aprWnA9AxGKxhbqu3+u67hXJZJLWt7ssaDwef5PrujRHKokkyVOPwFC3tbXh1egVch0Mw/h8d3f3SRs2bOiTRJhHrQM1a/qYpmkkP/ZxocfjcQDSS0qpW1OpVN721F4VhV5VVVXSfAr1jKitrT2lqqpq/c6dO0/u6Oh4pMBjMSxUy0UewSBJsbLvaFrTtGjQrKky5QVnBRpAAwFAGL3PAYly+2ma9rUBmhGRgwDV8m7GESKh1tbW75mmebZlWRfs3LnzrlxPwmCmzbXb2tqW6Lq+zLKsm2bMmHH5AORC/q3IQSiXalnGYrHrhRBUY7wnmUzmUhyL+vr66mw2W7InhIFkMhknXy5FLBa7TUr5Xinl29etWwftcz7h+0JIm6ZTIyUBQKhM03iljggAQmXKC84KNBAAhNH9DLBbh9aX0GmhHIS8VMv+tGbPnr1fOBy+S0o517btW4QQPxNC0OwoY5pmSTtu/1qWZYkJEyZUZTIZPAEXGYZxhm3bv6mrq/tYIpEopZsiyX0Y1rKolufPnz9FKQVT449TqdQl/ngIlWSz2e9TXVHqMpJtSTVAMpm8PBdUxWKxOinlQ47jLEun09cPcD0qCgBt5AOMlAAQnvBKK4MQQ5laDwBCmQoLDg80kKOBwIMweh+HUsocYRfENV/QQEOvDMe/YRjn/J991FzbtjdLKQvRCe+mERo2aZoWMQxjXyEERlLatn1tPB5fXCI44Px3eGWOZbd7jkaj3wqFQv9jWdbZ/XgYitIr504mkUho/OTqC6roiRMnblBKWW1tbeRJDASc9kSIgTnSW4QE0O+P3sd1dI4sAAijc12CUY0NDQQAYfSuUykA4UQvga3YDh52xZOUUrRnhnyJcr2yPAjwJbiu2+04zotCiF9KKZ8r0r2xv2YP9irN8jEp1mqa9nAhuvxZs2ZNjkQivzQMo9ayrOWWZf1g48aNJdErF1peqhb+85//nKHr+nVCiH1s217U3t7epy12nnP3RJIiw/DDKOWu2eh9ukdoZAFAGCFFB7cZlxoIAMLoXVYAAka1UDdHRk4I4pUKjH0ls/bftZWcyzmT6chYwNtxmKZpUCYX9GrE4/EZSqnbdF0/lVCF4zhNSin6UJTVuIiKDF3XDyBfUwgxRwjxD6XUF9va2kj2LCa4+wkxbC524BD+PfAgDEKZAUAYhPKCU/d6DYxHgHC2pmk/8bruUR42VgX+A3b67Grz7Rx595G8B5Ao5kEYDToYKMTwBa/MccA2xuz6N2/e/Cml1IWGYRyp6zoU0GXNzQ+zWJb1mlLqvp6enq/3J0wa4IJhTdMO1zTt2bJuOriDgxyEQegvAAiDUF5w6l6vgfEIEPz+BewIt43hFWbHze6RKoV8wrsPAh16KowFgPBOTdP+3J8MyZvYFzVN+7GmaQMCBF8JtGeuqqqaYZpmlcfRUNYyw4eglHo1mUxSrVAOwtgTOQhBFUNZq9t78PvxsAUAoTLlBWcFGkAD4xEgjJeVvUXTtIM0TaMhUyHXO0yL9Cgox8jtKf3AaUAXxHxzOVLTtL+VGy7YAxOhVPMETdMg5hspCQBCZZqGYXROABAqU15wVqCBACCM7meglCRFduWwYI4FgADYIXafL2eAPItHCyUpjqJlwqND2KcP4+Mwjy8ACJUpOGBSrExvwVmBBno1EHgQRu/DUApAKFrmOIqmV3GZ4yiaw57wILAJJjGTqo2R9FyMIrVXNJQAIFSktuCkQAP/vwYCgDB6n4ZSAMIZmqY9MEZyEI7VNI2qg3xESedpmvbrEd6ZV7Ly5CDM0jRtoK6VlVy32DmEZwjNEKIJpDQNBAChND0FRwUaKKiBACCM3oeDpD0SLhsGyEHAcBRKYhxtMxuIanmqt0Me7cmWVDHAJPnUCCoXYqp7vMqJQm2oR3A4Y+ZWAUAYM0sVDHS0agCA8LwXxybrdzzIuzVN+5KmaYu99sJjdU4Yf9zLrxeYgO96Xj1GPAhHe4mI+TwIn/SqMfo0axqFCxfkIIzCRSkwpD4Agc5NsbEz9mCkgQZGhQYwMgd6yWFbR8WIBj+Ij2qa9nNN0wAKY5kHgWx5ANxjA/AgUOFAz4bRvvNmVQfNgzD4R2PQVyDE8B6Pm2LQFyvxAkGSYomK6ndYL0CAGOW/mqatq+w6wVmBBgINjCMNfETTtDs0TZvpeUbG6tTgNyDzHxriQs2ayP5fXw5AoBOjpmnTs9msCoVCum3bYcdxqlauXPnc4sWLa8PhMK2O9+vp6aletWrViyjPOyeUSCTy9VEoVb9v9Tw6Vp4TTvPe34O5fqnjGMxxAQ/CYLQ3suf2AoSRvW1wt0ADgQZGswbGC0AolqTIGkwqN3Httttuq3755Zc/p5R6j5RSSClbaaLU3d39pGmaX/GM+PFCiOOUUknDMH7kOM5nXNd9acWKFT8dxMITv88W8IbQthpSq9HuCTE1TYOm+eVB6KHcU/EgANro6PiZck/ei48PAMJevPjB1AMNFNLA3gIQCA+RN/L7Mg2rWLJkyUeklLpSaqNS6iuWZV0bDoff6jhORNd1KIjjXpfIkOu6b0gpZyulJq1YsYLQTaUyULvn872w0FDzCwy2f0T/uRLyIXGUaoyREuaA9wXvyr9G6qbj4D4BQBgHixhMIdDAUGtgvAAEcgto1jRngBBD2TwIhAts2/6sUuoAXdenO47zp+3bt/943333natp2vmu6z4mpaTfwHNKqTfpun5RNps9QAgxf5AAgVbKfylAtfx5TdN+VirVMg/MtddeO2n79u2XSCl3hSyEEM/goXjuueceOvroo89XSq0WQhzkuu480zTv7O7u3hIKhb6sadoEy7JWrVq1qlDy50DP454ocwQgQIhFo6tdIZ9AStJAABBKUlNwUKCBgTUw0TNAoz2DvNR1HC8A4SZN0yj/I8O/kOsdboHnymFSBCC4rnu5UupQ13VbNE07U0r5sFJqnZTyva7rPqLr+hm2bWtSyie6u7vvCYVCk4cAIEz3ShnzMSmSUAojZL78hLzr7gGdw6WU50kpf29ZFgyHfxNCYMTn0x1SSjlfKfUHIURm586dj4bD4SlSSuip7eXLlzeV+kDlHLenkhRJVH1c07RPVzDmvfWUACDsrSsfzHvINEBMFYpb4pufGrKr7tkLjReAwNqweyRuX0iO8cpUy6FaFolE4izXdbc4jjMbgGGaJu2TlZTywO7u7mcNw1ik67q5Y8eOH06ZMqUnm81OGYUAodpxnF8LIZ5WSr3Ttu3fv/jii/975JFHflRKeZZS6hop5RG6rqdt2/7E8uXLr0aJS5YsqWFuV111VSVkR6wHuRQjmUwZVDFU9j7pBQgk8+Be+kZl1wnOCjSw12rA50GgHPAD40QL4wUg0KmRJMT/Hcoyx0QicYRt2x+0bRvmwg8ahvGEUuoEIcRTUspjHMch7LA+FArVKqX+5DjOU67rvqLr+vErVqygnLxSGdIQAx4Ey7JqhBBzDMN4zLbtI6WUf+/p6XnaNM0LhRAk9r1PCPGCUmo/wzCusyzrUCHEp7LZ7Fevu+66SlgJ8VLA5zCS5bMBQKjsievDg0Dnpmhl1wnOCjSw12pgPDIpjheA8DtN0w7RNO2kAXIQ3qdp2r3lJCkmEolju7u7XwmFQu93XffZFStWPLp06dKjDMP49ze+8Y3OZcuWnbF8+fL7lixZUos7Xtf13yUSiaFIHjzOi6HnI0r6rKZpvyiHajmRSEQcx7nZdd0/CyEglSKUcIJlWU8bhvFh13W/opR6r67r/37HO96x+g9/+MMBoVDo4p07dy678cYb8QCU43XxXxBBmePYeVUCZqNBN8exs2DBSEefBgKAMPrWxB/RsJQ57sHpDlTmiIHfXg7QWbRokX7kkUdeLaX8seu6JxqGASXxG9ls9mFd1083TXOb4zhThRDbdu7cmaqurv6IUupMpdQLpmnek0gk1lagC+ii3+VxT1RwekWnMC92w9A7/09FV9g7TyLJd3YAEPbOxQ9mPTQaCADC0OhxOK5SDCDw7oM9lp3SaOcPQD+HefwB+XIqztQ0rbmc2P6SJUveLaV0HMepl1K6hmF8y3VdvCJ/IlFRKXW+YRhX2bZ9kmEY73Uc50al1K4EScMw/ptIJOiOWK5AMoUXgYqCkRR4Ihh7JWGRkRznaLoXYE4PAMJoWpJgLGNNAwFAGL0rxg6ImnsSCQsxKZZd5rgHpzukOQj+PBYvXnxAZ2fnG9/5znd6QxdKKfGlL30pxGf8fuONN0YuvvjioajS2RMeBGwc+ShbNE2D1CqQMjQQAIQylBUcGmignwYCgDB6H4kLNU2bomnaygIeAt5979U07f4x4kEYqN0zFTS/KicHYQ8t257KQSApcpOmaefsoXmP2dsGAGHMLl0w8FGggQAgjIJFKDAE3NnIQOEDdrRDsTMeCS1QtombPF9y4AQPHFSSODgSY/fvwfeFxFEIn0ZKgiqGQWg6AAiDUF5w6l6vgfEIEGjeBivfWO/muMQjSvrqAB6EUzVNGw/tnj+haRo5F6Md7GCsIa/6zwi+OQKAMAhlBwBhEMoLTt3rNTAeAcIpmqZdrGna1zRN+/sYXuFhoVreg/oYlhyEEZ7PnqBaDgBCZYtMU61IABAqU15wVqABNDAeAQLvBNzzuOZHu8t6oKewlCoGOBJgwhwL84Ti+N8F6JQXeNUY+TgSRtM3dU/kIPAsX+81iLplNCljlI+F0tBZAUAY5asUDG9Ua2CoAQJd5+ZpmvZDTdOobf+R9+9FXh33gZqmQXl7oqZp/8/b6b+qadp9mqbt5xk64tR0KdzbO9cVAwg8WFQ50Hp4LAAEngfK9PJVZBzheXvy9WkYTV8gOAmYB8/sSApeBNY4n+5Gchxj6V59mBRTmqbRojSQQAOBBkrXwFAChCM1TfuBV4p1laZpMBoe5e0aT9Y0DbY8gADNhX6qaVqjpml0DbzE2z1e4MWgeRE+X6QHQekzHLtH3qVp2ps8htjxXubI2pM3MhSMjcO54nxfAMF/Hs6b9Ls2HoTlHoC6fQTvO9ZvFQCEsb6Cwfj3uAaGEiCc5e36oTynNO/bmqZd5r30AQ4k292madpHc2Zd55Vv0TiHWm8IaAAIW8dI6d5wLiB6hH1w3VD2YhjOARe59js0TXuhABkSDIE/Kafd8x6ax54IMeA9oJkaZY7n7qF5j8XbBgBhLK5aMOZRpYGhBAjsdHB5k5HOjofdzpc9rwCtiwEJ1O1fo2kaCWt4EAAEd3qtfnE/kzdAJnuDpmnbRpWmRn4wlDCi050D3PpgD5SNhRADnA7+GvefEiyL/xgDLnQAAlTL9P4ZKRmVSYoLFy4Mu667XyaTUclkcvMoBPQBQBipJzS4z7jVAACBTqhPapr2oSGYJe7Xj3kAAW8BuQe4jW/VNG2FBxgIKeA5gPTFBwqU6i3KoZIlxlup0Zvh5TjwEh/L1LTf0zSNubAuhWLP7/RyOyrV1RAsecmXIP8ENsB8eQZzNE17bAyElQBscDaM5HM1qgDC/Pnzj5FSnmcYxulKKbqN8ux1Oo5zh67rP1+9ejU5MaNB+gCEdk3TakfDqIIxBBoYQxogyZeXM7v1p4dg3LkAYZmmafdomva6pmnXaZoGWx65QgCDf3ru8+96oQdyE07PCTGQzV6p0fO7OY51HoRiSYqs3ViiWh4oxPCQn+eOAAAgAElEQVQFLy9lIG/JEDyeg77EnqBaBiAQXnhc07TzBj2Dyi8gFixY8BFd12+nMZZlWa+QrCmE4Dmcruv6ga7r/seyrIVr164lh6jS72/lI+x7Zi9AeEDTtD958c6hunhwnUADgQbK1wBJh7zElnoJigB3XiDwEvxc07TTNE37Dv1yvBJLqhyu1TSNlw0ghRADu+UzvO90+SP4v+TIOzRNm+l5Riq5xmg4pxSAgGH9paZp7M4xXiTPUU4Y8RI9AWwwGD7rrQdZ+Lwrj6GRjXfM27xQBuyA/M6L/a+appF0ynpQbUKVgf85a8xOGiPAMQjncgzHk2fA9S1vPHiJaNDEc8DfCrV7hk6YtedahBx4RhgHc2CsL2qadqj3O5/DaMgxHM8x/M6YGAfHM2d/bnjJGBNj4Bh+Z6xck9/xanBNf9zMuf/8OR6CpPd4ybYj9Yww5g94lRMYvT0hgINPh0Kh77iu+7yU8uw33njj5Z6enp6ZM2dqL730UpXrulEp5feklPtZllXf0tKyYU8MNOeevQBhD48juH2ggUADngYwTNM9DwFGhBcuhosQBgYD4WVOrsIb3kscw8NLl4Q8hBcxu6VKd5PjCSCQY1AzQIgBY038F3Y/9IdnBoIYQMFLHnDAcP7NAw6sCb9jXDGixP1ZCz7neH5nPSgxpYKC3wFv/I7gPmZMHM+5/uf+uawdv3N9jD3jwdiz9nAgFPIM0a2QMlfGlHsP7g344X78TsiFY3J/534H5cyHMXE8JFn+3Pw5Y2wZN+NDOBfQwVi5Jr8DFvz5Mx/GzZz5/b9eN8eRZFJknORvMMaR7iK5S0nz58+Ph8PhZsdx7jJN86L777+fJOLdZN68eW8LhUJs2JXjOPNbWlrQ756SACDsKc0H9w00MIo1MF4AAqWgGD6SOYP691H8wA3z0ABE93q5QpcO8712u3x9ff0EXdfXua47vaura1Z7ezt5JAVlzpw5B+2zzz5PWpb125aWFspX95QEAGFPaT64b6CBUayB8QIQJns7YTwtgey9GtijSYqNjY3nhkKhW7u7u09Zs2YNYaCi0tDQ8C3DMD66bdu24zo6OshB2hMSAIQ9ofXgnoEGNE3b3wsB4HadqGnaaxVopRArHe5hXKq8WAhPILioS2XZGy8A4WgvT4Pk0T2d8FXB8ganDJEG9ghAWLRokf7GG28cZhjG9ylnnD179sxEIjFQZ9He6S5YsOBI0zSfsG37Vl3Xv72HKhsCgDBED2Bwmb1XAxjpK724NAmDpQjGm0ZIv/fissRz+R0h9g1rIkaeUjA49hEMHC86qhbgOeDv0C3P0jTt+17yGC8fktmIM5/pkSrReIm4MSypJB4SPy4m4wUgkKRI/J3qrCDEUGzVx+/fRxwgLFiwYI6u6xcLIRYIISa5rntJU1PTN8tR8cKFCx8UQiwkt8N13V9ms9nbWltbSQQdKekFCHO93QZsU4EEGgg0ULoG4EEgqxvXIZnSpQiZ8yTH3e0BAGKSPZ4hp5Yd4z5b0zSogqd5YABeg2O9CgZK8+Z7GeYk2PE3AAOZ4xd6vRqg3eX/gAji8CSckXz2UAkDHE8AgbnDqBgAhBIWfpweAkDge0Xi7qeHeY6isbHxc0KIm6letG37j0KIO1566aXbn332WcB7yTJ37tyDSWjUNO19hmEc6rrua67rNjY3N2OnR8Ij1gsQeDk9HPRiKHntggMDDfgaKJdJEUPOjv8E74VFCACvASWKhAHWe94E6JT5gsKmiHHDa4Cxg/SHmDohih97tMt+6IB/IV5Z4pWckZmPm53PyGynbI2SyGISAIRiGgr+PpY0gAeNkku+Q8NaFVBfX3+OF1J4Vin1+e3btz+9ceNG7OtuBj2RSMgNGzZ8VAjxr+bmZr7r+Yy+jMfj1aZpAhJulFKGs9nswjVr1vCeGG4JmBSHW8PB9ce9BsoFCBh2SI/Y+bOrJ08Ag0wZIyVteBMoZYMqGfIjyhzZAVEWhQcB4iTcjlyH8MKDnucBRRPu4CVIgyfAAfz8lOwBRpq9zwrV0ecu1HgBCL/1yvHghKCsDg8KOkIIx1CWR7iHH17OGBLWA+ZKyvL8zwBeACzKT6EK9j/3WQ0J6SCczy6REj/AHMDPFz7jXMoR/fO3a5rGj18OyfmAQYwYniMYB/1j8RKxtozLv5c/LtYYoOkbGObKPBmvfz7lfeS5cC/ug/A37kV3xVwdAFb58Y/1O/5yLM9d7rjQAWNGB/79MYg83365pH8v9E2+TX8dAHj7H4u+GZfPNMgY+uuA6/r6Ri/99U3ZKt8DhHuytpRrDovMnTv3XZFIZKPruo/09PScnUwmCzIizpw505w6dSrg3xVC7KuU+lVzczMexYKegfr6+llSyvuFEFu7u7trk8lk3lLJIZwc5ZbvCdo9D6FGg0vtdRooFyDwIod8hsZMvLAx+F/yvAJ/8PIO6LcAX/0vPKAAQMBoYTRgU+RFTQ4DACK3nhwDghfifV69OS8bSvzIQ+B8XuScX6xHw3gBCLdomvZ5r1kTOiXk4htzDCZhHrpmnp/z1PJ/8kFwR/uCYQN0USpHK25fPueRDK3xQByfc4+3eyEn1hkBjEA6hfcH744v0GdDekV3Tl/gCYCoCPImmDF9wdUMyCOUxTOH8PxA6sTnsHn6Qr4J/AUQa/lCPgbhJ4yWD5IAJxwHhfcXc46lSRggFtIowIAv5HNg1ABcvuCyBwzcn/NZ2nsGAbwAAoTnD7CLznJ18L/e/7kXVSe+wKdwhfe8+p99XdM0KMXRAd8JBAIn6LIhr8JbhgCcyOM5yaMo988n7AYL6XCIbGxs/IWu66c7jnN8U1MT4L+QiIaGhk8opU5paWn5fENDA+Blk2VZH2xtbc197nY7v6GhYb5hGL93HOf2pqYmyNOGU+DVCAUAYThVHFx7vGugXIDA8bzoMPBXe8QtgARetE95hp1QACEGdhQYNBIV2S3AeMcPxo1QAbsmjD5AgN0iOQtrvXbRcACQvc+OCSNJXwJyFxIlLMh4AQgYHMI55Iis8n73d5QYLIwVc8Xg+TttQNkjXidNfzfHzpNj6awJ/TSfY2Rv9LwFdN4kdMS7FKOIMedvGF/fYPEyJ6/k7Jx7YVTxADFG/16AN9p6f8Uz+nzOtVk/vEwACt/As6Nmbb+hadpxOet6ubdz5hnz5wUjJ8adH8i4EAAl3Q0ZE6DSv9fvPJDEsT4Y4TmD4ROvFJ4rhPne4HlBGIMvPHfohF4ivtFnp09NP88yvUYATZxPTgxgKHdcjOMz3tr4SbocS7My4u835wAEnm9f3xCIIYyVzqcALUCRPy++E3ynhlwaGhreaRjGBtu2r2pubgZcDeQJIGn2VtM0ow8++OCuEsa6urqjQqHQLVu3bn3vpk2bBmzZvXDhwl9IKd/94IMPAlqHXQKAMOwqDm4wjjVQLkDg5UyIgJcEuwVodAEIuKT5LvJyZffBToedKS9wQgS8zDF0VDEAFmLeDhJvArtIdn2f9PTMv7xIaXOM/NrzTPCCZfc1KjwI8+bNowRskVKqa+fOnT9Zv379cDTwwc2MMcKzwlr57nX0QiiHnahvcH3jgoHxDaP/6HIsLmyMtW8cuSaGINe1zf8xhv3vxWec6+98y7kXx7IrZh654/LvlTsujmVczDP3XpzLNfLNq1QdMAeO9XXg34t/y9EBx/oGFF3n0zf3Yl1y12YgHRTTN/oYTH+SAV9hCxYsWBYKhT4vpTzi/vvvL2jgTz311ENs2/6hrusXrF69uk9FQn19/eeUUieuWbMG0FdQGhsbZ0sp12Wz2Y+uXbsWr9awSgAQhlW9wcVHSgMwlnV2drobN27EmI6UlAsQ/HHhAcCAs+Ok/BB3MjsrXMFUKLBjpWySVs6ABNzJhBR4+fCyB2DACteiaRpNfNjdEg8mlsxOFeBBkhExXHZ5eCt4KQNA8EIMJMPuQWCtpJQbDMM4Qill2Lb960wm86lkMlkqV8NIrW9wn0ADRTWwYMGC3+q6vm9TUxMVgXkFXoTt27cD1n/X3NzM93o3qa+vv1lKmWpqamLTkNcLEY/HI1VVVX9SSj3Y1NREO/hhlQAgDKt6g4uPhAZqampm0ipVKfW6lPLMEUjg8adVKUDAaPOywGWL2xgDz24JkEB4gdgsIIF4NsmJgB48CwACf9fAdxdXNHkFAAw4Dihr/LDnUsfNzQ6a8AUJe+zKBmp97M9pJADCcl3XP2fbdr0Q4ijDMH6SzWbr1q5dSzVVIIEGxpQGTjvttCccx1nb1NRE+DCfkHeQUErJlpYWurTmlXg8PjEUCj2vlKpbs2ZNQSB/6qmn/tC27aNbWlrYKJREvlSpQgOAUKnmgvNGhQZqamrOiEQiP3Yc52UhxD5KKWXb9pnt7e3E9IdbKgUIJFARP2WXQMiAeCkx5VxaVXIM/Kx55oFrl7/353InGQ4PQ/+sZkq7SJrDhcu1SHIsheoVsEGcl39zE+iGRJeUdz388MPNUsrXHnroobMWLVoU6u7ufs627WubmpqIRQcSaGBMaeCMM8540bKsbzc1NRHq200WLFhwqlLqa9XV1Wfed999A4bS4D8wDOM74XD444XCFY2NjZe5rvu5bDb7tuH2ugUAYUw9isFgfQ3gstuyZct5UsobHMf5u+M471NKTQ+Hw79VSmUsy/pSR0cHpTrDKZUChOEc02CvjdeBDGa/jG+w19vt/Pr6+lsMw4grpRqUUgfqut5i2/ai5uZmkiwDCTQwpjRw2mmnveg4Tl6AUF9fv6uipKur6/0dHR1+/g8bg/4hBGzxrhyZ+vr6RVR9tLS05E0qBiAopc7PZDJHDiNAYJPwzgAgjKlHMRgsX6LZs2fvaxjGzeFw+OxMJrNh27ZtjU899dSu9sbz589/i23brVLKN9m2vUpKeX0ymeRvBTOLB6HV8QgQBqGOkk6VDQ0NF5qmeUM2m+3Sdb1aKZWeNGlSw913310W21xJdwsOCjQwzBo47bTTNtm2vaa5uZlQYR+BdhlSMyklSYlCKSWEEL9obm6m7LJX6uvrAQOzheCQXdK5Zs0awoW7SWNj421KqeMnT54cvfvuu4eLJZRy1WgAEIb54QkuP3QaIEanlPqslPKrQoiDXNcllp9IJpN9+rzPmjXrgEgk8l3TND/gOM7zrusuT6VSlFMNtQQAoUyNUsttmuZ9tm3DNwDHwE7Lsr63bt06OAACCTQw5jRQX19/j5RyYlNTk1+W2TsHjzHxENM0d5WXOo5zDDkGzc3NlGDmAoSfCCG+bRjGriRry7JebWlpgWOij8TjcWPChAlPZTKZ9rVr11I6OhwbH+4ZMCmOuSexwgHD3DVx4sTzDMM4Q0qZW5JU0RVd17Udx/ljZ2fnlZs2baKsalglHo9DgtIopaRm+z2u6z7muu6qAw444N5CCPqMM86o3r59+7m6rlMTfYhSaq1S6peO47S0t7f/e4gGHACEMhQ5b96890QiEYhenlNKfbi5ubmSLpZl3DE4NNDA8GugoaHhCtM0P/v8888f8eKLL1JOWVAWLlx4olLq001NTbnkVFpDQ8Pt4XD4q8VyFObNm/eOcDi80XGc85qbm+E+GS4JAMJwaXa0Xbempub0SCTys2w2S3Z8D26uwYzRMAzhui7EOz9NpVLXDAeKXbhwYXjnzp1nSSnpiNYgpZzqOA6dzW7buXPnDcUIRfz5zZ49++BwOHyZlPIjUsr9bdv+u+u6LVLKB6ZNm7Z6kC66ACCU+CA1NDTsJ6VsE0LIbdu2nTJMvAcljiY4LNDA0GkA4BsOh9OO43y9ubkZBs+Cu/qBAIKU8murV6+G4bKgNDY2kr9zmhDi2IE4F4ZgdgFAGAIljolLzJ0792eO43SmUimfWWzQ447FYvOVUndGIpFDW1padsX/h1LmzJnz4aqqqjtc15WO4zzjuu43qf3t6OiAu323L2BNTc1hlmXtfOSRR3ZzVePmW7NmzQzDMCjhu1DX9UN1Xe+yLGtWMpmEprVSqaSbY6X3GqnzqJYgUTFvk5lKBrFo0aKqbdu2rTVN88Du7u4FI9y2tpIhB+cEGihHA2LhwoUwUBJiOHr16tUF+zAMBiCQ8BgKhZ7IZrP3trS0DHdnygAglPMEjOVj582bd5/jOI8nk8lSqHZLmmptbe0pMHpVVVUdUAz1lnTBnIOOPfbY0PTp01sp3VNKrdiyZcuThdqlEpNTSp0nhPgooQ+l1LXt7e2cmxfFz5kzZ5JhGHC13y6EeCCZTPaJBZY5VrgL4O+HowCmwvEglDd+y6PfHajMEVY9uPoHZGbEE6SUukHX9Y/btv3BoFJhPDwiwRz6a4BmStAt4510XfecfPkDnFMpQAAcSCmbpJRVPT090dbWVvJ3hlN6AQLc7/xAohLIONRAMYAwe/bs/RoaGt5IJBJ9SDdmzZo1+ZFHHsnr8hpOgDBnzpyDDMOAMOSidDoNo2BeicfjcOt/TQhRk81mzxZCRIQQP5dSkvDz8/7Ji7kXicfjDwghqtra2mAupDkMxESESwZ08Y3Dx6P/lMichumNBkPw/xcSeBVINKTZT5tH5tT/WLFgwYKLQqHQCtu2zxnmmGm+cfq0vjA08ntuaI3cGbwl/amW+Q70pw7m2P40w1wzH9Uyx1Z6L+aQj9J4oHvlGxfX6U+1TLY7n+XqIB+lMcf11wHXY17oKpdq2We+zEfrPBgdFLpXOfruTzc93BUysr6+/sumaV7juu5613Uv3rp167P9c7ROPfXUE8hBWL16df8kRXpyfLW/NxbmxFAodIqu69dKKY+xLOvjLS0tfO+GW3oBwnDfKLj+HtbAQAABEBAKhVaHw+FT165d22c3GIvFlqVSKWh6d5PhBAjz5s3b33EcaIGvSyaTN+W5vaipqXmfrus3uq772xkzZlzi5xIQTmhra/uuUurdUsovJJPJTfm8CbW1tesMw9jW2tpKog89Dnjx0eGvWK+CQqvJ+XS8G2rhpUwtda4hG4p78LLlurnc+FyXZjyAJbxN9HooJHTqozENHSqhgYbREbKnXqmvr6eP/d3ZbHbZ2rVroZcerozrfGMksZV48GNeQyO6G9IaGaHqBdZK+laQS4NgUACj6z0mS3+s8EF83NMHNNb+sYBJdnE8n/7aQH5Fd0gaFfnNgzBMfAbrHQ2P/PNht8QtTYMo/14kbZKIS7kcXRl94R48x+QQ+eDFHxd6pV8HwnXoDgp4o4GSf11ovWHsBPhBvuXrgHp7qLzpLurLr7zGX4yLtUUAAhxLwm9NzrGAQ74vPAe+ME46MUIhTqdChMz8T2iadlqODvgcVtAf9xsXYwak0o/Eb6TFsYyftfxhTk8J2AZ5VvHeQTbmj5XsfpoZ5TIbUvE03L0LRH19/WWGYawQQjiWZbUIIXiPdfl5X0KIGUKIdxEuzfmMOdNxtFkp1QtklFKThBDvNk0zppTa1tPT84HW1la8oyMhAUAYCS2PhnsMBBCi0ejXhRBzMpnMJ/t7C2Kx2FWpVIov+24ynAABY11XVwcKb02lUr3tYWfPnl2l6/rVhmHUuK5L+eL3DjzwwD/0TzQk7MBLUyl1tlLqHUqp1nnz5q3yPSS4vbu7ux/JZDJ/2bhxI42SaIlMHgVd/4i9VyJ8yQfsxFbJRb2X/HD0l2C8XDfXa+T3ecDIXOKFTgoNG0MD8yHGEQOG7nqrEurr6482TTPpOM4DPT09X5w0aVLuzrNkVUQiEbtCfgQoqzFSGAXAAM2xWGsENjtoqTHEdA70hTnQYZHuh778y/OmADDwNvlCFjq17XRl9HfQL3oGlBpyv90zu2GMPQaA/hm+YNTQH0bPF8raMPYAjNy2ypyHYQC8+A2X/GPp38Hzi7Cmp2qa9qZ+IS+4/VlPjJXfzRFPGTTefL9yGwTRhhpGQAy93+4ZrwLtmllnru/LFzxCrdwuiegOfcNkuo93IN8LOmECRhiHLz/xPFDcy+/8yBzoJcKcARW+ME6ItDpyQBLtnqOeXhgfApihJwJtoAEFPJ/ojG6OjHdYBQK3119/fbZhGBcKIc5QSuHV7JMUrpTS+n2kDfBZl+M4P3Vd9ztr166lYdtIgewAIAzrkzKKLj4QQIjH4zXU5Zqm+e08HoQrU6lUbivX3lkNM0CgBWoTPenb2tp6G5JEo9HPSCnnKKVWptNpXsbFviyitrb2aCEE/OffSaVSG5nAzJkzqydPnvy4lPJ369ato2cBL0h2wBiNXLrjUbSKIzYUdopwRhQLMRDewTixi+TF3bsWNTU1+06cOPEJXdcPcV13ixBiwNKvfDPjhen9vLJ169a5pVat5FyLnThjw9jgMcAw+i9qxup3c8x1j2PMAUkkafrCsYBGjEyuF4edHn/Ldyyf+YCo0L0wZPz4Bpv7FbqXP67croX+sbn34hrMi3nmdm7EwHONfPfCI5GrA39cXDfXsKEDju2vA+6Zey/0xxjy6Ztzc8M3A92LMeVbm1wd+Pfqo+/Zs2eLCRMmABIaYAXduXMn8funIpHId9atW8d7Y1j7F6AQPJmPPfbYUZZlHSqE8L02ZX2JpZSd3d3dzyaTSUDqsI+53+ACgFDWao3hg4vlIMRisSuFEDcmk0kqBHqFz/cUQJg7dy47tomtra0f8I1PLBa7xHXdrvb2dkICJUssFrtOSnlvW1sbOzANA6br+nPenHHRIoQXyD4u25iVPJCxcWCpzZp8krXdZgUHRSaTuZzeGK5b/ntNSolBO07XdSplUt3d3Y3JZLJczw672OWeq3m4489jY2X3glHOnTv3kFAo9H1d12kE1m0Yhv3qq69O1HVdTpgwoSebzS43DONbq1ev3tu/58WehgAgFNPQePn7QADhuOOO22/fffe9wjCM70ope13ZlmW5QohLd+7cee2mTZv+03+3PgIehOuUUmdkMpl3+S2cY7HYF1zXPbS9vT3XTVl0mWpra+8gX6GtrQ1XphaPx9+klPp/rut+qr29HTd0pcIukXgp+uELNR6kVIAwbHMlI1zX9d8ppf4hpfzAQw89hH7LFWLSMS/GXT5KKfduwfF7XAPz588/EZZOcoFc1/2abdsPZbPZTpqDRSKRLfF4HBf9+dls9s7m5mbyTwIprIFegECyEYh9OOKcwQKMAg30BwgkJobDYXILuoUQxI1xB+bboe36XClFLJIEvFXpdHpX4tpwA4RYLAal8q008/HbN0ejURLK5rW3t5cVS4zFYnc5jnNZR0cH3Q21aDR6bFVV1R8zmcycVCqVGwMud7V8HoQncpLdyr3GaDt+jwKE+vr6mSQ2+uDgwQcfrDTk47uzy/U85K5HQS/JaFu0vX08VDRVVVWtk1KqbDZ77po1a/zOpYQpyD95bNGiRZ/fsWPHF6SUV9u2favXO6FYmHJvVW0vQMCtvKFf8sneqpRxOe9+AEHEYrGlUspXpk6d+tNSmQTnzJlTI6X8im3bn2BHP9wAIRqNNoRCoQcdx3l7MpkE+Wtz5szB7Xx5Op0mq7xkicVid4fD4XP9EqLa2tq5VVVVD3Z3dx+bTqfJPK9UxiOT4h4DCNDImqa5TgjxbDab/fAg+zMs1DRtsZewlo8OnI6VeH9ym90QHyfBENDsJ/uRX1HvJWxSRUAyHcAZrwTHBd6JSr89Q3QeiYHbt2+/U9f1Oa7rzmtqavpzzqV9gABIIEkSWuPrDcP4jOM4JzQ1NcFhEsjuGgiIkvaWpyIXINTW1r5VCPHZVCrFy7MsicVidd3d3Z2PPvroH0YAIBwbDoefyGQy9e3t7SkGCoHS1KlT70qn0+8rdeD0oZgwYcKv0um0X86GB+ErpmlebVnW2wbZlyEACKUuRJHjFixYcIKu62td1305m82Sc1BJWCH3LsVyEI7z8k7YHOFtwFtAlQNJjZQQvuCFjnhu1miaRi7M9zRNa/GqVQATVAdQiRDsQofoOajkMqeffvrBUspnMpnMEo/qOPcy+QACtN+P27bdvmbNGkINwfrtrviHKXkOujlW8kSO/nMmeTXWZOwumT9//o9s234SJsXa2tpzhBD/SqVSvPTKEgiMpJRfbm9vv3QYAAJZx42apsG70BmNRqdFIpEXMpnMV9PpNDu3XVJbW/vbrVu3nvPss8/26eBYaCKMUwhxViqV6q2GiMfjkJKcHgqFjhokTXQAEMp6gvIf3NjY+A5N034rpXzVcZz3Nzc3D0UzLb+KgXr4fEmKlMVRqkgOChUblMF9RdM0vjOENeA8gCgK1s0rvWMBB5RCUqNP/T+ENRDMUTYZyB7QwMKFC9/kOE5CCIHH6Pg8DcAAf6wxXkjWcZc0NDRAanRtT0/PmZTjBkmLuy0enBUHDxYgUL4BsUpFNc5lPk8jFQ8ciftwD/+nTDWUdDguUAhFIEx5+thjj913+vTpP0wmk1fGYjFK+v6USqVya71Lumg8Hp/huu7SdDr9xVgsxgs0+fjjj3+os7NzKOr/6ZsOOQ+uwMsXLVqU2rJly3ohxD/b2tp6d/+xWAwSko3JZPKBUgYdjUZXSClfTKVSELKQoGgIIR5zHGdTOp3+7CB3DwFAKGURBjimsbHxKCHEg0KIVzKZzGDDCrl3KgUgvN0jS4LoBwCJwSdkQNiVfBWAxZkel4JfAkt9Pt8tvmM8s4AMn1FwkNoITi9RAzB0HqHr+jIhBBuLGUqpf7uuS4Lib3Vdf3rixImv5YRP/ZBQL1CcN28eHkqokXkf/MlxnO9ls9lfV1AtU+KQx+ZhgwUILA4EGBBWDKpD4ADqw/2zv/dFvr5fbexQa514JC8KWLuGcz4YJnYdQ2FY8+kA9yfxVZIL7Te/+c3OoYceurK9vf2qeDx+MnH99vZ2XnK+FAJFAL/eGCvhCYiH2tvb7wUgKKXSTzzxxIc7OzsH2/KZe/CyJewBYRE7uR/OmTNnRSgU+qRS6ni/BLOmpmaWlPKaAw44YEGx/Il4PD6R1mgS28MAACAASURBVNCZTCbuN3HyPB/pbDYb3bBhwy5ehEFIABAqUB4gbfPmzfKQQw55s+u6m6SU5IHUr169Gtf+UAkhBvpk4CnI50GAJIj1gyMDsiRyDfheEnpgHPBiEH6AkRHyJPIQIN7he8MPoIDvGC7qIMF7qFathOvU19fXCiHWULroOA6x8m+5rnuIYRgYepKvjxBCPKJp2rWhUOgvyWTyS52dnSQSN+defu7cuYcbhvEJGFcNw5hKdcOUKVM+VSExVwkjH3uHDBYg0L2KLOGyd6NlquotHrPW/5R5XiWHwxYGRedgjd5A9+bFBUFPpRnaxeZFItWj3hzOnTt37lUYSkIMXkz+RmLwfhJYPB7/uGEY9+chSjrP33nT5EgIcTN0qx0dHa8PQ4gBlxauW9jtMBiqtrb2SMMwNmWz2Y91dHTAWIcHIOK6LhS15/sVFYWUUVNTM1MI8eH29nauuSvOCDukaZqf/Pvf/35Usd7txZTsGRgaGuGKJkY9HqTUJMWKPG0NDQ3zpZTfVkrh+q0SQmwXQpz20EMP/WOIlUcSInTHeKTyxZgBDnjTSFIDKACq+WE9MfiEOQDIfJd4x8FWyAblIY96ma6hhCUoud2tg+gQzyW4nKeB+vp6+hLcr5TablnW2W+88cYfDj744Egmk7mlubn5nEWLFtFO/CBd1w9zHOcsIcTsDRs2HN/Z2Qmvik913Uef9fX103kWTNNc7DjOL5uamnYlMwbyf7tkvjwkgeVyf5eqm/EIEDCCXxsBgAAQ6aWmLVXhJR5HYg5Ur9Cxbu1f5ojhFULcpJSCb32jlPLMcDj8s/7xu3g8fqllWbdCbcxuyXXdX7W3txOHxXgPdTdHym3xHvR5mc+dOxc34M5kMsmztktqa2tPVEp9auLEifRPz0t4Qj+HbDZ7R09Pz3mPPfaYn/Am582b97RlWQ+n0+ncdqlQwlIZ8bMymzX5HgRKqnrDICWu0Wg9DF5+notiTIoYYHI56EnA/IsmenkkNh26rv+HNSU86bruGcPU4XGKRzlMI7p8Y8ODQLIrQB0KZbwExLHp18D/qWaAwY524OxSL/JCDYBT8g/wSvCDtysg3RmBp3nRokWhrq4u+krw3Z6/Zs0a1ocOiWHbtn8ZCoU+nVsWy2aiqqrq9x0dHXWdnZ0803iF8grMhxs3blxiGMaltm1/rbm5Gbrros/0CEx7j94iAAi7q388AIQ+sypAlCSj0Sh873/Tdb0uHA7/vD9AqKuru8SyrB8YhlGv63oyt+xsGABC3i9CLBa72DTNJV1dXcds2LABwLOLxrStre0XSqm1+bo94sJ2XfdGKeXzyWSShj0+sJhrGMZDlmWd2d7ejrsRIHWSx31/mOeOLrVZk19nT7YvHPfsOoYyLDXUzZn667fQ9Xkm4OMnYZTQYSGhEQ9eKsJDJO6xux6QsbChoeHscDh8/fbt2w8j1tvY2HiX67qvtbS00FxnqAVPyEovRFAoSREQwfohhBZg1YRmGq4PktpInqRB0VJN0/Be4qam7wC5V3gYB2pmNdTz2euvt2DBgo+bpvmjbDb7gbVr1wLofKFJEhUm321paQHQ7ZKGhgbawJ/Q3Nxcp5TqLXMcSJGNjY0ky87s6uqivDpvInQikWBjwI+bSCS6Fi9eDDHTcatWrVqbSCQmd3d3v7eqqop8CN5V2xOJRHV3d7cZCoVO03X9ge7ublFVVbWLKtuyrIWZTGZtKBQ6MhQK4bHaVdINi2xXVxdMkLtoml3Xza5ater1xYsXs1F6NRQK7eJ0eeaZZzqLhVoH8+AEAGF37e0tAKF35hjhSCTyk3wAQSl1QzKZxAj0qfceKYDgdXZ8Qin1xPTp0z/gfxnmz58/xbKs1bzA/R4L3oREPB4nl+E9ZJgnk8ldCWTe8c/ouv6E67rv9z7HAOARYdfIC58GM7l18QN9t+jkhyuaJDZCRew4h8qoo2uMz3DtYBg3u698gMZvgey3GC6kAxK/MKj8S7vn9xfrhFlfX39OOBy+MhKJvI04b0NDA0Ckqrm5Oa/rdzAvNq8rIr0YClUx8IJnrj6REv+nv8RWL9TA536zIhobwfcPoMTzEcgIa2DRokVV27dvp7/HMw899BD9Qvq8jxoaGj6olHL8Vsjz588/WQix1LIs3gGQoQEQCGEOKB4b42NKqQ80NTXtMvL95fLLL6eTLM23JtKS3jTNQyzLouviT5RSK5RSJLvybC3cZ599lrz66qvvk1LiheX4F2jepJSyLMt6wDTNen43DGOe4zjThRD3KqWeF0K8yXXdqSRQSil3uq4bNQzjKtu26QLJ9+YVIQTg9bLly5cPhsulkD7IxXtbABACgEBc/qJIJPLTPCGGa2zbnsaXYP369X1KuUYKILA88Xj8XF3Xf+w4Tl0ymeylNPYSLukI9+n29vb15FdUV1dfoOs6nfw+nEwm6a2wS+Lx+AUwM7quOzfnGnyJMSAACpA5meqlhn14QRGzZseCi52EtaEUrj9cAIFxDvbaGFOSPDHCtC4uWurX0NDwTl3XU7Zt/8x13X+FQqGvZzKZj61bt47GXEMtxaoYhvp+wfWGUQMNDQ0HhsPhP3d3d5+/Zs0avDx9pK6u7ijTND/a0tKSoBdIT0/PTxzHuby1tRXjiQfon5qm8a4YUHiHTJs2bbVS6p/Nzc15QxKLFy+eFwqF/mvb9qeklIDj6Y7jHAEXg1KKvBfyWN4FKJFSVj333HN3HnPMMZcppUJKKfJuAAgvSCnfgDreq56h++R7hRA/kFIe6DjOyTQ6I/Sl6/o5tm3fpev6CUKIR4UQ5ziOM0EIcc/y5cvZJA32u5xPJ2x4ogFACAACMf2vVlVV/bg/QIjFYmQKf6O1tZVs7j4ykgCB5kqmaW5USnU7jgNxUm+2+5w5c0DWvxFCfFkp9TbvyzQ/lyGxtrb2eMMw1kGMsnPnzo9s2rSpfwIqO/9az91cTkb6eKxiKPYO9f/O3KkuKouzoKGh4YumaV6Ot8VxnKbVq1cPV0JYKQCBPAo8A5Q1wh0CYCTERD4M3gI8Q/wOEAQ4cgyf8zvJizw3W6dPnz514sSJUw466CB769atBn1M/vrXv5J0SQiDY7gOeS68b7kX4Rle6nzOGBD/GMbA9f3j/d85Bu9GPuZG7oMrmrHj0WFt+J258X/uWZUzV//3/vNjTszP1wdj53c+z9VN/8+5jj/XVwf4neeFyq2iYLL/QwgFdygUWp/NZk9oaWnx3fC9h9XX12MwV02ePPmr27Zt+7EQgpCpDzzRB/ouKfG8sbGRdudfE0K8ffXq1XiP+siFF144eZ999vmK4zj/lFIeDDW467qzXn/99bv22Wcfwm0Y/Zfhm8FD5bruA0KIq3Rd/7xlWXilLnYc51eGYZCYrVzX/YthGO9wXbfaMAzIwkyl1BTbtg8yDIMy4Bdt235JSvkvKWWt67qdruv+W9f1mXgbli9f3htGLfXLW8JxQ8KkGCQplqDpPIdQxTCcSYp9blmsm2M8Hj+6qqrqb/0T/uLx+LuTyeQf8k1xJAEC9/cqGp4kGalfgiHdGQ8LhUJrLMva4rrugv7ejlgsljIM48jq6uoj7r///qEsLd2bAUJlT76miYULF07KZrPmfvvt98Ywxk+L5SAwfho6YewAOXCGAAR4qeMd4Xc+x4BjZPFG8TlGl/APYSl5wgknyFAo9HvTNI8Mh8P0ARB0sJRS3v/888+v3Lp1KwaWax7sAQRCU2/yDBa/w94IcOAY+p3wO5/P8MYG0KCKCwNHxUW+EBi7VsZFMi4gBiPE7/zL/7k2/wJ2uDbgg78xD+bkz49sfq7j64Dnm99zdcMx6Ibr+L9zHcbL54zX/51dO/NDx3xO4jRzL9tjVF9fT0XCD6urqw+/5557duUi9ZcFCxb8UAjBZmZiS0sLperojHv/wGPGxHgXlcbGxnlSyia8AatXr+71QuaeuHTp0m9QvSelnKKUMoUQpuM4Pbquv8dxnLAQolMIsa/jOICV06WUeGItKSVcMhDOweS4hv97OiIH5i50LYTYppTCC7pBKTVVSvkrCrAcx9lsGMYpruvC9vmMlJLulN9etWrVcNBFBwChwJOy1+UgFP3G5DlgpAECQ4hGozeEQqEv0HgpmUx+O3c3RbMW+Bg2bdrUm2RI1vPmzZtp/fpxy7I+197eXtTFWKYuAoBQpsJG8HB21Bh3DFk+FyyGGJI36uXLdtHC/79582Ya/8CjgIHd6Lruw0IInokaIcS7pZSbLcu6JJ1O/zrPvNmpY/hP8MJUvOSprGCXTaY+MWuMOsCCEE6DV22Wz2MDRwOVaENSTcHctmzZIpLJJGCkbN0MsMbonHUpO49jwYIFn5FSrmRHna+B1+c+9znz5ZdfZjNjKKXelbPZQc8kl9LJtSRvVWNjY41pmm2ZTOZtLS0tu8X3ude0adMul1JOgqwpk8kcahgGfEAvCSHOJDSglKojedlxnOVKqUnhcJj3FqDlcCHE4ZFIpCWTyRzkOA5ht2rXdScLIZ4HcOC1cRwnJKU83HXdFl3Xv2Db9qUAkHA4/G7HcU4XQnzXdd1zlFK/uuaaa6jUGWoJAMLeAhDmz59/r23bT8CDMFRPkUdh3Gqa5gH9+ROG6h79rzNz5szqSZMm/UZKGc9kMqetX7+e+F8hkbW1teeapvl9x3FuTSaTlKMNtfjdHMlBGC88CLiSeanijh1K4zDUui92PXaqGF94C/K55TFW0CRjfMttuCSi0egXQ6HQTZZltUkpvzZt2rSnfW8IPUOmTZsGoRfESofTXXD9+vXweOTqE28BpaS47/FqYdzZbeOuB+TiFfBJ4nhZ08GUWHq+HS1/g5OhbMPrK5HKH9u2Z+q6fpoQgsoenu0XHMdZTd6IT1RWQOkAJMbvzw/PArt8PBZ8xhzxaOCJwGuzW8iy2GLW19efIYS4y7KsI1pbWwF9fYTcgQMOOGCNUmpnd3f3mX5ysvcsk6BYUhUDF62vr2fHz73emqdhmFi6dOnnDMPA+Hfruv6S4zinuq6LdwCa7g84jvMfXdffYtv2D3RdX1hdXf2znp6eS6WUvH/n2ratLV++/IElS5agZ4AkhG4G57uuWyWlBCS+7LruYXgTqKpwHOfenp6epyZMmPBZ13V/SghCSnlWT0/Pt775zW8Otm9JPvUHAGFvAQjxePx7PFBbtmw51yuvKfZ9LPr3yZMnn+G67k3ZbPYoujsWPWGIDpgzZ85bQqHQ40opXKEkLeYLgfAC/6BpmsQGH8lkMnXDNEZcqv7Lp2iG9BCpYLgvA6PlxV5533C4Lod7/P714bWgr0ehKgYAAhUoZKqXBRBg8zRNM+W67prq6uoPFeLiOOKII8JvfvObqZI5JhKJHNePKRIjCgfDXz23Ox4xXPCMhWcKXhrKMzEWgBj4KegpkI+UCSbIOytlZoUEzTCMm3RdP1cIYdu2TXmfg+GSUoYdx3khm82evmHDBsaaK4DJqFciyjmtXvgChl3c+iTeAQhI2KOxFdUH7OZ30Z6XIw0NDceFw+E/dHV1nbJ27VqusZsAzKZPn+7mgAOO2a1ZU7H7nnbaaUts214kpZyVb22VUrvyDLnOpZdeOsUwjONeeOGFPxx33HH7/Otf/3p9+vTpnyKZ8Oqrr2ac4qKLLoKPocayrKcjkciHduzY8aMbb7yxO5FIEGrY/4orrnh62bJlJ+q6/tyOHTveZhjGdtM0qdICHOyzcuXKPy5dupRchBMJS/T09HRNmDABj9KTw1TBwNT6AARqgeHWL1eCHIRyNfZ/x49oDsIpp5zynnA43OK6Ll9wS4jBlesrpaRhGIdkMpkLOzo6qAsfUYlGo++Al0EIscNxnDPT6XSfF0Y0Gv2IaZq3kylvWdbc9evX7yJUGSZhV8SLvFT+hGEaxpBdltgnrHO4TPGMjFUpJUkRd3e5OSmyrq6uTSk14bXXXos99dRTA+7aZ8+eTX4PlRu/nzt37ucTiYQPRjBcvOQxmhhM4vUkylJeSrktfSLwMmCI8IJgZOk/ki/Bj1AEBrpsjw8JwIZh/EJK2cjO1HXdG2zb/q+u61jBiBDiQ97Ol1K7D/YrKQakYwMYKy58wIxfKooHxE9sJOcB8ICX4XAv1l7Wc7Vw4cJpUsq/ZLPZb6xZs4YwcKmCnnmOGV9REE855Y4dOx5WSrU0NTXBqLu3Si9AYHF5yCuppQwAQmWPz4gCBFDsKaeccnJVVRUxOL4wgxWKeFvT6TS7lj0hoqampsE0TV6smWw2+4n169d3zJw505gwYcL7DcMAHPzTtu0PdXR00LY3kNI1UCrVculX3DNHFgMIoGSYE0mYK9mDcPLJJx86YcKEp2zbPieVSrErLirRaPQC0zRvtm377el0+i/eCRhPjCnvXhIGMZ645BE4GPicREgEdz3HAgDyhRg+oWnabyrpCVFXV/cjKeUHHcf5TGdn5715Knz4rh1pmuZdJOL19PTU+YRlXkIlXgJCOYBkAAxhE8AlnhPAAHPDi4CeD/E4M8qmpiafaPv27ZT8VU+YMGH+3XffXarX0vcUUV1RtCUAVOBQOTuOE2tuboYIbEhk6dKlx0gpT1BK/f3qq6/eCLkSeQtKqdd0Xd9omua0rq6uuBDidSoZcoDkkNy/gov0AoQKzu09JQAIlWlvpAFCZaMc5WdR4hgOh3kx7m/b9ichFzEM41rHcYjlnZrzMh7lMxlVwxsvAIFmTcuLhBigx4Y6uShAwA0fCoUOs237fwzDmNnW1gYRV9HzWFkSaHVdf95xnO/qun5XV1fX3yoIeeFNANznY2+EiRKa8LK8IYRKQqHQOtd1E8lkEibMglJXV0eWfZqOiXV1dZ/2DBjGl0RLGlYhVGYR0gEQwMIJwAHUYJwJXZG4R5t5aIzLlvnz5x8fCoUes2070dLSUlJFgncTEv/wzBTz9lTtu+++zbZtV0+ZMuWUoWratGTJkkN0Xf8N9PCu68KtcLeu64cQqlBKwe661LbtpY7j/No0TaoWHkwkEgOykpatvPJPCABCAZ2NuyqG8p+NsXNGTU3N20zTvE8IQUKPtG07bRjGR/MkF42dSe3ZkQ4rQOCleOmllx5cXV39L3+XdOGFF4b333//8DPPPLPzsMMOm1hVVZVJJBI+w2Gl2iCzn+Q9EhHztWPGuMU8BsyBDD35LKeEQqHbNU2DjpuY/GeTyeSPyhiYjMVi3zNN87NweWSzWby1Z7e3txNKKFXgLkDy7ZzpKcEOvWSdzZ49uyoUCj0qpXx5+/bt783jOdhtXLFY7LNeYuY7k8kkCXkI4/KNGV4Rkht9fh0ACwmMlBqS9Mq/VI4MlFw8kD5EQ0PDT0zTfH9XV9f7WltbCVsUE+5JhQcN1Qo2+yNJMxwO/9QwjPdSgfDQQw/lLe8udrN8f1+2bNknOzs70zfddNPfE4nEm2zbXiWlvJewkFLqzZlM5oFwOHy567rXr1ixYqibllUyZM4JAEIAECp9dkbXeXRjy2QyUIO+umPHju9v2rSprJ3U6JrNHh/NoAFCIpGI27ZNkt2umLgQwtF1/SbHcQ73mOY+IqXcZWC3bt26cb/99ou7rkvW9j9CoRBlXJNXrFhBYt5gxDdWAxlNdrgDubtFLBb7iq7rK1zX/Q8Uutls9jfhcPhxekmUMzhaj3uu+A8JIajp113XvTCZTOYrgcx3aZ+sCF6F/vJmj6+gJJpwr2KhJhKJrCYZL5lMEhooKnPnzqXkkuz9a4QQ3yvUq2CAC+EBIWenLHKt3Oudeuqp8Aj8BmKhbDZLo7Bf5StFzDkHgEDSJwY/t0HbrkPQhWmaVJwskVLOVUpd0tTURMLokMnSpUsvNwzjZvo2XHbZZZC+/UgpdQeMiABG13VpBLY/Y8C7cPXVV9/jJ0EO2SDKv1AAEAKAUP5TE5zRRwPslHhpYixguRsPMhQAAUPQJ9flG9/4RuaKK644VinFzv4NKeXfXdcV2Wz2sXA4/FkhBA2vbIiuhBBdjuM8snLlStzRlQq02ZSeUlqWz3CydvydPIK8HgQovqWUP7Btmx0v7cUrydPabfzxePxQIcQdUsqjKdft6OiAi6GY+IRDFYcYMIbE1mGyVEq923Xd7u7u7rc/+uijhABKktra2uullF8SQvzZdd0fCCHuTCaTpT77VP1QfjooPUK7TCKtYRhRmn0ppaA2hl11t+xrXde1devW1U+aNOn1k0466VHHcXqPUUq5uq4DWo+VUnZ6CZB4ispO9hxIeUuXLj3PcZyN11xzzfNLly4lL+PrUDQ7jvOKlJLk5vdcffXV/0ujJ9u2Wx3HWXjNNdf0ssWWtDBDf1AAEAKAMPRP1V52RV54uInJkib7fzzIoAAC4YJJkybNl1KaXolclpe0bdtduq6/Tyl1Mu5eIYRFuMFLwJsHrzxx2mw2S6JWs2VZznXXXTeY6pNSyhypICCHZTeAMGvWrDdVV1c/7jjOXyZMmDC3UCljpQvueRTgu59RVVV1dD5K337XxiiyG66IB8HjELnNMIyzbdsmFk+p8NdTqRSNjEoW+hx0dnYShl3g1fr/C5d8ifk+VI1Q+9/bT6XkG+9+oFiwYMFcqOCVUkd6BEy7HcWzl0qlJk6ZMsU58cQTu2zb7gMilFKvCiEeNAzjinwETIMYX++pl1xyyZsikQjP9yXZbPZD4XD4+5ZlvVMIwZru7zjO73Vdfyv0yVLKK6WU708kEqX2hBmKIea7Ri9AII5Dwxn4p8uVIEmxXI393/FBkmJlehttZ41HoqRBAYS77rpLf/LJJ9ntHuK6Lh311pKZrZTa5ZLXdf371PVTSK5p2vZMJpMMhULw3ic978LxSqlm13XXrVy5srd1bwULX6yKgUuSU8Butv+OEZKt/9V1fa7jOHPS6XSfXXs0Gn2XYRhf9MiMig3NAWQ4jnN1/3LbaDQ6xzTNpG3bF+RrW97vwoBRdJYveY0Ewj8XyLXAjU4ewA91XT/LcRx4+2/q7Ox8pZS8gwKTo2PqFMdx5um6fgu0wo7jvDedTrOTH0gACFQ5FK0mKKZU/+9UN1iWBWjJ20kVj0EqlXpISvmnxsbGr/b09BB66pUJEyZk77vvPgBTSQmnpY6r/3GJROKwbDZ7pK7rL1999dXPXH755dMMwzjWcZzOUCjEBuPtPT09M+BCWLFixWhoI96HBwEkS8JOuRIAhHI1FgCEyjQ2Os8aj1TLgwIILFMikYg4jnOjbdtXCCHqlFIvXXPNNRsTiUTItu1PY1Dg8VdKnWgYxqepvdc0bf3UqVN/t3Xr1mXscHHBD/JFWQpAONozrH0AAtwAkUjkeXju0+k03Sp7JRqNwpUPN/6druu+ouv6gKQiHqnO0bQYD4VCH8pNnvXomqH/fldPT8/sRx55ZLfGQDm3pswRI5gvZwKOBEI0eZsRxWKxxbquX0GmvJTypn5EQoP6ZtEITdd1Eu7+OXXq1HlFemtgnOFsGEnOENbnGK/CYywTfw1qnSo4OejmWEBpQRVDBU/TXnpKABDyLPySJUtIvqI+fk0oFNrXtu2LDMNYkEgk3li2bNllUkrXcZwZ1dXVK7LZ7OuWZWHgeIm3SinvVkothu73/2PvS8DbKM7359iVZCfOfQMByhUoLS0UQg7b8iXbCVD4lfSmhV5c5T4KSewocRyScJZSjnC2tIUW2gKBOJbtWLYTh5QCLSUBApRCIRBCQhJfknZn5v+87sp/RZEs2ZZt2dl5njyRpd2Z2W9mZ975jverqKhY3Yd5lUyYY0wTQ25u7izOeb1pmrOiSLhYdnY2KI1vTTYCARTAeAaXy3U253xiY2PjASF+c+bMOdPpdDaGQqFZGzduBJlPvNJdmGNcqmWYFsaMGfNv0zTXNjQ0/DSycgCUnTt3Hs8YOxIRQIlkjRwDra2tW6OdgHNzc/FsfzZN8/uNjY1IOBSvQJPxZUJIyvgFEvXZ0rqAfwE8E712jkyineF2yb3Q9tjpng8e1iEFEPCSH3vssWPeeeedvYcddljWXXfdFcvL+aCntBKOTMEpDTayzMzMTyNjbxcuXHjy22+/vT06FhiEH4FA4IPbbrutM6Z4yZIl04PBYEtbWxvoPzNXrlwJLnmyatWqrI6ODpx4EFEA1WIgBaFr6fYS2gAhxojcfPPNM0ARq+s67Kj7TdMcyzlvW7p06QcwQbz22mvHU0qvhP3YSm18BvTwsGsLIR6GrVZK6a+srMTJtLcFBHBwiMT7HM9J8TxCyDPR6mW3241+nT9x4sSvRJ6I3W73GCllg8PhyEkm/4jX62UNDQ1/UEq1fPrpp5ePHz/+nqampp9FPlBhYSFi9EFlfG1jY+Pvu3nY7jQIF1vslwdF7+Tk5CyGOQTmHr/f33WCDpsdLAKmdyx/kLjNw6teSjmWUjojFAqds3nz5q58CFZyJ7AwngHbejccD6n0QUh2XsBZdrNF8XyA7JOt4BC9DiyZzAYIQxggVFRUHB0KhWALRda6NUqpqcuXLwfxS7cFL/SMGTO+jKxn4IKnlCLHONjaXq+srNzo9XrHhEIhD6U0GF6klyxZgr+hOgbhyfucc+Qm/9gwjJmU0jeEEGAKCyHV7a5dux6eNm3aHDCvGYYBfoLJsAWuWLFiaaK+DbHfbYDQywGDuQE28zAXAubkU089BTuweuCBB/SLL74Y3AV98SbHxoAY/VjUxOFeI+QOHvgHtJObm4sQS62hoQG5GroKCI+EEOvgm5BMiB+4BjIzM19FtMDOnTtnjh8//v6mpiYQ5XSV0tJSZ0dHx+tKqUcaGhoQthevhPkFYmVshM8HTA8HAKGZM2eOysjIAL36H/1+P9aJrjJ37lwkJJoLGuUehGzC9wBph8+ZMmXKDZHgKTs7OzcjI8Pf0dFxWlNTE8IKYxVoEKApiplLoZdTKdFtPc7FkKjCQ+l3GyAcPNpDRoNQVlZWyTl/1Ov1dpKWdcbIzwAAIABJREFUVFZWTl20aNHHZWVlUJFCtblRCDGTc46FstEwjDMdDkeGUupl0zQfoJQixehtSqnzhRBPc84/6ejo+LfT6bwc1KqGYcySUv6ztbX13dGjR89RSp3MOX8f5B6Ws9SrlNKrlFIfg5teKfUHSqkHVMdQwyIznRBiGxzTDMO4vrKyMin2M8QKc87dy5cvfwYnFyt2+FjOORbATlWoEEIppaAtOREhcZzzMXieioqKLjXtjTfeiCQ0x61YsaJzwYLWZMKECSc6HA54go8zTZMLIT675ZZbkg7zipouhwxAQAhWR0cHXbVqVaf9+Iorrhg1fvz4dq/XG4uEKN4aSr1e78RAIGCENU39uNgizwEcr0EiFMs2j7UPXA0g0Yl0UGNut7tRKfV+Q0MDzBRdBRu+pmkbdV0/J1ZGwVjPMmfOnCKlVCvnHKf3K5qamhZGXgcTxMiRI1+mlK7z+/03dSOP7sIcYxIl5eTkHO10Ot8NhULFDQ0NB4SMZmdn/05KeemmTZu6A1Bd3cnLy0PGQielFDTEz1JKfx4Z9okkapmZmf82DOOHfr8/niYEMsfJtEccEujE3Xff7fz444/BPrjL5XIJr9e73+v1Hu/1et9euHDhl1paWt7KzMycnJGRgcgXcEY4lixZsnPp0qVHLlu27HkpJaI1LiorK/tiMBj8YPXq1Z3PDS0P1gKHw9HpSxIKhWh7e3tH+Pd+nJ9DomobIAxRgOD1ejUwby1btqwrjXF5efkvQqHQGl3XL1dKNZum+TnnHBTE1dYidRbIhPCSSSnfYYwh5Ayovl0p9YW2trYbMjMzERt+mK7rf9i6devHxx9//Dxd198NBoNE1/VrJ0yYcPnHH398DGPsxsLCwp/4fL5zOOdMKQVQMhELK1JLI2wHJ0R4sHPO/xAKhW5YsWJFdyckgpPj+++/PwELEed8oa7roJA9NhAISF3X0Xc4xdZZ8fKSMYZ4efx/GPKoSymPYIxtMwzjzw6Ho9UwDINzXoz2CSEzvF7v6+Xl5agDMeBYbJCutWPZsmXdLczdvciHDEAoKysDuQtOr3s0TVtmGMZ8zLEVK1Z0y6sPb21KqbZixYqPFy1a9DMrKdC+YDD487CZqi8rJZjp2tvb98VY0JPxQYhJtZyXlwfyIld9ff0BGgT00+12gwSqeOPGjTcn22+EBiKPgBDipmjOgx5oEHpMtex2u8/UNG1zIBA4ITonidvtfjIYDF6ULOVzQUHBPxljtKam5pTc3NwHhBAPRPpMWP4MryJNst/vB8V1rAITQ6+YFG+++ebxyDiplPo78hdUVlY+vmjRoit1XW8WQsCv4VUhxCmmaW5xuVx34hC0d+/eZRMmTFhVWVlZNHnyZPPiiy9+pqOj4yykr6aUgpESyah+DfpjKzss+qxpmta4ZMkSmJ76osFKdnqk9XU2QBiiAAG23K1bt65eunTpdeFHKC8vBwHHnVLK1VJKn1LqKF3Xn/d6vR8uXLjwJ6FQ6AnOOZjDKpVSyCE+FpoFznmBEKKOc+6QUn6VUvofzvk63IdTuMvlAof4e4yxDsMwYF4oklJuppRigwTJzTYhRDtjLINSup1SOklKiXCmZsYYtAH3JwMQLr300rETJ06cGwqF/sU5v1nX9Uut+1bB7GGa5nltbW1PHnHEEWT//v1B0zTPpZSOEUK8wBj7tlIKfOcyKysr0N7e/lPO+W+FEPkg5LGSokxmjJUKIRpBzQyAwBjb+cYbb9ybwPs63ks8HAFCzGyOixYtulbX9YcMw8CmGVBKbXQ4HLtN0zxa07TJra2tL2dmZp4bDAabTjvttI9ef/11ZAeEnwrS1E6UUq7nnJ+TlZW1SkrJOjo62oQQmCPHcM6fMwxjLGNsCqX0KMbYWtM0j0C9hmFolZWVjV6vF8CxyDAMX2tra+vYsWPPEkIg62ChEOI9XdefiOKvTxTFgLUPaYlBgnRAiBu8/pFlkVJ6egyPf4RALqWUQvuwP0nnPmjqfjNp0qSHo+dZaWnpKMMw4INwY2NjI/IpxCs4FaPPsSIAAHReiD6Z5+TkeHRdrw4EAofFCLH8A+f8Z8mYStCh3NzcG2EynDhx4sqdO3cijTrAzgGJ0HJzc1/Qdf212traeOCpxz4Iljn0LhwGpJTTlVLwfRgppfwz5/xyaDgRwqmUgrloBuijhRCLKKXPCCFecTqd3ykvLz8V2o2FCxc+HwwGz0NILTSRpmm+53A4tp900kli27ZtkdEoMg2SJaUFcLABwhAFCOh2eXn5CtM0n3Y4HP9pbW0NZmZm/vyNN964DU6LjLEVjLFNpmm+7XQ6t+LExxh7DWlcTdO8UNO01w3D+BybuVIKm7tHKbUMRDbYdDVNWwv6VtM0z8JCv2LFijqomQ3DwCK2obKyspOOtKys7Jt4YZVSMyil31NK/VkI8W9K6T/xMls0pk8Eg8GrEROP3ObxZj4Awvjx47NN00Q/OwGCYRg3Tp8+/fYPP/zwbomdhTEsEBqY3KD5kFJCw7DG5XKt4pxzwzAcb7/99s+OP/54cKrDaWuGpml7ly1b9tu7777bsXPnzhILCE1HLL6Ucqeu67/v5YIwHAECMvFdQQgB7WsXKU9ZWdmVFRUV4TFfKIT4TzAY9Llcrt9APW5povZQSo+glGLeYb5hIUaM/mQp5X8553+vqKiASh/z5otKqes0TfubYRgYV0kp/bKUEqaiXymlzlNKbaWUnqVp2lUI0aOUgpQKjoKYA6BJBm+92/KHAZVtpOo6EUBAN+AgeNCGC34CTdOgkp9VX1+PDeigYhEdJZUZtaWlJRSP/hucCk6nc3MwGMxuamrqzrsfZkKow2MlHEKaZTgHHwB08vLyChhjtUqpw6NNIrm5uRdJKfmUKVMe7Qk4drvdxwohynfv3v2Tbdu2HcDJkJubiyiUzfX19Zg7sQreF0QUhDNaJtwEoVX873//C56MfdBSEkLeoZR+VFFR8dDChQsXcc4/DwaDz2iahvTUObqu/9M0TWi77sH8oJTO2b1790PQNE6aNAkRJDDntABQaJq2yzCMf+i6fpQQ4nBKKdgLAX4V5/yZNEiYlFA+/XgBnHxH2wBhCAMERBBIKZHaGKp0ZFIbxRhrMk3zRsbY7qysrHv27t37IF6UYDB4Z0ZGBvwr4EhYnpWVtbelpQUc+M2apgFM7BVC1C9fvnzdwoULrwKAME1zN5i9kPwImzJi2C0goBhjVcuWLXt20aJF58EEIYQ4FZz7QojJuq7fhWxlhmEcpZTK4ZxXmKa5Ag5jy5cvr+ghQLhWKfUvxhicrG5cvnz5G7feeuuIvXv3fk/X9U8Mw4AfAk4P8EvYoGlahaZpV8M2fvPNN/8fpbTA4XBchb9xGjnhhBMKoEM0TTOkaRoxDCOjsrISYKg3ZTgChJhyiAQIixcvXoS0tdBScc7L2trafjFixIh1mqb9VQjxJdM0999yyy2dmq2FCxcig18mKG0JIVsqKio6aYUXL158sRDidafT+ZIQ4j4p5cv4bBgGzFXwlv8a53wFpfRywzC2Yh5amRePk1K2IgMeFnAAVAAPr9f776iO/5AQgnuOj0MuhLUvZpgjohV0XX87GAyuamxs7DbLYW8mTeQ9ubm5IC46PxQKnbh58+bu2PN6HOaYk5PzVYfD8UooFDopmsTI4/GMCAaDm6AJUkq9DvNBomdRSo1WSoFmuSC6vmOPPdZ52GGHbSOEPNzQ0IB3PVYBoAKYSTrds8WpATPmOsMwVlmOp9BUfGSa5u1WWuknNU2jpmlio39J0zQQbSGBG4i23nj22WcXjB8/Xs/LyzsMhx3LVAbN4z8qKyvvuf7660dkZGQARFzd0dFh3HnnnYPNYphoKAbi902EkNk2QBjCAAFdhy9Ca2ur89Zbb21funQpnMAkJvzIkSOREQ9e4o5x48bRK6+8En87du/eTX/1q18Fscnu37//eCnlSXBm3L59+4fHHXecG5qC66+/fpLL5foGXjr85vV6/1VWVoZMdNvfeuutpmOOOWaUw+GA0xIQN2hOwfzFNE17HhoIIUSmEALOgrmU0n+vWLHin+Xl5TABbI90IowWvWVimB0MBmFiWOhwOC6Dc6Ou62uEEB7O+eter3cbns/lcn2XMfYZ1M5KqS3wdQDfuaZpC998883rZ8yYcTKlFIAG6tAvbd++/YETTzwRtsZjlVIfUEqnM8ZwWnht2bJlvU0MdMgAhMWLFyPN8QOmad7MGMOpH05zz2uadtPOnTtvmjRpEhZp+MC0cM4vglkJvAeLFy8uVEplMMY+VUqdvXz58sUIqSsvL4ePgImTGrLbKaWwuUBDwOBsyhg7nTEGkqKfG4bxN0rp1UqpX0gpoe2Cf8oiJL8pKyv7rmEYL65cuTIaIEyxPOajnRDD0w5zO6YPAhzX6uvrH+Ocz9I0bY7P50OET2eZPXv2kRbzY0zmvngrt2EYL23cuPHRyN/dbvdXOOebDcNY3NjYiM2uu9Kdk+KlVrrnA7QLbrf7cM75B6FQaEFTU9NBcxwhlqFQ6OuUUiRASmhvZ4wFDcN4obm5GbI+4PrZs2cfM3LkyO2GYXyzvr4+3vsEEwPSZHdqkZIpMC3hwAOfAmiUOOcIXf0MZikhxIWEEJhKAUJfopS+h1BMjJuUEprOORUVFfDJAonU5pUrV1bv27fvNPgfWJqq7cuWLft1WVnZt03TfH/q1Kmv7Ny584bt27ff0hOtSjLPMQSvOYBJEQMGm1pPi82k2FOJ/e96m2o5htwuu+yykePHj4em4DNKKRwoa4QQZ1RWVl63aNGiBYyxr1FKd0gp4VgZEELAHwIbCnwiHuec5wkhEJGAE9E3oLkApzk2N2gZTNN8zOVyfWia5lXIBYDNCNrE5cuXJ1qc443yIQMQlixZchucDWGy0jTtwVAoBFm/6HA4FkDdu3jx4rMQIy+EeMPhcLxlmuZllFI4lG1WSl2i6/pS0zR/yhibirA/TdPuwzUgsKGUPk8pnSalhKc/xjOTUnr80qVLn1y8ePE5yMTHGDsb404p/QccbuHsaJrm65qmvQdzhKZpK6NMDLDZ49QNO3m8zQ8JnWDyOuj3nJycEznnG6SUjbt27bogrE6HaYFSekIi3oDoCQNCqObmZoQcdpZZs2aNczqdoJw+1jTNM5qamhKR+GDOA9TESvecDe1MtKYEWoJAIADtW7Pf77+gP53ucnJyznE6nc8Gg8EvNzY2YkOOVXoMEBYvXgw/EeQpwPuK5EZnCyH+DLOMEAJRKtA6BTRNg2/B/kAggHccbKD1SqkVGRkZv6+oqLglEAisv+OOO+r27NnzKcwVOCAQQqa5XK6nOzo6nqCUArzBRPMlKeXnmqbd3kuzY+92hPS7ywYIccZkyIQ5pt+c6nuPYHN8/fXX2fjx48W4ceP4jh07Tl65cuXLXq8Xvga7ER4HB81XXnnlCJfLBZXl/lAoNAl+GHBsW758OTKmHR8KhXZEeraDDGr16tWwXSuv13tSIBDoXJBdLtdkr9f7Zi97fsgAhF7KJ9W3hTWeydSLTQJAHLbUWPkLUAdO5ZgHMQFETk4Own3vArCEpqSurg6q54Qn7QSdY6WlpePb2tqe1nX9DNM0f9DQ0PBUEg8Eh2JoLWJlTkTE0AexCKHga8AYuy8YDJ7Z3Nzc5f8Dc9snn3xyChJqJZtaGKAIocXR5gWEao4aNarWNM2s3bt3nxntmxDxbOg/gFsnmVoyZdGiRbMZY4crpU74nwtSpymkTUr5D8751IqKit+Wl5fDDAUN1jSELVNK54JoizHm2Lt3b+Dee+9Fno8tt91222OffvrpPx0Ox+GMsWvgp7V169b/QiPqcrkwroEdO3aIiRMnztq+ffumQ1yLYAMEGyAk84ra13QjARsgpO/0SOSkmDDdMza+rKwsOFIuF0K8K6VEfD9OrB9rmhaLnTGuNJRSOqUUjnAgJ/ohY2yCYRiXRVMvdyPORGGOj8dyYESKZ845NDpvNjQ0zA/XDyZFpRSYBaGZSBb0ACB80tjYiLa67snOzr7C4XCs7ujo+Hpzc7Ovm2cABwJ8QuJpGOLdCtMpXbJkCRwRYVbt/IyLAW5gEoo87Vv5L8L9wyECxEzgQoFfSudtCxYsYIc4AEj05toAwQYIieaI/XsCCQzHbI7IcAi1Lhg5h7KzVjIA4Xxkluwukx9AwogRI87jnMM5DyyiBNExCIBJ9u1QSmEjw0YFEwmchJHN8I76+npEfyRbJlkahFimiLi5GFB5Tk7OdzVNQyjgo4FA4PpkuQ8SdQxaiB07diB9MXj7GzZs2AAOle5Kj8McE/UBvyMUe8qUKea1117bATK08ePHI4orkzEG4jT4tpTpuv7hokWL/i2E2FVRUdFTgJJMN4bbNXY2RxsgDLc5PeDPg7CzAktl+vcBb71/Gvw+IQQZBuFMNpCUuKl+mkQAAe3BDg0H24QnaCQ9crlchZxzJDca0YvO4vS9T0q5rampqboX9wNgQOsRixUSjsJIWx2X1TI7O3uZw+G42TRNnPBXgq/g888/b8/Kykr47NF9bWlpcbhcLvBU/JhzfjUiUNra2s576aWX4DDYXUGoJvw+mnvx/HFvWbRo0WGEkMLKysrfIFcMIq0Qtm2loR5vmua1o0ePviIYDI5VSrUxxuCvclDeilT2aRjU1QUQrrfsV91l4Yr3vLaTYu9mgu2k2Du52Xf1vwT6nO65/7uYVAvfsnwQvtRNmCMcYeHcl7Q2wNqkk+pAnIt6vCFb9YD3ASChK0lSRP3w7Iejeaw8DZ2XWUyHF3LOfwnbvGmaO8FTYjnrJv084A5RSk3inIO11GEYxl8CgcDPt2zZkkzoIgAOKODj+YQk3Y/IC71e70ghBKJOEI3ww46OjmczMzNvePPNNxeecsopq9esWYO04tt/8IMfQNMCE0VPxrtXfRoGN3UBhL48iw0Qeic9GyD0Tm72Xf0vgeECEEYSQqCWx8k61qYcN8yx/0XcqxZ65YMQ1RLNyclB+O/ZjLE8zvkEmD96WmBiMU3zX5TSZ1tbW2tffvnlWFqNWNVCgwBa5E4ujFQV+CAYhvFLXddvNwwDjqWLpJTghVkLuvZVq1Z9tbW1FRTtF6WqzUOgHhsgxBlkO4rhEJj99iPGlcBwAQiHI2SNEAJ1fqwTIwAC8nuAongonCgRxQCTVqzEYuADgAY43dXm/eKDgJlcXl4OCnVoNY5etmzZwrKyssdB++5wOP5YVlaG3Bowl9kAIfmFzwYINkBIfrbYVx4yEhguACERkyIGFCr7nmSjHMxJANU8QE0s9Tx+62t67IF4NkQxzCCExKSv7ksH4KjocDgaCSE3LF++vLasrOz2ZcuWgaIZoZUvjxo16v1rr732/3bv3p158sknd1x88cXJaj360q2hfK8NEGyAMJTnr933fpLAcAEIiZwUsdnCdo+cC0NBgwATAza7rvwYEeOPMXs2DolSP02TXlWL/o+JowXpVYWRN4F2e+/evc+CKXbx4sVuZGW00jm/OnXq1PYrr7zy8fb29j2c8z/1ME15n/s2BCuwAYINEIbgtE2vLuMEegchBNSzsHkOh3IoAYSEYY5pNKA9zsWQRn0Pd6XHTIopeIZwzg04USZN8ZyCdod6FQdEMSDUB3aanhbbSbGnEvvf9baTYu/klm53DUcehOECEJDrYTnSTXcTxZCDdOfJhDmmwcTD5trJIhijL0jBDV+LyGyWadDlg7rQbz4ICR4W7UJLlO7ySacxO4AHAcQdeFl6WmyA0FOJ2QChdxJLz7uGI5PicAEIWJuQ1wMJmeL5GUyw1N09d+Uf+PmI1NRQ0ccir0JiKiSUSndTCTRu46y+DpQEITNka0VmxxsHqtFh0I7NpBhnEO0ohmEwuwfoEWyAMECC7kUz2BhAIxzrxI3qcBo/17Ldp/vGiv52Z2L4KSEENNDpHsUAZ0qQU3UlrerFuPb0ljDVMrLLItrDLslJYD0hZK6d7vlgYdkAIbkJZF9FiA0Q0ncWnEIIQe6BVbGSGFkA4YB0z0idjlN4NJEOvodTWxTHPwGt75o1awwkD1uwYIFMNulRLJEhSVkCz3poCQB6YhElXUIIiZmLIc2GBwyUZyDT4gD2C2OKPAz4ZwOE5AU/kRCSYQMEGyAkP2XsK6MlYAOE9J0TiXwQ0PNjLAfTThPDzTff/ENd1z9hjIFcqX3Hjh07p02bpkKh0A2EkEdA4ZuZmflhWVnZu16vd5phGN92uVzPBgKBr+i6jo37k46ODqlpGuWcI4vk4chAqGlag5TyGCklkjUhyVNnmnHDMPyrVq3aCgBiGMYllZWV93QjTnAgYL2OlSQKbSEjabqHbNoAIX3fl5g9swGCDRCG2JRNq+7aACGthuOAziQKc8TFXySEIJmPWrRo0ZGMsUcppQ8qpf6tlLpW07TLg8Eg1XX9+6ZpIo/CP3Vd/9HevXuvzcrKuoBzfgyl9EWl1InY9Dnnf5FS5iqlRlNKJymlPlNKGZRSXUrZDFBAKYXTJE6zRwohXnK5XB9KKcsZYyA62ksI+YrX630+hljhLwENQixKY+TNQCrndI/tB8iBw2DrAE4byAx5UkCU9KMBbHdYNGUDhMEBCEutsLik86IPi9k2/B7CBgjpO6aJAEI4/O3pBQsW0BNOOOGSUChU63Q6r0WsvpTyV7qu/900TbcQokXTtK/u3LnzgUmTJhVjo4c2QdO08YSQUdjYKaUjDMP4p6Zp/2WMjZVS5iBvgZQyxBj7yDTN3zPGzlZKbf/0009fnDRpkjcUClU4nc6fSildjLEmIYSLc36NlNJbWVn5tyjRdueDAGfMR7vxtzholLxeb+a+fftco0ePxqaNeZw5atSojwzD0Nrb28cuXbr0g8WLFx+jadp7MLngekQBWJ9dW7duNXqRLhk+ISdZAGmgZg7GGYya8EUZSN+HgXq+fm0nHkDApEmmIPIBKq9NyVwcw8sW7eNfonIEIQQv7jWJLrR+j3Y6SrYd3H4rIWRhkmg8sh0g1WMtlJ+om1dYNkOcGBIVUKsmkwglUT3276mXgA0QUi/TVNWIrJQVCcIckZ74r1Dxm6Z5A2OsRCn1sFJqB6X0Oku7AHMASIguVkqNgIlASllGKUU64UsppW1CiAzGWENLS4s/KysLfBhjOOevmKbZSYuslFLTp0+/9YMPPvg/KWUH7nU4HK8RQt4RQpwmhEBdwuFwtEgpd5umefzy5cuRdTGyIFkT1uVY6Z7hg/DbnjgplpeXXyql/JJS6ljO+eNSyo80TfublHKOlDJD07SAlBJpv18NBAL/cDqdlyil6pcvX/5MeXn5dbquP1dWVvZ2DwdrsMIcAeRgftnXw/4e8pfHAggYxIdgP0sibAb84NgkEwke7cBGdlVELCom++VINJZEO6DohPfr9iQABeyJP7Zsi+EBxob8zTj2u+hJgE0eSDOZ0KdbrPhj1AGwBFY2ZFRLBLAgs0SgBe0DdCDJyNmH/ExNTwEMR4CA/AS3Wx7+b6Sn2JPqFZICnUMIwTsay26PSnD63493saKi4vhAIHCqlBLggEkpp7hcrrdM02wBJTM0BthkKKXTlVLPmKbJHQ4HwMDfKaWjhBA7Kisr7166dGmeEGKMUuoTSulsQsgOpRTMGD+hlGYopY6glALwm1LKVzVNq5NSXsgY+0RKCY3DaZqm/dzr9UaHMyICACWWGQHrMNbgpKMxrrnmmnGZmZmVlFLkoghQSgs450uEEOgnTtufKqUOQ3pqXdfflFIuhOmkoqLip+Xl5cuVUk9UVFRsTWok/v9FSNaE03y0dqSH1fTocqyh4LoAvXNnNke7JCUBrG0sFkCAKgub+b+SPEUn1Rpsa1aO+XesG/By4nOnQ1CylSS4DhszvGThoPSXiGvxPNi4Y8UQ97ZpeHli0qEtlGJCCJD8oiRADK7HxMXCFQYisTQpR1mak4LedtK+r18lMBwBAp4py7KHx9tY+1WoKaoc7xcOFvHWFrxvAPXggJHXX3/9CJfLhQimAGMMAGG0lPJWSukuKeUIznmepmlrDcM4V9f1Zzo6OjSHw3G/tQZg3WE7d+5cOGXKlHOUUl+klEKrOpsxhhP/Rq/XizWILFy4MM/hcGzyer2dORXKyspmoY8VFRVYS2hZWdlKIcQdK1asiNYadpfuucdESQsXLjyVMXY6pRQHol2c86fhZCmE+JWU8i1KKQDWYwAOSqk1jLGLhBDvMsY6GGNfklI+2QuAMBg+CHYUQ+9eqAcJIafEAgjTLICAE3syKvBkmwcYKLFAAe4B8QfAwamEkP8kW0mC6zAZ8CLeRAjBhA8XqMKgVQCSTFWZRwi5gBDynQiAgM/RoTQAXAhBwkkEIVdYGLBwAbCAl3yxtYhBOwIzSmSBE9XdhBAbIKRq1FJbz3AECKmV0ODVVmoRJYHrINap+4B0zytXrhzd1tb2DSHEx5RSTUo5DSr3YDC4U9O0Exljp7a3tz+ZmZm5SghxBUCDpmlXcM43WNqAAk3TvEKIy4QQWznnWDuxAcP/4O3KysqtCIO86aabSqSUm1avXo31AABhJqW0glL6OcIohRDHBAKB4ttvv/2zKNElSvfcIxPDjTfeOC0jI2OVYRi/45x/Rim9g1J6gZTSzTlvDgaDRZzz4xhju0Oh0Hpd18/nnP/KMIyVjLFdiOroBUCAdvprKV6HE80wGyAkklDs3+MSJYUBApAl2LlSVcBXj+QoYQ1CGCDMtWx9qWgHTjBQiyIsKRogwMwA8odUFZgszksCIABooT8I8YFNFKQmIO2AGi8sawAGlOj4YBsgpGq0+qceGyD0j1xTUWuiMMcD0j2Dy2Dbtm1HhEKhDjQOADB+/PidbW1tABdg/9sfCAQmMcaCK1as+OSKK65wjB49+ijOeef1mqY5ccLeunUrnTJlijZ69OhpnHNhmiZVSoVwD7Q5VfmsAAAgAElEQVSFN91009hTTz11/ze/+c1O7YzX6x0JQqeMjIxgR0cH+jRh6tSp/43BiQCNK36PZc7tcbpnhGmapnkGY+wwPBul9L1gMPihpmknA9RQSo9SSmVQSo3PP//8ubFjx1a4XK5b29rajmaMPWaa5rm33HILDjU9KQAIM20ehJ6IbNCutQFCH0WfLEBACBR8CHBigInjaEIINBoACKD/fMwyMyA97Y6oPtkAoY+D1M+32wChnwXch+oTRTGgatjuh0okETZXqOhjhQjC3AmHyKR8EJDhUAjxbaUU1iP4GfybUgqN6B8RaWFlhUQI5x+klDANwwdDCCEe3bNnT+vUqVMfgSkVkQ49HB+8L3A4H8hoApianiOEwF/CplpOfsBsgJC8rGJemSxAgLPnryxAgFCkMDkLEodg0sJMgVMBzC3RJhAbIPRxkPr5dhsg9LOA+1B9IoCA0zicGMHTn9TG2oe+pOLW7kwMMJ8+kawvl9frdRiGcUZ7e/t7I0aMuNg0zTtdLhfWoJN279799tixY+fCWdMwjB3gfVBKbamsrGxOwUMMRi4GdBvaW2hs7GRNyQ9ijwAC1GCwneMfUCzMA7Chhx2AsFBiAPCvk640xkuXjIkBnrq4v1NtZ3kZIzwl3A5+AyJE26AehZ0vctCTNTHgGXB66AxDIoTg+VBQV5iNDJMKp3xch+/DfQqLOFmAgIUoHNUAuUBWkCPqR51Q8YUJUKIdqmyAkPyEHowrh2M2x3BcPN6xZCJ5BkPuybSZTJjjAVTLyVQ6iNd0BxAuJYT8JlmAEPUMYT+0yK9jfZeKRx8MJkU8Cyi3sdZvTsVDHCJ1xM3mGMsHAfHCkwgh8NpFlMBphBBMSsTJAnn+jhBytbVx32b9hgUmsiQDELDBw8HQa3lSX2mppBCRgLhgqIgACsL2OKjrQRISPgEkCxBg86+y/AfgZ7E6AgwgFBOONOBcQIjUzyz2L1wTaXNLFiBAVgiRgqkBbF6waUKWUG3CJ+ILhBCo6mCCiD7J2AAhvd9GADs4lsI0hGQ5w6HAqe9eQgiyIfY0jC2dnh8bKiiIESYcS0OAjeOr1js5FIAQ1iz0OdYpGNEYL8ZJa51OYwIzCVgfGwawUzhUgkkR7JU2k2Lygu8CCKDofMlynsPtsQACTusAADfD8dZyMim38q0jjOcOCxQghhqhectisHolAxDQPmKwARBwsoa9CugPm/hKqz1wnsMO90dCCAAE1PbwqkVJFiDg2l9YHAbwFsZzQcWPGN2LrFBFOBeifmhF8D9UbJFqtmQBAkAMAALkir5DSwBNCRYt/H2cpVUAwrVNDMlPYPvK/pHAcEn3DK0g6Inf70YTgjUmVvKj/pFs32pFxBMAaVjrGVkbDhl4znQPS0X/QVqUSuf3RFK1oxgSSSj2710AIfrneFEMYBfE5o3TxXIrPO8tK2oAG+uTFjkRQv3AJd4ZxhNRkgUI1xNCwDIGoAH7IE7wUPMDIOB0j9P2fRYYAFgB70C49AQgQAsBG+R/LcdBnDhwPzjRESKFxQXaDGgAQIhyfhSjYbIAAT4IR1ogAUAG2gksTPgM5xloFgCyYNqIZk+zNQi9m9z2Xb2XwHABCFiHKq33rpNzIKrgNI53+s/DwAcBBEAwMcRLbd372ZDaO6EFQXTcQGqmbIDQuzHsMUDACwe+AgAIaBxwAkdB+A5CF7dYAAHOQdjYewsQwNUNj1poD3Cyh1kB6jOcxIE8sZEDpNxJCAGZAyIBegMQcA82/lpLDQlqVWzU2JRxkgc/A0AJFhds4gAKiDgIl2QBwpmEEPyDvwFMDGARQ10gogIhDRZkmBugWXgmaixtgNC7yW3f1XsJDBeAkIyT4lACCNDiwj8kOtIJIz1UAMJgUC0DIGDdRWi5ne45+XWhxwABqnAwjeGED6SK2H7Y5HFCBmsYNmqEryD+GCfj3gIEvATQEKA+pD/FKQBAYI2ltcBmCySKDRebLUwkYX+HnmgQICo8A/wB8P8SCxjAXAJCJ2grwMGO9nDaADiK3MCTBQhwzIF2AKo12A8RWoR+os9QueHFhw0U8gLta2SxAULyE9q+MjUSOFQAAqQFMyI0iEPBBwFmSaxDsbQhx1uHs3RP9wyq5VOsA19qZmviWrDGYt/CIRYHQrskJ4EeAwRs3Di1wz8AqAwkQdXWS4ZJCxsYtAm51sYd7fWfrIkB3cciBQpU2AcRBgiTBZwiEcqDuFw4TcLGiE0W/gFhm1ZPAQImK4g7AD6+ZSFN9B+sZPgbjmcwrWDzBqNhpLNTsgAhPByQHwhX4GSJFxq2RExeaA+iZRW+xwYIyU1m+6rUSWC4AIRkiJKGkpMiDhJYL2L5TAwVJ0UAHET+RDuwp272xq4JcgMIHArhrP0ti2Tr7zFASLbieNf1BCAkaisyb0Ek+u8pQEjUTne/9xQgoM8gIYG5BNTJ4FqH9gKOj/EIR2yA0JcR6v97Afrg7Q9HV6gwh0MZLgABAB9RSHAQjueDYIc5DuyMhYkB5lUc/gaq4B2Fzxw0wDgI2iU5CXQBBIQtQrXdmUwkThRDclV2f1UqAUK8ltIZIKDP0E7gJABfByBpmEpgSoH2JVaxAUIqZl7/1TEceRCGC0CAfw/8lcBaGsuEcADVcv9NkZTVDO0jNrvoHA1oACysT/WSByFlHUyiosEKc7R9EJIYnKhLugACnOM2WnkSbICQvCB7qkFAzXC0xAIM/gN488LcAI/eWI5HuN4GCMmPx2BcORyZFIcLQAD98AmWf1Q8HwOEDqYyIV1/zkH4IAAgxFLPw78Jpsp0V6HjAAeNDvzGBqrYUQy9k3SPmBR718SBdx0KGgSoNVNJxoHoCThq2tkcUzEDU1+HDRBSL9NU1ZgMk+IhSbWcKgH3oh5obeCoGC8Fdy+qTHiLDRASiijmBTCFz+wu3TM8+VOFroHg4dAI5sXobI54kVOV7hko+wUrAgHxzeECNSNSLaeCTzxcJ2zPcHBEOBUK5AVOBoRghqmVezc0//8uRIggA6YNEPoqyf653wYI/SPXVNSaTJgjHK3/OkSiGCZbJslY/kp9oVpOhayTrQPgAD4I0FgPVAFAgMYCPkIwxdglOQnAHD4hFkDARAQBUjgFcXLVdX8VAAJYvkCoFAYDCP8DFwBIg1KpGoMaK3wyCPcKNJtQ16eyHXjGgmI6rDGAR/RDPQQH4HqA/0F3gAIhpKCTtkv6ScAGCOk3JuEeJQIIuA4aP5CyIfoKYdw4ECEMGcyE+AwaeZCcIYoJKnyERYLFFZ/x7uJ3/AYgj/twMsZnkKDBFIC1DT4DCG/G93BMRigiPofNimGGVWxkWHs/tMKgQdQGXyUcevAZ7eC36PBxPAfWO0Q3YD1H6DnMl1ifcDBCcrjwZ5DPoT5cg89hHxo8L77fZkVY4Xr4RsFEg35BRlg/UT+uAVcN1nTUDy0n1nYc/PA9qOQR7o57w98jaivMHIvro9Pa9+cswtqKNRpjjGg4u/RAArEAAhgGEf+PmNFUUnfi5QEHd2SdmHSwy6e6gOgoklMAExcvQaoL/AdA0dzbAm0DeCUGUuXW277a9x0sARsgpO+sSBTmGO55OLlcZChcbz9j08SGFD6IhD/je9QZ/T36gGuwJoaTuuEafMa/yM+4prsDDp4D9+A6tIUS+RnABNegRH5O5hps+gAQ0ff2ps7B4JzAoRGyixXNkr4zOA16FgsggF8AjIFgTsTEsEv/SQDJr5AUKh4PQv+1bNecCgnYACEVUuyfOoottlf8b69j/SPjoVArwBLMzdB8gNPGLj2QQCyAADsRAALUMunO7d2DR027SyH7X1kaBDtPedoNT1IdsgFCUmIalItwMsfmYIODQRF/2jRqUy33YShiAQSokpD443LL1taH6u1bu5EAJi5SSCOnhb2IDc2pMhwBAuzyDxBCwM4H2/NQLQingyMxzHipNJUOVXkcqv22oxj6MPKxAAK+e8TKezBUUqH2QQSDdiucQEFbjciHVDpPDtoDHYIND0eAMNryCwJx2lDWbCXrg3AITttD6pFtgNC74UZkzHGxAAKqQ/IipB7+Z+/qtu9KQgJwzgwvYklcbl+ShhIYjgAhDcXcqy4lE8XQq4rtm4aUBAAQkH0YbIqp5KgZUkLoRWdBhz03HkBArOpZVhhiL+oe8FsQdoTIhdOt0KLB8JTt6UNDxlDh/rGnN9rXp40EbICQNkNxUEcAEMDBHy8XQ/r23O5ZKiWAPS6cTuCNVFY8zOuKy6QYfu6LreyD6S4HgAFMgD8QQn5sAYV07zP6h3hmRDGke4rWoSDLweqjDRAGS/KJ24V27nZrbYCz9dciCJHAZbCFEDKbEAI+Fpj44HsFAh9EcSHLK95LODqCuwBEO3kRYYJYc0C6Bl4E/AuHN8IsAz6EWdZ32JzQ1marH6B2RltwnkT7qB9rF9rCteBeQAr7OVa/wvXi/rEW2MH9uA9pqsE3MDeCRwX1YGFHxlskggu3hYMIIqXQL/g7RfYL6eyRtyIcionTNub1lyPCLJEtF7wI2VGhkjhlgu8AvA7hfmETxoENzxA2naJtyBZcMaDAxvdh1T/4IkA4Fw7pxLoIFj+MDXI3hAvkDZ4I8FWErwVpFP5BBihhvh3I4GQrFwe+QxsYw1QR/yWefUP/ioQAYSg9IgiYfm0tCOBwsIstgYGQgA0QBkLKvWsDmyRYEldYZGRgWA0XsOqBnRSbHgiPwhsxNkBwswC4hzch5E0BERH4TkBqhILfsIFeRQj5WQQYWEwIqbUAQbgthNdBs4lNHsADbWGDBkMq4vOfi/ju79Zmh//RDxRci35hI4dTc/g7pKJfYpmBwxspNnIQIyGsD+Gd4bYuscAE+hZ+LpAlQUbY5E+NqBeaYySUezDiuypCyA8sYiT4qKBgswU4uIMQAjbccFs3Wnw3AEDh7yA7bNjPWI6j4e8vsAieaiyQg2cFSR/6A3I7ECyh4Hp8h/w3CFUMa4ix5sOhNtKZFjIAiACJHcYtnOYZz2MTziX/Lg0rgIAXBJMELwVQtV1sCQyEBIZjNscwYc9w8PxHenUwlYI0DdEZ4Y0FWgFoHC+0tKT4HhqERy3WQmySYQ0CNlIAjcusUz3mFWSDa2EmxMYV3vCwqKI9bKbhjRysiogKg8kDACMMRp6wNAnoV5goCUyJ+P4iqx/ha39r3QtQE24L6x1YVmFXxzxEAeEawA02xjB7IbQN66wNHRt5WFsBhkeEs+M7AIJwWzB5QqsyP6ItMCaiDoAhgBoUOLAifTI0KwA+YQ0CQAi0G3iGMBgB4yQ2aFBbA8CEtRUADNAYhOnqMfewweN5MTZIQhUGCJA3AAnAUrheACloBqA5Dhf0C5Er6D9YG8NaFPTf9qlLflUcVgABjw3ECrWWrbJPfhLYV/ZNAthUsPBArXpl36pKm7vBwY7oGiy6SLBmF1sCtgQOPQkcABCgcoONbigXqNW+MZQfwO77kJQAiMVwSomVhncoPlA43TPWg4FMyzsUZWX32ZbAcJVAF0CAigj2JISBDOVyp0VbPJSfwe67LYHBlkAYIEB9bqtkB3s07PZtCQyOBLoAwuA038NWTzvtNH3EiBGHK6WyNE2DreqAsmXLlp/NnDkTNrGDimEYLVlZWR9VVVUN2VNeaWmpc//+/eMppR0bN26El7BdbAn0hwRsgNAfUrXrtCUwtCQwdABCdnb2RM75E4yx2ZxznVJ6AEDAnx988AGdPn26UupACgT8LYQwTdPcopQ6v6mpCU5DQ6rk5uaerpR6jHOOFK37pZR3Ukrv8Pv9tr/FkBrJIdFZGyAMiWGyO2lLoF8lMDQAQnFx8bhgMPg8pfSLUsqHlVLvM8YO0iB0IyoghqmU0h8ppXYbhlGwadOmcC72fpVwXyuH1iQrK+sXnPNrlFJ7TdP8LWPsdM55qZRyrVLqer/fjzzsdrElkCoJ2AAhVZK067ElMHQlMDQAQnZ29tUOh8MbCoW+3tTU1NBbec+dO3emw+GollKu9Pv9K3tbz0Ddl5+ff4xSajVj7CzTNNe1t7df+tJLL31y2mmnZWZmZl6s6/pCKeU+KeW1kydPfuGpp54aDmFpAyXeVLUDoPoFi4RmSIDOJB7cBghJCMm+xJbAMJdAF0AAq1eYTCLtnjk/P/85IYTIy8v7htfr7UtSI5qTk/OorutH19XVIZQrXQvLzs7O0zTtSUrpaCHE1Q0NDYjrPaDMnDnzyyNGjHiSMXasaZq/JISU+f3+oZxcJ13Ho7t+DUceBBsgDMWZaPfZlkBqJdAFEJDDAOFMaRnHXVhY+LdQKHR/Y2MjMkz2qWRnZ1/ocDiuraurCzOa9am+VN9smRTuZIz9UEoJ9rEfud3uV+IBo5kzZ052Op3luq5fLIRoppReWl9fvzXV/bLriysBGyDYk8OWgC2B4SiBA3gQQLeJ/O9pVzwezz9CodCtfr8f1KJ9Km63+9uc87K6ujrQfqZVQie32/0VSuldjLGZQojfhUKhRc3NzWAV67ZY0R3f0TStErSsUsrrP/30079s27YtlOhe+/c+S2A4Ui3bGoQ+Twu7AlsCQ14CYOmcHS+bY9o8nQUQbvP7/b9bsGAB//TTT89gjBUppRKaG5RSlDG2YcKECS/CRp+bm4uNdHE6AQS3262ZpvkdXdfv4JxroVDo6sbGRlCz9qjMmjVrhtPpfIhzPts0zQcDgcANW7ZsAcWsXfpPAjZA6D/Z2jXbErAlMHgSQM6LE4cUQJg7dy6Se5zLOX8mmUgGITr99uBvsAkminQDCOA2aG9vv0fTtB9IKf/e0dHxvRdffBFc7r3SbsycOXOUw+G4Stf1MqTqbmtry7NBQr++YTZA6Ffx2pXbErAlMEgSQA6PTj4BbEaIDnAPUke6bTZSg5CdnX2HEOKR5uZmZGFLqsyaNWucpmnLm5qaLks3gJCTkzNb0zS/lHI15/zOurq63Uk9VIKLcnJyztF1/Z5QKFQ7ZcqUn9oRDqmQasw6bIDQb6K1K7YlYEtgsCUwpABCTk7OYpgNOOdPSSmT4kJgjOUqpaY1NDSUpxtAyMvLWy2l/EZra+uXXn75ZWRiS1lxu90XM8aWI8qhtrYW2dTsknoJ2AAh9TK1a7QlYEsgTSQwpACCxQGwWNM0pP1Mqkgp3/n888+Xvfbaa21pCBD+KKWc2NDQkJ/Uw/Tgotzc3CKXy/WnYDB4nN/vR2pXu6ReAjZASL1M7RptCdgSSBMJDCmA0FeZpRtAyM3N/ROldILf7w/neScwOzDGctxu9+pkeR/mzJkzXdO0XErpE2H6ZRsg9HW2JHX/cAQI3yGEPG5ldx1y2Rzh9JuRkcGHct6VpGZeml20YMECx65du47XNE03TfNtv9/fmmZdtLvTCwkMKYAAJzyXy3UxIeRMSmlSjnxw/gsGg/fCWW8IAATqdruf0jTt3FAolNPY2NicaEyxIAohHtd1/VtSyny/34/4VWIDhESSS8nvwxEgfJEQglDHewghO1MipQGqpLi4OI9SuooQ4pRSPsA5f9gGCv0v/Pz8/DM0TbuNEILwca6Uek9K6RVCPD8U8sVgDc3KyhpjmmaLPV+65stXCCFjhxRAyMnJuQnZHDnnD4ZCITBAdlsYYwARpZTS8U1NTcuGAEDAxn4RY2yREAK+Ft/Mzc19NZ4m4eyzz87ct2/fQsYYFnRDCJHf1NT0sQ0QEs2MlP0+HAFCyoQzUBV5vV62efPmH3PO70b4s1KqnTE23jCM32iadkk6L/o4ee/Zs+fwUCjU0tTUBFNgUgefgZJtd+2Ag2XMmDE/4pzfTinlUsrnpJSKc/51xpgeCoXu1DTN6/P52tKhv7H6gGcYP358uVLqEkrpv6SUF9bW1n6Qrv0dwH5tJITMGWoA4U4hxP2bNm16K1lBWVqHWxoaGi4fCgABi93atWtdWVlZ03EKIoS8YhjGws2bN3dEPnNeXt4JUsoHlVJ1Qog7MjIyWKQzoq1BSHaG9Ok6GyD0SXx9v9ntdo90Op23cM5/qpR6VSn1HUppm1LqHs75N4QQDQ6H47vPPfdc2mlD8vPzD9N1/c8Oh+NkIUS7aZqLfT7fQ4SQhBwvfZdc32ooKCiYTCmFlma+lPI/pmn+pL6+Hqy8tKCgYA7n/BFK6bFSyr9JKS+qq6vb1rcWU3/3OeeckxUIBJ7mnOdZSQCnE0LeV0p9q6qq6tXUtzikajyASXGohDn+RCk1nzH2VyDWROKmFMSCEoO/pamp6b6hABAin8ntdo8hhFxPCDmVUnqzEGI0IQQaglmEkJ9TSisaGhrWxpKDDRASzY6U/G4DhJSIsXeVeDye05D2nHOeLaX8q1Lq59XV1Z0atNLS0lFKqcWc8+uklG9KKW+srq5+oXctpf6u4uLiLzLGHqeUHiOlvIFSmk8p/boQ4pbW1tY7N23a1JL6VlNSIy0pKckVQgCAHSelfCIUCi32+/0fRtYOAME5r2SMfUdK2Wqa5k0dHR1PRh90UtKjXlRSXFx8CmPsMcbYCYZh3B4KhX6p63qRruvIa2MahnHBnDlz6pP1A+tFF9L9lqEHEHC6rqmpme1wOCYlK11K6WcbNmyAukQONYAQfsacnJx8xtifOOfjhBB7hBCvcs6/0110gg0Qkp0hfbrOBgh9El/vbgZwdrlcNzLGLldKOcGN0tLScl305gPbsqZplzqdzhVKKfjq/BVU5DU1NQARg6LKh0p79OjR2Q6H40nOudHe3v7d+vr6BpCmmaa5FLlihBA1hmH8qK6uLq20HjBpdnR0XMk5X4JNXyl13dixY3/fHc9KXl7edx0OBzbdCVJKbMjXVVdX7+ndyPf9LrDx7t27t1jTtEcZYyMBKtetW/douOaioqJcTdP+TAhBorzLW1paHk8XUNP3p+9RDUMPIPTo8WJcPFQBAtR2OTk5f7Vse284HI6vJrKr2gChr7MlqfttgJCUmFJz0UknneQ48sgjz1FK3coYO1IIsY9S+uOsrKxnu9mk6Lx5806RUj7FOT9WKbXTMIzVLpfr/rVr16aUeyTRUxYXF49TSt3rcDjOMwzjPdM0z6mrq9sevg+AxuFwwKaPDbVFSlk+atSoB9OB6Cw7O3uqy+WCA/WsUCi0SQjxA7/f/59Ez2ytXYdrmvaEruuzpJTvBoPBrzc2Nr6RxL0pvQQAJxAIQFPwfSEEzFDzZ8+e/VK0lqCoqOg4Smm1rutHGIaxIRQKfeMQjMqwAUJKZ18vKosV5hivGiRzYoy9AL8Dv9/vTdScDRASSSglv+vwESGE/JMQ8v2U1Dj4lRxPCDmbEPJbQsiuwe8OIR6P52hCyPmMse8zxk5USrUopf6KjT5yg+2ur/PmzZsihPg5MqUyxqbBbq6UekEp9XAwGHyrP1OlQ92OKCPG2FWEELT9m0Ag4PX7/Z/E6nNBQUEhTt14ViHEBtM0vZ9//vmWl19+2Rjo8YDGY9SoUWc7HI7blVJjhRCrRowYcc9zzz3XIxMIOGzGjRt3KWPsZkIIQiErOee/HggHxuLi4qlKqfOgTaKUnmQYRq0Q4pru/CKsMauklF5AKf3UNM3HlVKP1tTUvD3QYzBI7dkAYZAE39VsTwACbsrJyblPCHFjMvZJGyAMyOjCyRepw7FYvjsgLfZ/I2nDg2At0otgx6aU4vT9oRBiHSHk/urq6td6YyYoLCycruv6BVLKH2qadqRSSiil6gkhi6uqqgD0UuIgCFX2vn37pjPGzqOUwkP+aKXUa0IIePXH9BuKHNrS0tKJlNJb4JcgpcxSSq0nhNwVCAReHyjiM0vjAf+IG5VS/woGg1c0NDQg82/MUlBQMF4pNWbDhg3/jjc2brf7TISf6rp+ghDi2WAwiOR08F9Iqcln1qxZGZmZmUdrmvY9Sun3OOdHSCk/MAzjIdM0f5msRqCwsPAHDodjMSHkKEIItA5/MU3zPofD8e4LL7zwef+/joPWQhdAwMK2w0r3nNJBSsWjReZi6Gt9Q9jE0Pnobrf7fkLITX6/f28iWdgAIZGE7N/jSCAt0j1b0QmvaZp2tBDiY0rp4r179z4RaQ/GJjB27Nik/JHa29v3Rb43FqFSjpQSTo6ngFdFKTVj3bp1XSr/3s6Q/Pz8Iznn9+q6XkAphY8ENsxrpk+fXrVmzZoeaQGgPYGDMqX0J5qmEcMwPjRNc2VdXd19qd5Uo5/X4/HUMMYKQqHQY8Fg8KruDiZut3sK5xzO7lNN0/xhQ0PDX+PJD+Bpz549d3POL8PeEwqFvpjMmpbseAAEMsYe5JwXIamfYRj7lFLLEHXRS40F83g851BKofU4CXPFNM13CCHLq6urQSqWdvtmsrLq5rougPBfQghUXWcSQjrTH6ZTSRYgwD65bdu2UHd9jwMQkLUqJaeGnsqtpxoEGyD0VML29b2QQFoAhMLCwjMzMzObcWo1TfPJ6ERmc+fOHZuRkfEkY+xt5Gfp7jkRzaSUwsLura6uPuAEjFC3jo6OPF3XnxFCXFtdXX1XL2TWdYvH4zmCMeanlB6GU78Q4k6l1D+6y4cyZ86crHHjxol4PhGWY+M0TdO+zjm/hBByrBDidp/Pt6i/1q78/PwFmqb9XghxvRDi3u4IjwoKCopwcOGcI0UwNuMHpZT1DoejMp6vlMWhcJGmafebprmkrq6uoi9yD99bWFj4JZfLVSOlHIsQS9M072SMbfT5fDCX9WkjR2SMEOJkSulVlFJE08Hx9erq6moc3IZb6QIIcBYxLWrVYLo9ZSKA4PF4RoRCIdi1EEu8tb29vTJe4qMIgAC2uBEWYxzISZ4doOeGmgoq3DWEkN02QBggqdvN9EQC6QIQ5mdkZKxtb2//Sl1dHcwJB5Ti4uLLCSGfV1dX/yGZhyssLJzLOb+murr6G9HXFxUVTeOcf6iUurm6uhpMjL0uxcXF3+ScrwmFQiVjx459KZGDIcLtlFIrKSFVoaAAACAASURBVKUhxti1VVVV3ZqqwOsyZsyYX1BKrzRN8/D+SMRmnfD/qOv6F3bt2jUzju8Dzc/P/4JSCk6VX4Hps76+fisE53a74ZR4D0irpJS3T5gwAXI46PAGYJSRkYF7ttXW1pb0WugRN5aWlpYTQm42TfO7mqatS+TM3Zs2EU3X3Nz8VUppp/Zg//79XxuGkQ5dAGELIWScZUsdUK/eZAYnAUCg2dnZcCTZ3djYeDsyGCqlvtzQ0HBFLGQNgKDr+sLa2trzCSGPWVqTmwghWGSSyg6ZTJ+7ueYYQsgGQgheigvz8vKuV0pNiszF0F398EGAk08y6jjbxNDHkTp0b08LgFBSUnK6y+Xa0tbWdkZNTc3fo4ejtLR0mVJq0/r166uTGaqioqKvUUoX+Xy+86KvLygo+ILT6XzHNM2rfD7fr5KpL941xcXF39V1feXzzz8P0p24BQyKLS0t84UQ9ymlcAIfzxi7n1L6g1GjRr3cHbDweDwzHQ5Hs2EYE/sjZBAhl4ZhNDHGdvl8vvmRD4F+f/bZZ0dzzhcopS5TSv163759qwEi3G63S9M0pwVaaGFh4f9BDQ8nXjwn5zxak0KLiopAbrWrtrYWMuhzKSkpAUV4USAQOCXS8RRgxOVyzdF1HZFHPSrQUAWDwS3RTqXz5s17UAjhcTqdJ/fUabNHHRici7sAgo8QMsPi0d4/OH2J32p3AAFOMaZpVjudzlzYljBBTdP0M8YWNDY2wnRyQAFAQAzvhg0bniSELLF+rCOE/IsQAlNDf5csQshFViN/nTNnDtM0bXJDQ8PsZNRfOTk5v0cccTzv58jOZ2dnF2dmZj5hmuZx0erZ/n7IQ6j+MBPpcHrktAAIxcXFx2ZkZGxvb28v9vl8NdECLi0tXaqUak4FQCgsLDzR5XJtDYVCF/h8vt/3ZTCLi4tLNE17qq2tbWKsyAgrlHG2Umoh3v1QKPSturq6Ts/4oqKiYzVNux0cA/CNiAWMcF1JScl3lFL3O53Ow/tjY7I4GTZRSndGAgTL8Q/kTpMJIc8xxn4TVt1DC6OUWgteCjhl1tbWgnumk7DKMIxszvn3TNM8LRQKndfU1BRmVaRY36WUn6YKIJSWllZKKZGv5/hI8OTxeB7inHcgAqYX4wvGPTfn/JyqqqquyJ6SkpJnlVJfGDVq1BlPPfXUAUy3vWgj3W7pAghQk3ydEILTbVqENUVKqjuAkJOTcwQhBKfqcy0bGTQKfwSD2saNGw9yNrJMDIvq6urgeY5kFEgwgud/ZIBGB6aN5wkhsLc9mZ+f/wOoF4UQ2Y2NjQApcQucgBhjb0gpH/b7/WBXjFsss8v9UspTDcMYjuqvARquhM182Zo/11iaoYQ3DIEL0gUgTNV1/cNgMHhlTU3Nr+MBBNM0d2ia9jAhJKb/kVJKZ4yVmaa5J54GAdqFESNG/C0QCOSvX7++M9lZb4vH45mtadoG2Kqrq6vhyNZVYBYBFTRjDARI8E2YQSmtXb9+fRefAA45DocD6vZvK6UORyjg+vXrn4isp6Sk5Bal1DzG2Bn9oUKPBxDy8vLAPrg4EAj8KOywWFhYOFpKCQe+nxNC7iWEvKSUgtYAieae2LBhAxzgYftneXl5MI0YGzZswLqLknKAUFxcfB0hZLVS6iifz9d5SMR6CLOuz+f7Xg/Htcs/rbi4+BGl1GM+nw900sTK/4HoF/LZZ58VDkYIag+fpaeXdwGEW0HbSwg5jhByAF1mT2vsj+u7AwiwxzmdTh9jrARqd6iROOe+YDB47pYtWw5iIYvhpIg49lHwB+iPvseoM5MQ4iKEdDKJWZ6/rwghCJKENDY21sZzOsrOzp7ocDhw7W/8fj/CbmIVOmvWrGlOp/Mx0M8ahnFVY2Mj8jnYpX8kAHv204SQcwfQj6V/nuT/15oWAAEbD2PsLc75E1VVVQBgB5SwBuHMM8+saW5uznA6nTEd0ILBIA2FQkFd17/SDUBYkJmZ+Sd401dVVfUpZwAolCmlrymliqurq/E+d5ajjjrKNWPGjLtaWlpuCG+uJSUlF5qmuSFOciCo6EdRSh8ZM2bM9yNPqPPmzXsGyermzp379f6gAo4HEIqLi08VQvyitrb2W9h0pZTfIoTcoJR6xzCMy8JaWzggjhs3Dt9/TykFbe290GIWFRVdJaUcXVdXt8wSS8oBQklJybfhXBkMBmeEOQswlyilv6ypqbkwyZcH+SRO5JzP8vl8AJ/Q2jxgmuYTtbW1nQASpEumaW4xTXN7TU0NTNZ9coBMsl8DeVkXQLjBshPhdHsA4h3I3sRrK5GTYnZ29vcppbBfPUwp/ZZhGC81Nzf/JtaApVuYIxC02+0+khBSxTn/Ali+pJRL4jm8YKLv2LGjI160Rk5OzjxN0/BCciHETQ0NDTh5DUqERjrMnQHoA/xXVhBCziCEHGQnH4D2+6OJtAAIsHXv3bu32el0/uf555/HAhwTILS0tDRnZGTA0S9mBBZjjLlcrrcCgcBR8QCC5di2VAgxPXzq7K1gzznnHJgNtiul4N3eReFrUfw+B4pfIQTnnAsppYdzDvv8rshIDPyGd9g0TUkp/eno0aPPinDyAzPkRtM0X/f5fFClp7x0o0FA/ogn6urqvlJYWFgqhFgM7a0QYneMKAesbSNAToSoi9ra2osLCgpWW9eGHUFTDhDmzZs3U9O0jaFQ6LT169d3Orf2FCAUFxdnU0p/Y5rm/Nra2k7Gx2iAAPO2w+F4HfTdPp8P4ZrDrXQBhAVQBRFC8gghcUkwBuvpEwEEvHgfffTRuQ6Ho5AQ0uD3+/8YD82lIUDoFOvpp58+ZeTIkWWU0kuVUg1wlmpqajrIczveGCBmHMBC1/VLlFJvCyGu6o7QZLDGchi2i9MFTlEnE0KSoZ0dCiJIC4AA8FxUVPSMruvTdu7cOTtahRvWICil4PWPE2kglnAppQ7TNO+hlJrxAMK8efMeEULAYfD4vkYF4PQ8ZcqUZtM011VXV4f9nDq75vF4quFYyRgjAAQgXsDnyPK/r5hbCFGHhHQIl6yurv5p+BqEZZqm+bJhGA/X1NT0KeIi3mSMBxCQfZIQAjbXMzVNmyelPH/Dhg1Q28c9PRcUFGCzza2trV1eUFBwP2PsxZqaGjiIo6QcIIAmOTMz8/X29vZ5NTU18C/rFiCAjEvTtAm4TtM0GQgEcjjnFymlLohkTYwGCCUlJQCcb0spERkDx8jhVn7XmSTQygwIexFoQO9Ot6dMBBB60t90BQh4BiwsI0eO/D7nHPY7aACuaW1tfTqRbSsnJ+dLjLF7GWOnCSGe1nX9ir4ucj2R6SF8LVb2Fwkh8FY/AfHfw0QW6QIQsKGuYIxdRCk9oaqq6gAH6lQ5KcKWvGXLlnrTNEfs2bNnVqL3LZkxnj9//h+EECPOPPPM8yJNAB6PB3ZwnPq7U0fT4uLixdXV1RXYqMFD4PP5KsPtnnXWWYcJIbYJIUp9Ph/W7ZSXeAABWp09e/bUapr2rVAodBKoo7Ozs8/tzsxRVFR0jpRySl1d3ZrCwsI/UkrXhDfu/gAIoNS2TB431NbWgkwqLkCwwMHvANTCHEDQROGgFq1JigYICJvNyMioDQaDX/P5fK+nfBAGv0KY3h0ACIjNBwqHFiHt+OT7ASDASfFL6WozOvPMM49yuVzPaJr2ZSHEQ0qpa+PQgiKBE8hMfiulBMPaDzdt2gTtiV0GRgKHWyY5hNnByXe4lLQBCGedddYZpmm+KKX8cvQinCqAgBwBEydOfBeau+rqajx7n0txcfFyTdOuJIQcGUnHW1JScrdpmmXdAXhoRPfv318O7YPH45mhlDq9pqYGjtSdBeGfDoej2jCMqf3hoIg24gEE/JaXl9cZAaZpWoZpmrcqpUq7I1EqKiq6jlL6Epz7CgoK6pRSP9uwYUOY6yHlGgT4RlBK3+Sc/2ndunVwWIwJEEAjLaWEWfC6mpqauKyPEXI/wAehuLj4EofDcUtLS8sRydI293liDUIFAAhwnIMHfZvl2Z9WNuvCwsJGwzCeb2hoWN1X+eTm5l6jadr36+rqTutrXf15P1jiNE37Bef8ainlv6SUVzY0NGwOt4l0t1JKZCX7JtjClFIX+/3+t9IV9PSnrAax7lmWpzYcfA/ysh/EfvW16bQBCAsWLMjo6Oj4MBQKlfl8PnjId5VUAQQ43jHGXjJNs7SmpgYh330uRUVF38nIyHikvb39hEgHRI/Hg+ilZp/PVxWvkUiAUFRUhERBH/l8PnCndJbi4uKrNE27+pNPPjk+FdqOWP3oDiDk5+eDvXGz0+n8eygUWss5n9cdfXFeXt5DlNIlOTk5Hzc1NfkRthrhY5VygABN7Pjx4xs55y1VVVWeWAABphJN09YopR4YM2bMC4nIrCxgdgBAKCoqusvhcJy/Z8+e44YhSVLXtABAwL+/wERGCIGjYlrZUnNzcx9kjJ0JJN2XjGuI4XU6nSD/+PeGDRu+2edVoJ8rwEKxa9cuJHoBEdQk0zQXSyk3cs6nMcYqkJUM5CPI9JZM8qZ+7u6hWP13rYyHeG+6FvBhIIi0AQiQ5fz5898SQlSvX78eJ/KEAAE8A5qmjYg+pccjSvJ4PJc6HI6Vra2tRyZDQJbM+JaWlsJG3xgKhU6vrq5GAqjOAuIgxhg4W2DOjVnCAGHWrFlLm5ubH0HK50iQUVRU9JDD4fhaZmbmaclsbMn0N/qa7gCCx+M5TUpZavkUgLNhTX19PQ4nBxXQ30+bNu2xsWPHXvDZZ5+dzDn/WW1tLRgwwyXlAMHazO9gjM3fuXPnyQBR0U6KHo/nXCllZm1tbbcsnOC0EEK8D0fFGD4IzzDGjt+5c+cp/QXUejN2qb4nzB6IcK2nCCEXEEL6RBSS6g7m5ubmcc7XCSHWSClXKqViOiN11y6lVAM1qa7rvwiFQmc3NTUlxb6W6mfpTX1z5syZrmnag5qmFSEcknNO4fUspfxJY2Pjc72p074nJRK4wwoPBqgeTilgwwDha4SQf6REUn2oZN68eTAx7F6/fv0BjH6xNAggV5JSwhEuS0pZFqkRiAcQSkpK7tB1/dy1a9eCByYloWpQX4PrQAjxf5GZG0FBrOv6UzU1NXO6aYuWlJSUg++EEPIM53x2pClh3rx5MC/srampwTilpL89AQgWWdLze/fuPTsrK+skzvm36+rqEAl3UF/y8/N/opQaVV9ff0d+fj6SYr1UU1MTyenQLwChoKAgz+FwYG38Cqiru4tiAKD0+/2IGjmo/8XFxaDABhnXc9EAYf78+a+apvludXU1DptppXXvw+t20K1hgICMaD+x6IdBbJE2BU5E9fX1UKuB/KJVKYW8ET0qFkBA3Oqq1tbWiqGG+BBzu3///m9QSnMope+ZpvloU1MTEmz1ywLRI+EemheDERN02QCrINxKO4ryPgwLooFWWjlDBh34eDyeXzqdTs/atWtPipzvMQACNhs4nMEU8R6l9KF9+/Z9e8uWLZ3OjfEAwvz585FQaeL69esBiFLyPllsiU2c84+qqqoiQzThgLiSMXaiUgp5b0D7i3TTXe0iuoFS+gVCyH6l1MM+nw8h250F2oWOjo53A4HAdbW1tX/uwxh3e2t3GgSsxxs3bvwLY+zu0aNHb9yzZ89zSGHt9/vhsNtVwKAYCoWeh0NjMBg0GGOw98/ZsGHDRxGX9QtAOPvssycopd4yTfPnIJnqDiB4PJ4ljLG/hkMi8Xxhp8vi4mJkb9y8bt265yMBQnFx8VRN0143DOPKvjJv9tcYpqDeDJBbDUT+gT73FS+cEOIsxpiHUoqO97QEkV1s8uTJT/eXWq6nHerl9cOR2reXohjU23IsswJIxpAobDgVzDFueXWnZMPsi3A8Hs/Zmqb9WUqZu379+i4/nGiAAJK0kSNHPlBdXQ3TDwABQgCfqKmp6dSCxAII55577hjDMLYFg8E1tbW13r70M/reoqKiMmRe5JyfHOmoaDkermeMIU8B+FsQEvmRywX+tP8VnLpN07zD5/PlR226pYSQP4IhNZqlMZV97w4goJ28vLwCaJvr6+sv9Hg8MH/eB+1suE/woXI6nWuEEA/4/f7aoqIiaBKQWCpaxv0CENDHs846661QKPSCz+e7NhIgYC/Jysoas3btWiTpg9Pn72Cqramp2QRw8OKLLy5cv349Isng7xETIHg8nvNBxmSa5myfz/dyKmWfRnXBonDmkAAIaSQ0uyu2BCABLCC/sJJ9DdcFIi1GGhuQpmlvmqb5uM/nuzp8yo8GCLB3H3744b8LhUI/crvd7dH2+1gAwePxfJsxhoUecfqduQNSVZAAKiMj45+hUOjrkU6G1sYDyuEMIcR/OOf+SKplK/TvLillQ21tLXzDwoUVFxc/qOv6VzMyMk7vz4NOIoCADhUUFPwJZpD6+vpqhPwppSo1Tft2W1tbwOFwrKKU/reurm652+0GudLT+/btOzVGlt1+AwglJSW14JGoqqrKiwQISMdNKb2uuroacwkg4LfIa4GQUQsgrFm/fj206fEAQoPH4/m1ruvz9+zZM2MYOyiCUnqWDRBStSLY9RxKEniVEAKa7rQNlx1Og1FSUvJbS3t4Yvg0HscHAYnQQOf7PiHk45qaGrD4dWpBogEC1PX79u2rAhHTJ5988tVUmx3BGdDa2vq6aZoba2pqfhQ5Hla6YNAwM9M0vxepdvd4PGDlO8Ln8y2MNHkgcmnEiBFvhkIhJHHqc0RXd/MjGYCQn59/DKV0bSAQmAkn6fz8/DMYY88LIVoZYw/W1dVBgyPz8/MbYLLasGFDrMiNfgMIHo/nBofD8YuMjIyjWltbmRDibp/PdyGSSmmadlVVVRUAPkDAbxDNYHFKwAQELdTPrN8Qrrr5hRdeeKGkpOR+0zSfzMjI+JthGFvhMO7z+eCzNxwLOF7AsTHDBgjDcXjtZ+pPCSDRF1TdiE3vF6rb/uz8UKy7sLDwGxkZGU/Cwbi6uno9niEWQID62Ol0niqlHEMp3RQZfhcNEODQ6HA44Gi2sqqqqouIKIXygbPhEs75T9va2mb6/f4D8twgD4vL5XoO7Yc1BR6PB0ACxEI/jBGFcaGu6w8YhjEzbDZJYV8PqCoMEBhjn1RXV58Vr52CggKYSOAf9oPq6urP3W73aYyxiVLKmokTJ7I9e/b8gVL6ejfmGwCEv0sp96Qqm2O4rwhfpZT+De9oVVXVI6WlpX8yTXMT59wJvKiU+hOupZTC/IEMwODCwH6IBHqPMcbAdInU4Eg/8LqU8seMMWTRxBx7JRgMgkypyz+kv8ZikOrF4eclQsiYaICAv+GwCCF+MEids5u1JZCuEoBtHs5hsAW7LaCQrn0dNv0C772maVsYY59Duw1WxZ7yICA8TylVXlNT83ULSNzHOf9OR0fHzPr6ejicprwgmoFz/g/DMPxjxoy5KNosADMEUiZTSp9gjI0TQswdM2bMedGpg6EW1zTtb6ZpDgjvP+Sj6zrSOY+srq6Gv028wvLz86/knJ+glLopDGqsRE4VVjbKi7rjSSgqKkKWxIm1tbVnp3IAwIcwefLk9ai7o6MDGTaP5pz/WCmF/BbwC+3c+yI+h/+W1m9wFu38TCnFibp+1qxZazdv3ny3pmk/lFJ2Rkikss9pVBe4keC7sz8aIIwjhLxCCEGqZKQcHbbhG2k0GHZXho4EgKwvsQACTlbD8f3AGvD/2vsW8Cqqc+11m9k7FxMugqActVqhgki9tdWWyj1g2+OxFbVWrMcqlvrTqkUMSXYyyd5JuCkqrZd6wV6OVdFaa8+BRKFYtaitWqmglmq19XA1CUnITvbMupznTSf+m5jA3rkTZj2Pj4Iza9b6ZvZa3/q+93tfhOpx+how2iyIIoTD4Udd1725urp61YwZM/KEEOdLKe+x7VZG2E6bL3o02xhzVnV19Xdnzpw5y7KsKqXUj6qqqhb25ueXl5d3i2VZpVLKqckgy7ZnQt7ZsqzVlNJ91dXVKBds3xD2vgvVAFLKCVVVVTt7c7xtfU+bNu0Gy7IqPc/L27hxY6vEcWdt1qxZSyA8JaWcOWLECFNbW/tjSulpGRkZqD7ptMJn5syZqAACN82qqqqq4p6eV15e3uWhUOjn8Xi8RzAms2fPHkcp3aa1vruqqgoEaYO1DSWEgNvixfY/LEEI+S28dELIeX6YoV+MkJ+ff044HH7DcZxWnXfHcT5NCNmVSCRCY8aMSezcufO4WCz2V8dxeCKR+GJLS8tfMjMzs8rLy1s1wBcuXBgSQiDHp/Hv3Nxc4zgOSovM4sWLIQt9WmVl5ceo6H6ZpP/QoqKiU2OxWKtqmN9oJBI5fffu3duysrJEOBz+VGVl5TbkLqEpAptcddVVrbDnhx56qJUXoqCg4Bgp5ZDly5d3SFrSn/MbhM/OHUTaC+1fz1h/cVhFCLlpoLw75PSBGRBCTFRKzc7JyXmjvr4elQJn+mRvnQ4VVOTGmP91XTcfMoqWZT1HKR0Cxb8NGzZ8Qha+J+cMgBycEWh2AAyZLACU/Hv3//sTVSMzZ84Epe8Kz/NuqK6ufrCnSjEPNUfwHeTk5LxojMG64mit13RGqexHHK6ilC4yxtQjrdDU1HTDQQjc2PTp08FqCxwAKtQ+24nk9aGGedD/jyqVlpaW1ymlYAkGn8QBeh7pdp6Xl/cA2Gs9zzujN6tI0h1XL1w/ihDyHiFkTUeeN0JKoBwFy9QB4JpeGMgnunzsscf4tm3bLCklACJ/U0q1cM4BfrmAEPK6MWYcY2y0McabOHHifa+99loO53wBYwxgGGh4/9Z1XYSFpjDGMowx5/uiOlII8ajjOI2FhYXXMcY2c87x4exxHKdbH05X7eI4ztmU0nM8z5tBKV0H1C1CWkqppxhjKNdqwcdtjEFt+h+FEGtd1/22bdt3SClvZozh+iei0egbJSUlq5RSKN15g1L6eULII9FotFdCp12db3DfYWEBLA7Ilz9NCEEOdsA0hORDodAGrXWD1npmdXX1HuTLUxngunXr3Llz51qNjY1rOefTpZRXV1VVoZSr10s5Z82adZoQYqNS6q1EInHppk2bwGFyyDZr1qzzLMt6Win1m/Xr1yOq06dtxowZEIL7EWPsy1pryB9Hk3QU2o+FTp8+fYZS6thEIvFYZ+h+vENKaQXn/OvGmJdc1128adOml3vrPSDSFAqFfiWlvL2qqgo00V1qs2fP/iZjbI2U8oHc3Nzv92YVSZcG2LM3neAfEpZ25CDgZArSCzCLIYoAnYY+a0VFRagrhwMwXgiBErJMrfVblFLQLUN/+x+2bbue540qLy+/u6Cg4ALbtrd6njeGUgpWu+lCiMWe502yLOt3WusFdXV1dw8ZMgQ1ybd5nvcNY0youbl5bXZ29mmU0gsZY8UHUyTrrcnfeeedod27d59DKcVYdyilELLG4rcD4/I873fhcLjZdd0FnPN3xowZc/fbb7991FFHHfVFKeXfw+HwUMwTTo7WGqFhyJb+Hj9ozvlKx3HSZp3srbkG/R42FsiCI04IaSaEwNEcUN8Q1AFDodBaz/Oel1JeumHDhppULItQfigUWimEWOB53vLq6uo+5a/Iy8u7ELXzSikwQ6L0EYeTzhrAe+fi0EMpfRmlkqnOMxVbpHMN8ARSykrLsq7VWu/1PO97jY2NVelWfaBqpK6ubjalFOmS0a7rrqGULu5t5Vm/YuQRlCW6rvvNZ555Bo5vWk4hiJeklDh41b7//vtnbdu2rTWqPYgb9hQQWy3oLHc3mRACLW2kG0DDnJZBu2O4oqKiG8EyRimFzjgALJIxts0YcxxjzCOEZJeVlT1WWFj4A8uy7pdSPmWMuYoQcgyl9EFK6Xei0eifFi9ePNq2bdS67qWU7uacbwPwQkrZyrTGGAMAZTeldKzW+qVYLNbntMWO40Cr/j78aBDy1FojomDjpMEYQ1Thb5TSemPMVyilaxFNgePGGAtRSlG3LYwxJ0spX7csC/NAjiwL9hNCIP1yX1++u+689+DeAWMBrAmgWwe1MdgLk5nv+n2Q/oKPsPudrutWhUKhuQfLc7cNOC8v73YoLCqlftHS0jK/O7ouXTVCXl7elZzzh6SUr4L4rbP0BsihcJ0xpsF13S+1Yx/s6uO7cx+dMWPGBZCVp5SOVkr9MpFILHr++ef3ptIpSKzC4fBKy7KuVErVK6UWaK2fPpgKZCr9pnoN0jy2bW+glB4fj8cnd6Yd0VF/kIRGSooxdrzrurN6mi8j1Tn08XWX+urOMztzEJDrfooQAiYviNG82FcDLCgoWLh9+/a7TjnllG9xzrM55/uR8pBSrjTGYFPEhrmRcw4Kz8eFEBcopf5oWdb1jLF/lpWVxQoLC8cwxuBgDCeETKKUbjHGIKyHWtwhIIDgnIOyGfWxtS0tLetXrFiRUtivJ+1QVFSENMhSpRQY+YAcvRLELcaYHYyxoVrr4ymlx2LsjLHwrl27VowYMeJqSinosE/F+I0xjYwxpF6+SykFqAyOzyjfFuBzD1r3LIDKhVJCyOMDQZuge1NJ+e4iQgiUB0E/POCIoIBHaGxsXMI5L8BaIKX8NtINHc3Ov3Y1Y+waKeX6eDx+xQsvvIBqiD5vvnNzlRDiXq31a1Bpra6uRni9tQF5P2zYsPmWZZWhtM513Xm9kZvv6sSnTJnyGSHEMsuyvooTtVKqZOPGjf99MLDutGnTpnHOkVL4nFJqnV/t0KdRacwXZa62bf/WGNOEKHIqpaJ+5OCnjLEL/JTUmq7a7jC7D1TrwIecfjD07xf8KAJ+eJBHru2LSRYVFS2glDYqpcB4hWqK7Hg8/nRmZuYcy7LekFIWQLSJUjq7vLx8eUFBwemMMQAYR1NKm6PR6IMFBQVfsW27SWtNtdbIHT3BGEtYlvVWS0sLTkavcs7rMR/wdcdisUV9Mbf2zwA40RhzA+e8Gs6QvydQrgAAIABJREFUUuocxtgmY8wrWmuU0R3reV4tUNpa6+m1tbVXDxky5Hrbth+QUoKkQ+NEVFlZWVNUVAQ09jvGmMmoAUdoOBaLbeqPeQ2yZ55OCIFjCucSnvWR0ID3QUTtSh+LNCDnnJeXVwqgm1Lqb8aYbyUrJ2LAc+bMGQPxJkgSI4+fk5Nzydq1a/s9PAw1Qcuy7tFaG8/zfiCl/FVWVtZRSimALr9vjFkXj8evTRWr0Jcvx1fLLGSM3eRHO29vampasXnz5gP2h7POOitz6NCh13HOS8AdYIy5Mx6PV/an8uzMmTPPtyzrV1rrPZTSy9etW4dUWodtzpw54HP4uWVZUz3PW5aTk1M6yHEHyXYABvFzhJBPH8xBwP8DgQhydQB3VPTFh1hQUHA95/w1/OCx4SmlttTU1Pxh1KhRlyiltlNKgTU4SymVYdv2w67rainlLsuyTjLGfJEx9hildHo0Gr0fHrvneQWe592xfPnyRoy/qKjoWt/xaFBKUdRCR6PRjsqLen26AGRu2bLlbtd1fyiEyAQ/eywWu9txnBzP8y4yxszlnEPR7RWl1MKsrKxFTU1N0GD/ruu6lZxzLzMz89olS5bUFRYW3sQ5f1dr/UVjzGbLsuocxwkchO69ReBxIOV8rl/a2ErScwQ0VGmgGggnpk6liQeAHUA/fDXn/D4AF1GeuX79+lZ64tmzZ59DCHlMCHGi53n3nHDCCd//yU9+ghTlgGhTp06dlJGR8SRj7N88z/u5MeYM27Ynep73o4aGhiUDnMIXgMQvgEKZcz5aSvmW1nrexo0bUSIPWevj4VgKIc5D9YiU8vINGzbAye6zVHVnL3nWrFkzOedrjTGu67pf3bhxI8p5D2gXXHDBKK31JvA7SCnLqqqqoCHR72Pvow8XWkfgd0B1zzmHYlIcDVQ8IQQL5VxCSK/KJDuOI6SUSGtkM8aGa60lUPxa6/copVMRmkskEqMsyzqFMfaiUuoEKSXAVHXIz4dCIUQHWCKR2LR8+fIdcBCklNe2tLT8YuXKla2goOLiYiCztdYaf2bAIESj0R/1kfEPeAwchDfffPOGRCJxv2VZ840xz5WXl7+yaNGirHA4PFkIAZKVTxtjjmKMnV1fX788JyfnLEopMCJYCFGWOmvkyJH37N27F+/nHWAZfArXvRUVFa0/2KB12QJYGFCfjVQNKHAHzAbT5RmldiNUBlEBg1QWqoAGbAP4raGhAaDch5BSdF33QcbYPzjnONgAz3NLbm7umvbkQwNhQr4uQDkY+oD10FovzsnJeeJwOalOmzYNuDAcVC7DemqMgZomMF/fEUKMkVL+UghR1E5rot9NP3369K8iCssYw/eR39LS8kAbHiIvL2825/zHhJAT8D727t27Ol1AZr9PsHsDQBXj7/wUo3MoBwGPAifCk4SQ9/3Fol/yd92bc3B3YIG0LQCiMLAmApuCCEKHOe60ez08bgAGCYcBVDIB6wL+kAHdUErIGLuVc46SYKa1fl0ptai6uhqL3YA9/SFkn5GRgTLCfxyutfUzZsxYCDwIIWQUpRScE3tc110aDofvWrdu3YD8dqZPn36Obdu/IISMheokpbTUGPNtznk+UtVSSvBOoAx2MJKhHey3jFT1rf6a92oqDgI6W+mTpiDEiqoGnNqDFlhgsFoAETMQToF2HBtOn4F0B5BBAVLEKTzPxyINoKF1PBRwIiilvmaMyfY879ebNm3aN+AHPUgGOGXKlBM55wC0Izz7XDqVAv1lgilTpmRblrUuFAqd53keKt2Owe8+kUhcvGHDBlS9HYkNgHlw8HyGENKYqoOA2micpiDOgTJB5CWPNM/qSPxYjsQ5wykAtSwYBYHBiRyJRgCC2deagKjNd4Lf+xH6FQzyacNJCIVC1wghShKJBFIksd5m1xzgJgUGAZFDOEg6VQcBczrJZ1hEWQ5YvfodDTzADR0M7/CzAPAbUGmEzgJy2tcTQjrlkj/8ppfWiJFmAFlKNkqFg6hhWrYLLj68LEDnzJljg21zIKej+sOk6TgIGB/KCVHO0iclj/1hkOCZR6wFECUD1z3Anqj9B/amXyi4B9AbAHgXJGSn+RikATS0YCiBBQIL9LYF0nUQens8Qf+BBfrDAjk+a+gXfedgKiHkYFS4/THG/ngm8Afgf0CZc2V/DCB4ZmCBwAL9Z4GecBBQConF9Eg/bfXfWwye3B0LICqGen84ByAIudbnAOhOn4PlXuAxoAv/B58kSg2WiXVjHlgzD1kVgVLlFStWxCmlB1yLv28rucYYUKY5atQocdppp+mdO3fS0aNHm+uuu04uXLjQHj58uAeNmPb3QNCttLT0qGSROSjUgusFpd3Nzc1HLVu2rJUILmiERCKRyYlE4s9tXDhQvuWcj4lGo6/m5+d/eunSpX9rs5OvmMtc14VOD6S4X5FSfrm+vn7z6tWrXcdxIPlOSkpKvPbv9jC3NVKKn8AV9oSD8IiP9kYoEuQqh/zxHOaGDIY/uCxwMZQv/bI+fMMp8csPLhMcdDaIpgCL0Eo01tvtxhtvzLAsS7Qt5nier/CaEY/HaWZmZrPjOKBJb22O42Ru3bo10cYd4C/wYfzdueeeazc0NKg2yXhcv3Tp0tz33nsv3p40CeRkYB9NvrajuZaXlx/T2Nh4/NKlS/9YWFg4X0r5aDgczpVSnlVeXo5ycIwJFO73SinzwXIKOer8/PwThBAAgEFjBfwk+2pqaj4YOXLkVVLKEymloIWHGuvxWusVnPNLpJSNtm3fJ6W8Dhww/iHM3bdvX3ZWVtaqSZMmXfP888+LXbt2yc985jNg+QSF8bnGmGlSyifC4fDTHQm2gW8GpaA1NTV0+PDhav/+/aE2pwX2BMFsc3MzxkqUUjLZoXEcZ5jjOAekmKEpA84Jx3FAi/9x85+T2ebItP15/PjxTdu2bcvIyMigzc3NcIJa4OA0Nze7q1ev7pGySDzL87yvSCnxPX0T7JTQtlBKvSCEwG/+FEop9IYuopT+LhqNPhCJRMBHcbz5V4NYFsiCHtZag733V5zzDyiluB4qug9Eo9HNvf176KP+QSeP6gVw64DQ6uPWXQcB94P/H6cvkMj8OyHkSGGb66N3Fzymly2AE8F1hJCfBMDbXrb0IbrHydhxnBUg+3Ic55q2y2Ox2AmJRGIe5xwb2y8cx/n4xLdkyRIQipFoNIp1iNxyyy25lmV9XggBkrXvgl8AqoHQOhFC5CqlrlBKfcgYAz/CR3AIFi5cGBo+fDiqNbCh3n+wYc6bNy/rxBNPvHHfvn0rhg4dCuXUeVJKVHyMAAvqbbfdlrF582Z37NixTxpjrv3oo49qjz32WEi4Q5TtYWy+nHOSSCTAF/Bnxtil8Xh8TUZGxkW2bT8C9VnIbSulMkEnTylF6R1IqxAReEopBcbFX3ued9ekSZPmbdmyBVTtEHIropQ+YIyZArVaQsgH5eXlP+1oLvn5+WcIIc7UWjeD6ZBzflIsFmvVGSgsLLyIMQbBNzAlakqpu23btltOPfVUlPtCWReaL2uMMftra2s3ZWdn54DFlnN+hZSyFBT3bQ5BJBK5xhgzMxaLtVKUFxYWfgNssUqpn4ENllIKCvn3hBCLjDElUkqB9yWEMFrrqvLy8g+680UiOjNhwgRLKXUHIeS5iRMnPjp37lwdiUSmcs7nKqWeoZT+3Rgz4/TTT7/tjTfeuBFRAejeaK1Rrvln27Z3u66L9wsA45uU0kzOeYbWOqs/BP66Y4+D3IuqBXxjf/S5jj6OJHTXQcAz4flC2AF0xfAgnwWjsf/AXppP0G1ggS5bAKedoAKny+brnRv9sPl3KKU1ECCDFklZWVkkEol8FropWmtsMoIxBqnnkZzzoVCbBPW61tpmjGGhf1UIMUFrDe0YcFe8Yoz5GqU0aoyJCCGe11qD+Ol9Y4xFKf2UMebHjLEbtNa/VUqBf15Go9GfdTZLbDrjxo0D0x7IZC4zxmyhlB6ttX6ZMQa2TSjEvmuMwUb7EiEEVMpRIQSIhF5WSu22bftFKeWNQohblVLlkBE2xpyJyALmrbUGOHQspfRXlNJLcNoHOyTmrpS6HEREhJB5lNJ10K1xXff3nPObGGN4LrRpbGNMPSioHccBwd0BLRKJTFRKXcoYGwL2Vkrp1xABQCQNKrpwGiilf/BZbD8LgSYIYoFAyBhzmjEGKr+u1vpYy7IsY0wupTShtd5tjJnT0NBQkJubO11rDeIklMtdZFlWIfRjlFI1QghQGW/jnJ/iMxbi1AoOhTohxHOe5/2nZVk/TE6hpPvV+VGcc7TWqOl/lzG2C++bMXa3lPIbxhho/ZwExVytNXQX/skYizPGoAoc0lrvxN4mpXxICIGS5y8h3SaE2AHnAOzCZWVlkI4eDA17NzBGl/midD0WQWjrCB8X0N8lfqUDwrT3+LKx4HUOcpeD4TM6fOeAcOkZhJB8P+KFcFrQBpAFSktLF8BJwAKllDoZ+V/G2Lf9iGTcGDMem7qPiRjLGFs1fvx4+uabb05zXdc788wzn7/kkktwOjyNcz5Ta/0BVE7hWBx33HErd+7cCSG0RmPMfxhj/otzDlIlnLRBvY62gTGGkyvWsb+WlJT8uJMcMy0uLoYA0S5jDOTYv2KM+VAI8aRSqpBS+ogx5svGGMiv38AY+zxEjSB4Z4yJK6U24vSNMUJsLhKJLNZa/5IQcqFlWY+DGh709lrrHM750SgzpZRCOfHLlmWVtrS0WEIIhL/LpJSFkDHeunWrGTt27GXY0Cmln0d8HBt+IpFY2ZFKreM40K0p9Tdw6N08xzmfE4/HF2ZkZGDzhPOFTRUqhnBKXrMsC2F50BDXSikbKKVvE0Kg9QLn5Vqt9QNCCAXnDZu+H7q/xxiDSA7KZCFM96avrvuSMWYf6PThNEkps4UQcDjmCyEQ4r9fKfWn7kQQHMcZopS62vM8pAYmgzgrHA5P8TzvHcuyrvCprUdxzte4rvs5IcQ/8Y0RQsYQQpBCQIAjg1L6Jt4v9H0opS8wxuCsDiYHAak1OLIo8Z4AJy15WeiJCEJyfzDcckLI1b5+AxgXEbqD44B8Dk5uAcHSAFqYB/FQkFcDIyI+eoQYId4DIA4WNaDzjxRdhZ58xQjxY83ocdsBA6CUuhihZcuyLgRZVX19/bs5OTkjEJ1kjL2vtbYYYxwqe4yxU4wxYHXFZoTVfAdC7FprvO/zCCH/IIT8zFdzvRULvDHmSkopgKg4YU9G2H/fvn0vDRs27Bj/xI8c/ts1NTU1B8uFFxcXz9NaX1JbW/vNo48+GgehPVprRCIWWJZ1bzwe38c5vx/heAgWIWetlMLJG5suTvQTfUVZRBTuwMmbUnqOMeaPQoipSqlVUHrknJ+ltXYnTZq04vXXX78RuAZgM4qLi6caY8bBQYnFYs8CNyClvF5K2cQYG2lZVpbWus4YszYWi21v/wGUlJR8yfO8o6BqaFkWfhOTtda54XD4Z4lE4i5fTh5Mojg1P8s5/43rutC/OV8I8QetdYIx9hfP8yBHP5MxBgcckvNXwPlqaWn5PRRoXdc9KRQKnWVZFiIOHyKCgGeCsVBrDc7/+znnl0sp45zz94wxx/p2bHUoYrHYqu58vEhpCCFO1lp/6EddTjbGrIeN8A6MMXAMfuu67lmjRo1aumfPnslSyjrLss6HSJ7W+uRwOPxaPB4/g1IKlc17ELExxmQwxkKDJIIAJWPs2dCdgcz4Aa2nHQR0jkUEoSNQtWIhhtOACgdEFQCCuBPeW3defHBvYIFOLIBvD6cu0ISC7fNMQghyuDgpQnjobkLIfb6zGhgxPQsAvLba/x0jEtOjDSFhrXXEtu37pZRz4Mht3br17xMmTMBG+XWtNcRzkBbY4zjOmttuuy3c0tKS7bru+YlEQoZCoT/E43ERDoehAvs28AqJROIlIcSVCM0nEon6UCgEx6JSa4316QXHcf5aVlaGMDTmc6zP7wKg9fdQPdDZBCORyATGWEFpaem3IpHITTixA0SotX7YGPMnpB0IIV+nlCLkDtG5CGMMmAqAYSEUd4UQ4vdaa6Q6bpg0adJNf/nLX6AD8JDWGuRc72Ht1FpvReiecw7V2gLXdVeEw2Eo1l781ltvLTj11FOXAVyrlMKpNsQ5P10pdbxt25BXbrYsa00kEkEE94BWXFw8XSl1PcL/lNInkVbQWq8XQmyRUiLdEKaUQtFzAqV0I+yntT5DSon0wLlKqX2WZb1aUlLybmFhYTFjbI8xBs7V2bFY7I4lS5YMEULcASwJ5u+nLBBdgcgcAJwEURVKKRy+v3met10I8VWt9TRK6TN+tGh1RUUFIg5dar4i7hVIGfhRKKSWEJnhlFI4T1dmZGTgW8t1Xfcy27bLXNe9WAgBAap1WusLlVLvK6X2W5b1Ha31dZTSBZRSrCnAYtzRBkrt0gAHxk1YL/HesD4CZ3EAyBRD7A0HIXnqeOg8QghUFgGEwIDw3+2BjNCfR1gs1VQErgUoqSXpYVjA4PGm03A/kKjJJ6KjCCGf90+bqfYFhHd7RCs2KoS107ExXhD6Sa4EOc4/Bac6FlwHEBcWmeQGJkyU9KXTcIpIBgphLrANwlKpNswFpXLtqwPQDxahdBpYPJPLt/Bh/4cvKARbo+QWpwPYDN8aHNO/EkIA1kK+sFugp3QGOgivRQgSICbYF7Zu/311a8oA9zU0NESklD+3LAvphA1ZWVlefX098txjjDEAQMNBeMoY84ExpkUIYXmedx6Q9pTSV8LhcMv+/fvjtm1/jjF2zo4dO5aNHj0awLPMYcOGVdbX1yN8XQyQGXL/kUjkz/n5+TlCCADtvqKU2ppIJP7ueV7NqlWrOtWbAUI+kUgMrays3IsSRDgjKCsEEj8zM/NT/u8vBw6Mn9bAJjnGtu1xiIAQQoYaY6BSu0cpFa+oqHisqKgI82uxbXuh53lLtdaKMQa591sZYwtd1/0IIW7k+HNzc1fcfPPNTUuWLBnBOV/Y3Nx856233vpRQUEBIiRDGGNYR07VWt9ZXl4Oh+eA5jhOtpQSKqUTpJQLbduOcc4BqnxCKQVHBmsp45y/AFyG53kvA9TIGAPWApGbRsbY9n379t2blZUF8Of3OedfUkpVIsJQU1NjcnJyRiqljhZCnI1Tu+d5cCrAwAtsAxRptxhjfpCRkXFjYWHhzsLCwgs559llZWX/VVRUBGrv33cU/Uj1I/MrJpBmGYOSRuAnotEoQummsLAQDtGrwBlYljUVwMjt27e/cdJJJ2Xbto2KkhOhTom5SCmxlrBYLPYOKjhc17WklBzYi+6kQFKdRy9eh7UcVVs4MJX6B/pPPC6dzas7Y8VGAA8OzsIP223s6BeeIkKDqTY4EtjskgE443BySLUD/zqU6wCAglKktgYPERsRNphUG8aPsGFyQ5j016l24F+HyApCpsmOEoBPAEWl0xAqQlonueHPCCOl03CywimlrcEmb3XB0UAoGNGj5IbSOYDJ0mk4gSSX4SCHCScG/8aJD7TIWBzBywFWxKf8byJVxzOdsRyJ1wIoiHx5mx5Lj9kVp3Gt9Q98wB5Ol3iXcO42wiH1gXdYr1x/cz2ZMTbMB9fhXSCH/SGk3cPh8NWMsb2O4zxcWlp6ozHGE0LYcCYopQinIqe82HXdVZZlAecAcCIopZuB3Pc878loNHrQaoaefvlt9feIXDz22GP02WefZe1LMQ/1zPnz51tt9wBMOXfuXHLJJZd84h0VFxcjspvHOX9aKQXH6DeopjDGvE8pPV9K+SClFCkF/LY+xTkf6Xne7RUVFbsLCwvPRgQB3AGRSAQqp1hr1mRnZz/d0NDwLc45DkuIKGCd1wjH4zcJzILWGoBOrPPQOrlUKfUg5/xqSulmAB2FEA8g5cIY27dz584b0p3/oewT/P8DLHCi//uCoBkc/g6j+n3lILSNrEMyBkIIanyRN2wloThEw5ixUWGzQNi4rWFjfSZNjANOteDdTz6VIjz9mzT6wZyQ50NkJLkhxwbvLFVeCJws0A/GkxzeBDgIaprJ0ZKDmQjjQc69vVOB8qmb0ojS4HQOhyK5VApjhAQqqHdTxZLgfaGMELn/5Pa4H9ZKtR/gCeB0vZHUCU46sA0iBahpxqkWTh9Of6inTtX2h/rmgv//LwsgcoQafvzWsMlg8+6R5nMd4PtqbajRB3kQSIM6esDcuXMZNsDktnbtWrJ27VoNMputW7cqcCP4pW6toD18s208B/4JU+/YsYOHQiE2fPjw1m+ljRsgmWuhRyb4r05SIlnChXAYtm7dStv4HXpwDOgbv6VWW+C/wUPg26P1ULR161ZvwoQJKDkFhwTeCXMcB1FW02Y3ODL47/r6emvVqlVYm1rtByelrq5Og/wJf4Zd297ls88+2/r34G3Av4Hz8EtM6fjx4z2ATB3HgUMhD8VH0VP2cBwH6z3m33rYBE9Gfn7+kUAyhUoZpLMAiu3UGe5rB6Gz94pNDWNJZzwdLRzpnPoxlo7SGhjDxwtVih/iQOsHm277jRc2xj/ptI76gW3SeU94Hk4x7TfrnuqnM6cznXkG16ZuAQDIkN6Do3Z+Go5i6k9I4Uq/LJJjI08+LTuOg9QeNr4GbFYjRowAaG93L234KYz0/18SiUTmc84fLykpqSsuLl4ajUZviUQil3POcaLO0Vrf9NZbb1138skng1RpGWOsjjFW7DjOrrQe1EsX+46FcBwHETo4C/jtZe7YsSPRdtpH9YDvULSSKd18882jsrKyavtqw09j6rSoqKgVP4GDZllZ2VM+buFhy7Iu706JZRpj6K9LwWmB6DZSrogCdcqCnO5C318TCp4bWCCwwMCxANI3V/pS2AjZ91iqIdUpwhGglJ5RUlLyTFlZGfAsrpQS+ff/B/KbzMzMkqamphhSiNhki4uLIcDVry0SiVytlNqJUkGU8rW0tHwhHA6vQLmiZVkAJZ5vWdbNrutizGfEYrEH+nXA7R4eiURW+SmDnVLKO8Ph8FAp5VLGWC1jbKmUMsQYK9Fa1wohbvA8bzHKLimlv4xGowBoDpiG6Ifrur82xiyurKwEVwOInJBC+ywAlxUVFSC1GowNUdcqzJMQgij36webZOAgDMZPIJhTYIHetQAwH1hYAFjECeSgi0xvDMVxnGOBii8pKXm0tLQ0D5gFpdTXgTnA80pLS2eiiqWkpGSZX9Pe7+kmx3HOSyQSMyzLCiulhjLG7jfGLNqzZ8+VI0eOLDXG/A8AlFLKvZRSsA7iz68OlNN3UVFRRSwWKwD2QGs907IsMD8CDIkqCpQGnmiMwTXbFy1aNDIjI+OaaDRa0Rvvvyf6LCoqAt0yODGA83rNdV2E3X/COf/hxIkTr+oIv9ETz+3HPhDxAX4IKV/I2QM0etAWOAiHslDw/wMLBBboyAIohwNWB0BCSGN/2JdmchxnJE5/PuPf5zjnYEIEN8D4rKys4qamJlQj3QNCpeLiYoTwB4KDcLRSqgS8CFrrxymloDPOCofDK+Px+O2U0k1gQgTA1hizENVeQoj1juMAsNnvLRKJLENaxD9tr9Ba32dZVgGlYJJWKznn/waiKa21Y1lWDVgIjTFPlpeXP9rvg+9kAHA0pZROU1MTKiqesm37FaXUF5qbmy9M1qAYqONPc1xf90HGSA/O9vFagYOQphGDywMLBBY4tAWAIcHpEGh1AFnn92WqwXcQbvER8NBeWDdu3Ljn3n777W9orWfV19eDFRD1+CDbua+srAwg1n5vkUhkBaowhBB3SSmfRqkfYwygX/D//4lznu953irO+dhYLAaQ84BpyQ5CJBK5VUp5r2VZqH4A2HsYogWO48zQWl9ZV1d3bUZGhm3bdqFS6oPKykoQSvW7k9ZmTJ93A+RZQPFfzDl/VCk1Picn58m6ujrQc/+jvLwcKqaDqYFSGTII4BlJaW5BBGEwvf5gLoEF+tYCQMOj7BTlqqilRslbqlUp3RopTn7IoTqO8whSDIwx1djY+PKoUaNkQ0PDjznnKxobGz/0PM/Kzc29zHEchFb7vRUUFFwuhKgrKytbV1xcjAjH97TWZWB1RF19cXHxdUqpWpzKY7FY+9Lgfh0/HATXdSts2/4sTtm2bYNe+kxoYBBCluTm5i5samoyEMRqaWn5HaV0l+d5OZmZmSsgLDXQQvbFxcXQl/iy1hoEVQnP8z5cvnz5DvBLhEKhSY7jQFdoMDX8XoHXeS7VSQUOQqqWCq4LLBBYoCMLgIAL9MXgsP+un9vsdUsBpAiBo9LS0uqysjLgIFrAfge5Xr/c9TfGmCgEAxljRcXFxVCr6/cGcNz48eMNNsukEsNwSUlJAtoP9957r7Vz5066Y8cOM9B4ACKRCMrRwRvzQnNz89JwODzKGIOSapcxFkGqSWsNkioAMctBDQ1HR0r504qKCgDjgnaYWSBwEA6zFxYMN7DAALQA0NBP+DwJYEXti3A+nT9/vsAmik0XgkWTJ08W+/fvB/1yXUlJiVm2bFkOHIRbbrkF5D1B66YFoPngc9Ds93kQAHrLzsnJ8W666aZmn2EyNxQKNfocCznhcJgeIbwC3bTuwLw9cBAG5nsJRhVY4HCzAKoGgEVAfjOZzOpwm0cw3sACg8ECAOneQAi5zWeW7dKcAgehS2YLbgosEFignQWwloCuGFTXAwaMFrylwAJHoAUQ2YGCJthO4SAAnNilFjgIXTJbcFNggcACgQUCCwQWGHAWABbo5z4JEhhPQWgG6fMutcBB6JLZgpsCCwQWSMECOMlAMW4dIWRnCtcHlwQWCCzQdQtM8yXtASRFBQaEyJL1itLuOXAQ0jZZcENggcACKVoAnO8QUINzADIlqK0G6YcUjRdcFlggRQtAgwjEWlDeBT8JhPCu7g72oO25gYOQ4hsILgssEFggbQtAOOl2Qsi3CCF1YDb0c6Ifpd1TcENggcACHVkAUuUg2q51AAADSUlEQVTgH4EzDtKnQl+dsUf0UQIHIfjoAgsEFuhNC0C+F2hqMC5Cw+HPhJByQsj/EEIGBIVwb04+6DuwQC9ZAFgDaCpARwIKmn/ywYigFe+xFjgIPWbKoKPAAoEFDmIBqMcBUT3Zr6Vf7/8ZTIzNgeUCCwQWSMkCqBQCtiDfJydD1AAsoYgiJFLqIY2LAgchDWMFlwYWCCzQLQuA6vXfCSG3+oubSwiB1C7SEBB+QhoiaIEFAgt0boGzCSEvEUIAAP61r60AbE+vUJwHDkLwKQYWCCzQ1xYY5p+CLiOEIIcK4CKAjE8RQhYFqYe+fh3B8wagBZCOO4UQ8qbPLdI2RKTslhNCQF0NinM42b3WAgeh10wbdBxYILDAISyAiALKIAFiPNVfCKFsCLKltnYcIWQcIWSXn4pIpQqivoNoxFBCSG6abwQRDfSV3EZBeTHNfmoIIe3pnkcTQkJp9IN5o2TNa3cPRKvsNPrBpZDmlkn3AAWPnHY6DePAeJLfBxD06CedfQXj+N92/WQRQkakMxh/o2xf0odwPICy6TS8J7yv5JYDtcp0OvGllBva3TOSEAK66vYNdkP/JxBCPk0IOdHnMcB/IyX3cprP7rHL03mRPfbQoKPAAoEFAgt0sEHBOfjvdpsFiF4e8P8Om1EqDsLqDtjjKgkhN6ZpddwDlcq2hoX8RUII8BTptMWEkDvb3bCZEHJGGp0ghIxoC06UyW2LL6CURldkAiHk3aQbIHD113Q6IIR8QAjB+0p2WI4hhPzdD3+n2h0iRxPbOYVwGPHO02nb/X6S7/lPnxcgnX5AFw7wX3JbQggpSacTv5oAqbTkBnZDVBu0b9iHkTJI/jeuafGpyzel+eweuzxwEHrMlEFHgQUCC/SCBUD+ggUapyv8k8ppGfXgAHElN2z27f/uUMMtIITgvraGRRwENFMPdWO7/7/AL/FM/mvkkSG9m2rDRgzHBJiN5PZamo4G7oUCJzbytvZvXWDbe8ffkJMdBJyQ4TikE2F5vwMH4VJCyCOpGsa/DpLTyM8nt3mEkJ+l2c/9hJBr292DCpyVafbzfUIIHNXkBvnui9r9HRzeWt9uwBLg/cImsC8YEBHN6JGSxTTH33r5/wG1v8lHm6cmpwAAAABJRU5ErkJggg==;movable=1;resizable=1;rotatable=1;deletable=1;editable=1;connectable=1;" vertex="1" parent="1">
          <mxGeometry x="30" y="-800" width="544.35" height="380" as="geometry" />
        </mxCell>
        <mxCell id="8_0EVFcnMzScwtMn9t5G-7" value="" style="rounded=0;whiteSpace=wrap;html=1;dashed=1;strokeWidth=5;" vertex="1" parent="1">
          <mxGeometry x="700" y="-350" width="490" height="370" as="geometry" />
        </mxCell>
        <mxCell id="8_0EVFcnMzScwtMn9t5G-8" value="" style="rounded=0;whiteSpace=wrap;html=1;dashed=1;strokeWidth=5;" vertex="1" parent="1">
          <mxGeometry x="40" y="-350" width="520" height="370" as="geometry" />
        </mxCell>
        <mxCell id="8_0EVFcnMzScwtMn9t5G-11" value="&lt;font style=&quot;font-size: 30px;&quot;&gt;人民网自有IDC&lt;/font&gt;" style="text;html=1;strokeColor=none;fillColor=none;align=center;verticalAlign=middle;whiteSpace=wrap;rounded=0;dashed=1;strokeWidth=5;" vertex="1" parent="1">
          <mxGeometry x="47" y="-330" width="230" height="100" as="geometry" />
        </mxCell>
        <mxCell id="8_0EVFcnMzScwtMn9t5G-12" value="DB" style="strokeWidth=2;html=1;shape=mxgraph.flowchart.database;whiteSpace=wrap;dashed=1;fontSize=30;" vertex="1" parent="1">
          <mxGeometry x="80" y="-53" width="60" height="60" as="geometry" />
        </mxCell>
        <mxCell id="8_0EVFcnMzScwtMn9t5G-14" value="" style="sketch=0;aspect=fixed;html=1;points=[];align=center;image;fontSize=12;image=img/lib/mscae/Virtual_Machine.svg;dashed=1;strokeWidth=5;" vertex="1" parent="1">
          <mxGeometry x="220" y="-143" width="50" height="46" as="geometry" />
        </mxCell>
        <mxCell id="8_0EVFcnMzScwtMn9t5G-15" value="" style="sketch=0;aspect=fixed;html=1;points=[];align=center;image;fontSize=12;image=img/lib/mscae/Virtual_Machine.svg;dashed=1;strokeWidth=5;" vertex="1" parent="1">
          <mxGeometry x="130" y="-143" width="50" height="46" as="geometry" />
        </mxCell>
        <mxCell id="8_0EVFcnMzScwtMn9t5G-16" value="" style="sketch=0;aspect=fixed;html=1;points=[];align=center;image;fontSize=12;image=img/lib/mscae/Virtual_Machine.svg;dashed=1;strokeWidth=5;" vertex="1" parent="1">
          <mxGeometry x="310" y="-143" width="50" height="46" as="geometry" />
        </mxCell>
        <mxCell id="8_0EVFcnMzScwtMn9t5G-17" value="" style="image;html=1;image=img/lib/clip_art/networking/Switch_128x128.png;dashed=1;strokeWidth=5;fontSize=30;" vertex="1" parent="1">
          <mxGeometry x="390" y="-250" width="80" height="80" as="geometry" />
        </mxCell>
        <mxCell id="8_0EVFcnMzScwtMn9t5G-18" value="" style="image;html=1;image=img/lib/clip_art/networking/Firewall_02_128x128.png;dashed=1;strokeWidth=5;fontSize=30;" vertex="1" parent="1">
          <mxGeometry x="520" y="-205" width="80" height="80" as="geometry" />
        </mxCell>
        <mxCell id="8_0EVFcnMzScwtMn9t5G-23" value="" style="endArrow=classic;html=1;rounded=0;strokeWidth=2;fontSize=30;entryX=0;entryY=0.5;entryDx=0;entryDy=0;exitX=0.478;exitY=0.001;exitDx=0;exitDy=0;exitPerimeter=0;" edge="1" parent="1" source="8_0EVFcnMzScwtMn9t5G-15" target="8_0EVFcnMzScwtMn9t5G-17">
          <mxGeometry width="50" height="50" relative="1" as="geometry">
            <mxPoint x="430" y="-260" as="sourcePoint" />
            <mxPoint x="480" y="-310" as="targetPoint" />
          </mxGeometry>
        </mxCell>
        <mxCell id="8_0EVFcnMzScwtMn9t5G-24" value="" style="endArrow=classic;html=1;rounded=0;strokeWidth=2;fontSize=30;exitX=0.5;exitY=0.074;exitDx=0;exitDy=0;exitPerimeter=0;entryX=0;entryY=0.5;entryDx=0;entryDy=0;" edge="1" parent="1" source="8_0EVFcnMzScwtMn9t5G-14" target="8_0EVFcnMzScwtMn9t5G-17">
          <mxGeometry width="50" height="50" relative="1" as="geometry">
            <mxPoint x="430" y="-260" as="sourcePoint" />
            <mxPoint x="480" y="-310" as="targetPoint" />
          </mxGeometry>
        </mxCell>
        <mxCell id="8_0EVFcnMzScwtMn9t5G-25" value="" style="endArrow=classic;html=1;rounded=0;strokeWidth=2;fontSize=30;entryX=0;entryY=0.5;entryDx=0;entryDy=0;exitX=0.356;exitY=0.062;exitDx=0;exitDy=0;exitPerimeter=0;" edge="1" parent="1" source="8_0EVFcnMzScwtMn9t5G-16" target="8_0EVFcnMzScwtMn9t5G-17">
          <mxGeometry width="50" height="50" relative="1" as="geometry">
            <mxPoint x="430" y="-260" as="sourcePoint" />
            <mxPoint x="480" y="-310" as="targetPoint" />
          </mxGeometry>
        </mxCell>
        <mxCell id="8_0EVFcnMzScwtMn9t5G-27" value="" style="sketch=0;pointerEvents=1;shadow=0;dashed=0;html=1;strokeColor=none;fillColor=#434445;aspect=fixed;labelPosition=center;verticalLabelPosition=bottom;verticalAlign=top;align=center;outlineConnect=0;shape=mxgraph.vvd.vcenter_server;strokeWidth=5;fontSize=30;" vertex="1" parent="1">
          <mxGeometry x="229" y="-48" width="48" height="50" as="geometry" />
        </mxCell>
        <mxCell id="8_0EVFcnMzScwtMn9t5G-28" value="" style="endArrow=classic;html=1;rounded=0;strokeWidth=2;fontSize=30;" edge="1" parent="1" source="8_0EVFcnMzScwtMn9t5G-12" target="8_0EVFcnMzScwtMn9t5G-27">
          <mxGeometry width="50" height="50" relative="1" as="geometry">
            <mxPoint x="430" y="-260" as="sourcePoint" />
            <mxPoint x="480" y="-310" as="targetPoint" />
          </mxGeometry>
        </mxCell>
        <mxCell id="8_0EVFcnMzScwtMn9t5G-30" value="" style="shape=curlyBracket;whiteSpace=wrap;html=1;rounded=1;labelPosition=left;verticalLabelPosition=middle;align=right;verticalAlign=middle;dashed=1;strokeWidth=5;fontSize=30;direction=north;" vertex="1" parent="1">
          <mxGeometry x="150" y="-80" width="190" height="20" as="geometry" />
        </mxCell>
        <mxCell id="8_0EVFcnMzScwtMn9t5G-32" value="" style="outlineConnect=0;dashed=0;verticalLabelPosition=bottom;verticalAlign=top;align=center;html=1;shape=mxgraph.aws3.virtual_private_cloud;strokeWidth=5;fontSize=30;fillStyle=solid;fillColor=#dae8fc;strokeColor=#6c8ebf;" vertex="1" parent="1">
          <mxGeometry x="1050" y="-284" width="79.5" height="54" as="geometry" />
        </mxCell>
        <mxCell id="8_0EVFcnMzScwtMn9t5G-33" value="" style="rounded=1;arcSize=10;dashed=1;strokeColor=#000000;fillColor=none;gradientColor=none;dashPattern=8 4;strokeWidth=2;fillStyle=solid;fontSize=30;" vertex="1" parent="1">
          <mxGeometry x="880" y="-270" width="199.5" height="100" as="geometry" />
        </mxCell>
        <mxCell id="8_0EVFcnMzScwtMn9t5G-34" value="" style="endArrow=classic;startArrow=classic;html=1;rounded=0;strokeWidth=2;fontSize=30;" edge="1" parent="1" source="8_0EVFcnMzScwtMn9t5G-18" target="8_0EVFcnMzScwtMn9t5G-17">
          <mxGeometry width="50" height="50" relative="1" as="geometry">
            <mxPoint x="630" y="-270" as="sourcePoint" />
            <mxPoint x="680" y="-320" as="targetPoint" />
          </mxGeometry>
        </mxCell>
        <mxCell id="8_0EVFcnMzScwtMn9t5G-35" value="" style="shape=flexArrow;endArrow=classic;startArrow=classic;html=1;rounded=0;strokeWidth=2;fontSize=30;" edge="1" parent="1" source="8_0EVFcnMzScwtMn9t5G-18" target="8_0EVFcnMzScwtMn9t5G-7">
          <mxGeometry width="100" height="100" relative="1" as="geometry">
            <mxPoint x="610" y="-250" as="sourcePoint" />
            <mxPoint x="710" y="-350" as="targetPoint" />
          </mxGeometry>
        </mxCell>
        <mxCell id="8_0EVFcnMzScwtMn9t5G-36" value="" style="sketch=0;outlineConnect=0;fontColor=#232F3E;gradientColor=none;fillColor=#4D27AA;strokeColor=none;dashed=0;verticalLabelPosition=bottom;verticalAlign=top;align=center;html=1;fontSize=12;fontStyle=0;aspect=fixed;pointerEvents=1;shape=mxgraph.aws4.msk_amazon_msk_connect;fillStyle=solid;strokeWidth=5;" vertex="1" parent="1">
          <mxGeometry x="690" y="-205" width="78" height="77" as="geometry" />
        </mxCell>
        <mxCell id="8_0EVFcnMzScwtMn9t5G-37" value="VPN/专线" style="text;html=1;strokeColor=#6c8ebf;fillColor=#dae8fc;align=center;verticalAlign=middle;whiteSpace=wrap;rounded=0;dashed=1;fillStyle=solid;strokeWidth=5;fontSize=30;" vertex="1" parent="1">
          <mxGeometry x="638.5" y="-127" width="181" height="30" as="geometry" />
        </mxCell>
        <mxCell id="8_0EVFcnMzScwtMn9t5G-38" value="Ctcloud -ecs" style="sketch=0;outlineConnect=0;fontColor=#232F3E;gradientColor=none;strokeColor=#ffffff;fillColor=#232F3E;dashed=0;verticalLabelPosition=middle;verticalAlign=bottom;align=center;html=1;whiteSpace=wrap;fontSize=10;fontStyle=1;spacing=3;shape=mxgraph.aws4.productIcon;prIcon=mxgraph.aws4.ec2;fillStyle=solid;strokeWidth=5;" vertex="1" parent="1">
          <mxGeometry x="880" y="-270" width="80" height="100" as="geometry" />
        </mxCell>
        <mxCell id="8_0EVFcnMzScwtMn9t5G-39" value="Ctcloud -ecs" style="sketch=0;outlineConnect=0;fontColor=#232F3E;gradientColor=none;strokeColor=#ffffff;fillColor=#232F3E;dashed=0;verticalLabelPosition=middle;verticalAlign=bottom;align=center;html=1;whiteSpace=wrap;fontSize=10;fontStyle=1;spacing=3;shape=mxgraph.aws4.productIcon;prIcon=mxgraph.aws4.ec2;fillStyle=solid;strokeWidth=5;" vertex="1" parent="1">
          <mxGeometry x="960" y="-270" width="80" height="100" as="geometry" />
        </mxCell>
        <mxCell id="8_0EVFcnMzScwtMn9t5G-40" value="" style="outlineConnect=0;dashed=0;verticalLabelPosition=bottom;verticalAlign=top;align=center;html=1;shape=mxgraph.aws3.virtual_private_cloud;strokeWidth=5;fontSize=30;fillStyle=solid;fillColor=#dae8fc;strokeColor=#6c8ebf;" vertex="1" parent="1">
          <mxGeometry x="1050" y="-143" width="79.5" height="54" as="geometry" />
        </mxCell>
        <mxCell id="8_0EVFcnMzScwtMn9t5G-41" value="" style="rounded=1;arcSize=10;dashed=1;strokeColor=#000000;fillColor=none;gradientColor=none;dashPattern=8 4;strokeWidth=2;fillStyle=solid;fontSize=30;" vertex="1" parent="1">
          <mxGeometry x="880" y="-129" width="199.5" height="100" as="geometry" />
        </mxCell>
        <mxCell id="8_0EVFcnMzScwtMn9t5G-42" value="Ctcloud -ecs" style="sketch=0;outlineConnect=0;fontColor=#232F3E;gradientColor=none;strokeColor=#ffffff;fillColor=#232F3E;dashed=0;verticalLabelPosition=middle;verticalAlign=bottom;align=center;html=1;whiteSpace=wrap;fontSize=10;fontStyle=1;spacing=3;shape=mxgraph.aws4.productIcon;prIcon=mxgraph.aws4.ec2;fillStyle=solid;strokeWidth=5;" vertex="1" parent="1">
          <mxGeometry x="880" y="-129" width="80" height="100" as="geometry" />
        </mxCell>
        <mxCell id="8_0EVFcnMzScwtMn9t5G-43" value="Ctcloud -ecs" style="sketch=0;outlineConnect=0;fontColor=#232F3E;gradientColor=none;strokeColor=#ffffff;fillColor=#232F3E;dashed=0;verticalLabelPosition=middle;verticalAlign=bottom;align=center;html=1;whiteSpace=wrap;fontSize=10;fontStyle=1;spacing=3;shape=mxgraph.aws4.productIcon;prIcon=mxgraph.aws4.ec2;fillStyle=solid;strokeWidth=5;" vertex="1" parent="1">
          <mxGeometry x="960" y="-129" width="80" height="100" as="geometry" />
        </mxCell>
        <mxCell id="8_0EVFcnMzScwtMn9t5G-44" value="Cloud&#xa;NAT" style="sketch=0;html=1;verticalAlign=top;labelPosition=center;verticalLabelPosition=bottom;align=center;spacingTop=-6;fontSize=11;fontStyle=1;fontColor=#999999;shape=image;aspect=fixed;imageAspect=0;image=data:image/svg+xml,PHN2ZyB4bWxuczppbmtzY2FwZT0iaHR0cDovL3d3dy5pbmtzY2FwZS5vcmcvbmFtZXNwYWNlcy9pbmtzY2FwZSIgeG1sbnM6c29kaXBvZGk9Imh0dHA6Ly9zb2RpcG9kaS5zb3VyY2Vmb3JnZS5uZXQvRFREL3NvZGlwb2RpLTAuZHRkIiB4bWxucz0iaHR0cDovL3d3dy53My5vcmcvMjAwMC9zdmciIHhtbG5zOnN2Zz0iaHR0cDovL3d3dy53My5vcmcvMjAwMC9zdmciIHdpZHRoPSI5OS45OTczMDIyMDQ4OTI5NiIgaGVpZ2h0PSI5Ny44ODA4NTM5MDQyOTYzMyIgdmlld0JveD0iLTAuMDQ1Nzc2MzY3MTg3NSAxLjA4Nzc4ODU4MTg0ODE0NDUgOTkuOTk3Mjk5MTk0MzM1OTQgOTcuODgwODQ0MTE2MjEwOTQiIHZlcnNpb249IjEuMSIgaWQ9InN2ZzUiIGlua3NjYXBlOnZlcnNpb249IjEuMSAoYzY4ZTIyYzM4NywgMjAyMS0wNS0yMykiIHNvZGlwb2RpOmRvY25hbWU9ImNsb3VkX25hdC5zdmciPiYjeGE7ICA8c29kaXBvZGk6bmFtZWR2aWV3IGlkPSJuYW1lZHZpZXc3IiBwYWdlY29sb3I9IiNmZmZmZmYiIGJvcmRlcmNvbG9yPSIjNjY2NjY2IiBib3JkZXJvcGFjaXR5PSIxLjAiIGlua3NjYXBlOnBhZ2VzaGFkb3c9IjIiIGlua3NjYXBlOnBhZ2VvcGFjaXR5PSIwLjAiIGlua3NjYXBlOnBhZ2VjaGVja2VyYm9hcmQ9IjAiIGlua3NjYXBlOmRvY3VtZW50LXVuaXRzPSJtbSIgc2hvd2dyaWQ9ImZhbHNlIiBpbmtzY2FwZTp6b29tPSIwLjU3OTMzNzQ0IiBpbmtzY2FwZTpjeD0iLTQyLjI4OTY4OSIgaW5rc2NhcGU6Y3k9IjI1NC42MDExOSIgaW5rc2NhcGU6d2luZG93LXdpZHRoPSIxOTIwIiBpbmtzY2FwZTp3aW5kb3ctaGVpZ2h0PSIxMDE3IiBpbmtzY2FwZTp3aW5kb3cteD0iLTgiIGlua3NjYXBlOndpbmRvdy15PSItOCIgaW5rc2NhcGU6d2luZG93LW1heGltaXplZD0iMSIgaW5rc2NhcGU6Y3VycmVudC1sYXllcj0ibGF5ZXIxIiBmaXQtbWFyZ2luLXRvcD0iMCIgZml0LW1hcmdpbi1sZWZ0PSIwIiBmaXQtbWFyZ2luLXJpZ2h0PSIwIiBmaXQtbWFyZ2luLWJvdHRvbT0iMCIvPiYjeGE7ICA8ZGVmcyBpZD0iZGVmczIiLz4mI3hhOyAgPGcgaW5rc2NhcGU6bGFiZWw9IkxheWVyIDEiIGlua3NjYXBlOmdyb3VwbW9kZT0ibGF5ZXIiIGlkPSJsYXllcjEiIHRyYW5zZm9ybT0idHJhbnNsYXRlKDI1OC42MTk3NSwxNi42Njc3MTUpIj4mI3hhOyAgICA8cGF0aCBpZD0icGF0aDE3MzYyIiBzdHlsZT0ib3BhY2l0eToxO2ZpbGw6IzQyODVmNDtmaWxsLW9wYWNpdHk6MTtzdHJva2U6bm9uZTtzdHJva2Utd2lkdGg6MC45OTk5OTlweDtzdHJva2UtbGluZWNhcDpidXR0O3N0cm9rZS1saW5lam9pbjptaXRlcjtzdHJva2Utb3BhY2l0eToxIiBkPSJNIDE0MS40MTc5Nyw0LjExMTMyODEgMTI0LjQwMjM0LDI0LjM3NSBjIDU3Ljg5NTM3LDQ4LjYxNjQyNiA4My40MTQwNyw5Ni4wNjQ2NyA4My40MTQwNywxNjMuOTQzMzYgMCw3Mi4zMTIyOCAtMzYuMTA3MzEsMTI0LjgyOTc3IC04Mi4wMTk1MywxNjYuMDQ4ODMgbCAxNy42Nzk2OCwxOS42ODc1IGMgNDkuMjAyOTksLTQ0LjE3MzQyIDkwLjc5Njg4LC0xMDQuNDk4MzcgOTAuNzk2ODgsLTE4NS43MzYzMyAwLC03NC44ODE1MiAtMzEuMTU5NDEsLTEzMi4zOTkwMjIgLTkyLjg1NTQ3LC0xODQuMjA3MDMxOSB6IE0gOTYuNTU2NjQxLDc1Ljg4NDc2NiBWIDEwMi4zNDE4IEggMTY2LjQ4MzA1IEMgMTYyLjM5Mjc0LDk0LjU1NDQyIDE1OC40NTE0Myw4Ni44NDE1NDIgMTQ4LjAyMjMzLDc1Ljg4NDc2NiBaIE0gMzE3Ljc3OTMsMjAyLjMwNjY0IHYgMzIuMjkyOTcgbCA1OS45OTAyMywtNDUuNTE3NTggLTU5Ljk5MDIzLC00NS41MTc1OCB2IDMyLjI4NTE2IGggLTY0LjQ3NDYxIHYgMjYuNDU3MDMgeiBNIDUwLjA1ODU5NCwxNzUuODQ5NjEgdiAyNi40NTcwMyBIIDE4Ny4yODEyNSBjIDEuMTU3NDUsLTguMDQ3MzcgMS4yODIzMSwtMTYuNzgzMTUgMCwtMjYuNDU3MDMgeiBtIDQ3LjAzNzEwOSwxMDAuMDQ2ODcgdiAyNi40NTcwNCBoIDUwLjY4MjY3NyBjIDguMDE2NTcsLTguMDE0NjYgMTQuNDYxNjksLTE2LjgxNTA0IDE5LjIyMzU3LC0yNi40NTcwNCB6IiB0cmFuc2Zvcm09Im1hdHJpeCgwLjI2NDU4MzMzLDAsMCwwLjI2NDU4MzMzLC0yNTguNjE5NzUsLTE2LjY2NzcxNSkiIHNvZGlwb2RpOm5vZGV0eXBlcz0iY2NzY2NzY2NjY2NjY2NjY2NjY2NjY2NjY2NjY2NjIi8+JiN4YTsgICAgPHBhdGggaWQ9InBhdGgxNjI3MS03IiBzdHlsZT0iY29sb3I6IzAwMDAwMDtvcGFjaXR5OjE7ZmlsbDojNjY5ZGY2O3N0cm9rZS1saW5lam9pbjpyb3VuZDstaW5rc2NhcGUtc3Ryb2tlOm5vbmU7ZmlsbC1vcGFjaXR5OjEiIGQ9Im0gLTIzNy45NTQwOCw1MS45MDU2ODYgYyAtNC4zNDYzLDEwZS03IC03LjkyMzgyLDMuNTc3NTIxIC03LjkyMzgyLDcuOTIzODI4IDAsNC4zNDYzMDcgMy41Nzc1Miw3LjkyMzgyOCA3LjkyMzgyLDcuOTIzODI4IDQuMzQ2MzEsMCA3LjkyMzgzLC0zLjU3NzUyMSA3LjkyMzgzLC03LjkyMzgyOCAwLC00LjM0NjMwNyAtMy41Nzc1MiwtNy45MjM4MjcgLTcuOTIzODMsLTcuOTIzODI4IHogbSAwLDUgYyAxLjY0NDExLDAgMi45MjM4MywxLjI3OTcxOCAyLjkyMzgzLDIuOTIzODI4IDAsMS42NDQxMSAtMS4yNzk3MiwyLjkyMzgyOCAtMi45MjM4MywyLjkyMzgyOCAtMS42NDQxMSwwIC0yLjkyMzgyLC0xLjI3OTcxOCAtMi45MjM4MiwtMi45MjM4MjggMCwtMS42NDQxMSAxLjI3OTcxLC0yLjkyMzgyOCAyLjkyMzgyLC0yLjkyMzgyOCB6IG0gLTEyLjc4NzYxLC0zMS40ODg1OTMgYyAtNC4zNDYzLDEwZS03IC03LjkyMzgyLDMuNTc3NTIxIC03LjkyMzgyLDcuOTIzODI4IDAsNC4zNDYzMDcgMy41Nzc1Miw3LjkyMzgyOCA3LjkyMzgyLDcuOTIzODI4IDQuMzQ2MzEsMCA3LjkyMzgzLC0zLjU3NzUyMSA3LjkyMzgzLC03LjkyMzgyOCAwLC00LjM0NjMwNyAtMy41Nzc1MiwtNy45MjM4MjcgLTcuOTIzODMsLTcuOTIzODI4IHogbSAwLDUgYyAxLjY0NDExLDAgMi45MjM4MywxLjI3OTcxOCAyLjkyMzgzLDIuOTIzODI4IDAsMS42NDQxMSAtMS4yNzk3MiwyLjkyMzgyOCAtMi45MjM4MywyLjkyMzgyOCAtMS42NDQxMSwwIC0yLjkyMzgyLC0xLjI3OTcxOCAtMi45MjM4MiwtMi45MjM4MjggMCwtMS42NDQxMSAxLjI3OTcxLC0yLjkyMzgyOCAyLjkyMzgyLC0yLjkyMzgyOCB6IG0gMTIuNjE2NTIsLTMxLjQzMTQ5MjkgYyAtNC4zNDYzLDZlLTcgLTcuOTIzODIsMy41Nzc1MjA4IC03LjkyMzgyLDcuOTIzODI4MSAwLDQuMzQ2MzA2OCAzLjU3NzUyLDcuOTIzODI3OCA3LjkyMzgyLDcuOTIzODI3OCA0LjM0NjMxLDAgNy45MjM4MywtMy41Nzc1MjEgNy45MjM4MywtNy45MjM4Mjc4IDAsLTQuMzQ2MzA3MyAtMy41Nzc1MiwtNy45MjM4Mjc1IC03LjkyMzgzLC03LjkyMzgyODEgeiBtIDAsNSBjIDEuNjQ0MTEsMmUtNyAyLjkyMzgzLDEuMjc5NzE4NCAyLjkyMzgzLDIuOTIzODI4MSAwLDEuNjQ0MTA5NiAtMS4yNzk3MiwyLjkyMzgyNzkgLTIuOTIzODMsMi45MjM4Mjc5IC0xLjY0NDExLDAgLTIuOTIzODIsLTEuMjc5NzE4MyAtMi45MjM4MiwtMi45MjM4Mjc5IDAsLTEuNjQ0MTA5NyAxLjI3OTcxLC0yLjkyMzgyNzkgMi45MjM4MiwtMi45MjM4MjgxIHoiLz4mI3hhOyAgPC9nPiYjeGE7PC9zdmc+;dashed=1;fillStyle=solid;strokeColor=#000000;strokeWidth=5;fillColor=#FFFFFF;direction=south;rotation=0;" vertex="1" parent="1">
          <mxGeometry x="710" y="-400" width="102" height="102" as="geometry" />
        </mxCell>
        <mxCell id="8_0EVFcnMzScwtMn9t5G-46" value="天翼云苏州" style="text;html=1;strokeColor=none;fillColor=none;align=center;verticalAlign=middle;whiteSpace=wrap;rounded=0;dashed=1;fillStyle=solid;strokeWidth=5;fontSize=30;" vertex="1" parent="1">
          <mxGeometry x="980" y="-340" width="200" height="30" as="geometry" />
        </mxCell>
        <mxCell id="8_0EVFcnMzScwtMn9t5G-48" value="Elastic IP&#xa;Address" style="sketch=0;outlineConnect=0;fontColor=#232F3E;gradientColor=none;strokeColor=#232F3E;fillColor=#ffffff;dashed=0;verticalLabelPosition=bottom;verticalAlign=top;align=center;html=1;fontSize=12;fontStyle=0;aspect=fixed;shape=mxgraph.aws4.resourceIcon;resIcon=mxgraph.aws4.elastic_ip_address;fillStyle=solid;strokeWidth=5;" vertex="1" parent="1">
          <mxGeometry x="1059.75" y="-80" width="60" height="60" as="geometry" />
        </mxCell>
        <mxCell id="8_0EVFcnMzScwtMn9t5G-49" value="" style="verticalLabelPosition=bottom;html=1;verticalAlign=top;strokeWidth=1;align=center;outlineConnect=0;dashed=0;outlineConnect=0;shape=mxgraph.aws3d.elasticLoadBalancing;fillColor=#ECECEC;strokeColor=#5E5E5E;aspect=fixed;fillStyle=solid;fontSize=30;" vertex="1" parent="1">
          <mxGeometry x="850" y="-393" width="65.74" height="63" as="geometry" />
        </mxCell>
        <mxCell id="8_0EVFcnMzScwtMn9t5G-50" value="ELB" style="text;html=1;strokeColor=none;fillColor=none;align=center;verticalAlign=middle;whiteSpace=wrap;rounded=0;dashed=1;fillStyle=solid;strokeWidth=5;fontSize=30;" vertex="1" parent="1">
          <mxGeometry x="855.74" y="-328" width="60" height="30" as="geometry" />
        </mxCell>
        <mxCell id="8_0EVFcnMzScwtMn9t5G-51" value="" style="rounded=0;whiteSpace=wrap;html=1;dashed=1;strokeWidth=5;" vertex="1" parent="1">
          <mxGeometry x="768" y="-305" width="490" height="370" as="geometry" />
        </mxCell>
        <mxCell id="8_0EVFcnMzScwtMn9t5G-52" value="" style="outlineConnect=0;dashed=0;verticalLabelPosition=bottom;verticalAlign=top;align=center;html=1;shape=mxgraph.aws3.virtual_private_cloud;strokeWidth=5;fontSize=30;fillStyle=solid;fillColor=#dae8fc;strokeColor=#6c8ebf;" vertex="1" parent="1">
          <mxGeometry x="1089.75" y="-234" width="79.5" height="54" as="geometry" />
        </mxCell>
        <mxCell id="8_0EVFcnMzScwtMn9t5G-53" value="" style="rounded=1;arcSize=10;dashed=1;strokeColor=#000000;fillColor=none;gradientColor=none;dashPattern=8 4;strokeWidth=2;fillStyle=solid;fontSize=30;" vertex="1" parent="1">
          <mxGeometry x="919.75" y="-220" width="199.5" height="100" as="geometry" />
        </mxCell>
        <mxCell id="8_0EVFcnMzScwtMn9t5G-55" value="Ctcloud -ecs" style="sketch=0;outlineConnect=0;fontColor=#232F3E;gradientColor=none;strokeColor=#ffffff;fillColor=#232F3E;dashed=0;verticalLabelPosition=middle;verticalAlign=bottom;align=center;html=1;whiteSpace=wrap;fontSize=10;fontStyle=1;spacing=3;shape=mxgraph.aws4.productIcon;prIcon=mxgraph.aws4.ec2;fillStyle=solid;strokeWidth=5;" vertex="1" parent="1">
          <mxGeometry x="919.75" y="-220" width="80" height="100" as="geometry" />
        </mxCell>
        <mxCell id="8_0EVFcnMzScwtMn9t5G-56" value="Ctcloud -ecs" style="sketch=0;outlineConnect=0;fontColor=#232F3E;gradientColor=none;strokeColor=#ffffff;fillColor=#232F3E;dashed=0;verticalLabelPosition=middle;verticalAlign=bottom;align=center;html=1;whiteSpace=wrap;fontSize=10;fontStyle=1;spacing=3;shape=mxgraph.aws4.productIcon;prIcon=mxgraph.aws4.ec2;fillStyle=solid;strokeWidth=5;" vertex="1" parent="1">
          <mxGeometry x="999.75" y="-220" width="80" height="100" as="geometry" />
        </mxCell>
        <mxCell id="8_0EVFcnMzScwtMn9t5G-57" value="" style="outlineConnect=0;dashed=0;verticalLabelPosition=bottom;verticalAlign=top;align=center;html=1;shape=mxgraph.aws3.virtual_private_cloud;strokeWidth=5;fontSize=30;fillStyle=solid;fillColor=#dae8fc;strokeColor=#6c8ebf;" vertex="1" parent="1">
          <mxGeometry x="1089.75" y="-93" width="79.5" height="54" as="geometry" />
        </mxCell>
        <mxCell id="8_0EVFcnMzScwtMn9t5G-58" value="" style="rounded=1;arcSize=10;dashed=1;strokeColor=#000000;fillColor=none;gradientColor=none;dashPattern=8 4;strokeWidth=2;fillStyle=solid;fontSize=30;" vertex="1" parent="1">
          <mxGeometry x="919.75" y="-79" width="199.5" height="100" as="geometry" />
        </mxCell>
        <mxCell id="8_0EVFcnMzScwtMn9t5G-59" value="Ctcloud -ecs" style="sketch=0;outlineConnect=0;fontColor=#232F3E;gradientColor=none;strokeColor=#ffffff;fillColor=#232F3E;dashed=0;verticalLabelPosition=middle;verticalAlign=bottom;align=center;html=1;whiteSpace=wrap;fontSize=10;fontStyle=1;spacing=3;shape=mxgraph.aws4.productIcon;prIcon=mxgraph.aws4.ec2;fillStyle=solid;strokeWidth=5;" vertex="1" parent="1">
          <mxGeometry x="919.75" y="-79" width="80" height="100" as="geometry" />
        </mxCell>
        <mxCell id="8_0EVFcnMzScwtMn9t5G-60" value="Ctcloud -ecs" style="sketch=0;outlineConnect=0;fontColor=#232F3E;gradientColor=none;strokeColor=#ffffff;fillColor=#232F3E;dashed=0;verticalLabelPosition=middle;verticalAlign=bottom;align=center;html=1;whiteSpace=wrap;fontSize=10;fontStyle=1;spacing=3;shape=mxgraph.aws4.productIcon;prIcon=mxgraph.aws4.ec2;fillStyle=solid;strokeWidth=5;" vertex="1" parent="1">
          <mxGeometry x="999.75" y="-79" width="80" height="100" as="geometry" />
        </mxCell>
        <mxCell id="8_0EVFcnMzScwtMn9t5G-68" value="" style="edgeStyle=orthogonalEdgeStyle;rounded=0;orthogonalLoop=1;jettySize=auto;html=1;strokeWidth=2;fontSize=15;" edge="1" parent="1" source="8_0EVFcnMzScwtMn9t5G-61" target="8_0EVFcnMzScwtMn9t5G-36">
          <mxGeometry relative="1" as="geometry" />
        </mxCell>
        <mxCell id="8_0EVFcnMzScwtMn9t5G-61" value="Cloud&#xa;NAT" style="sketch=0;html=1;verticalAlign=top;labelPosition=center;verticalLabelPosition=bottom;align=center;spacingTop=-6;fontSize=11;fontStyle=1;fontColor=#999999;shape=image;aspect=fixed;imageAspect=0;image=data:image/svg+xml,PHN2ZyB4bWxuczppbmtzY2FwZT0iaHR0cDovL3d3dy5pbmtzY2FwZS5vcmcvbmFtZXNwYWNlcy9pbmtzY2FwZSIgeG1sbnM6c29kaXBvZGk9Imh0dHA6Ly9zb2RpcG9kaS5zb3VyY2Vmb3JnZS5uZXQvRFREL3NvZGlwb2RpLTAuZHRkIiB4bWxucz0iaHR0cDovL3d3dy53My5vcmcvMjAwMC9zdmciIHhtbG5zOnN2Zz0iaHR0cDovL3d3dy53My5vcmcvMjAwMC9zdmciIHdpZHRoPSI5OS45OTczMDIyMDQ4OTI5NiIgaGVpZ2h0PSI5Ny44ODA4NTM5MDQyOTYzMyIgdmlld0JveD0iLTAuMDQ1Nzc2MzY3MTg3NSAxLjA4Nzc4ODU4MTg0ODE0NDUgOTkuOTk3Mjk5MTk0MzM1OTQgOTcuODgwODQ0MTE2MjEwOTQiIHZlcnNpb249IjEuMSIgaWQ9InN2ZzUiIGlua3NjYXBlOnZlcnNpb249IjEuMSAoYzY4ZTIyYzM4NywgMjAyMS0wNS0yMykiIHNvZGlwb2RpOmRvY25hbWU9ImNsb3VkX25hdC5zdmciPiYjeGE7ICA8c29kaXBvZGk6bmFtZWR2aWV3IGlkPSJuYW1lZHZpZXc3IiBwYWdlY29sb3I9IiNmZmZmZmYiIGJvcmRlcmNvbG9yPSIjNjY2NjY2IiBib3JkZXJvcGFjaXR5PSIxLjAiIGlua3NjYXBlOnBhZ2VzaGFkb3c9IjIiIGlua3NjYXBlOnBhZ2VvcGFjaXR5PSIwLjAiIGlua3NjYXBlOnBhZ2VjaGVja2VyYm9hcmQ9IjAiIGlua3NjYXBlOmRvY3VtZW50LXVuaXRzPSJtbSIgc2hvd2dyaWQ9ImZhbHNlIiBpbmtzY2FwZTp6b29tPSIwLjU3OTMzNzQ0IiBpbmtzY2FwZTpjeD0iLTQyLjI4OTY4OSIgaW5rc2NhcGU6Y3k9IjI1NC42MDExOSIgaW5rc2NhcGU6d2luZG93LXdpZHRoPSIxOTIwIiBpbmtzY2FwZTp3aW5kb3ctaGVpZ2h0PSIxMDE3IiBpbmtzY2FwZTp3aW5kb3cteD0iLTgiIGlua3NjYXBlOndpbmRvdy15PSItOCIgaW5rc2NhcGU6d2luZG93LW1heGltaXplZD0iMSIgaW5rc2NhcGU6Y3VycmVudC1sYXllcj0ibGF5ZXIxIiBmaXQtbWFyZ2luLXRvcD0iMCIgZml0LW1hcmdpbi1sZWZ0PSIwIiBmaXQtbWFyZ2luLXJpZ2h0PSIwIiBmaXQtbWFyZ2luLWJvdHRvbT0iMCIvPiYjeGE7ICA8ZGVmcyBpZD0iZGVmczIiLz4mI3hhOyAgPGcgaW5rc2NhcGU6bGFiZWw9IkxheWVyIDEiIGlua3NjYXBlOmdyb3VwbW9kZT0ibGF5ZXIiIGlkPSJsYXllcjEiIHRyYW5zZm9ybT0idHJhbnNsYXRlKDI1OC42MTk3NSwxNi42Njc3MTUpIj4mI3hhOyAgICA8cGF0aCBpZD0icGF0aDE3MzYyIiBzdHlsZT0ib3BhY2l0eToxO2ZpbGw6IzQyODVmNDtmaWxsLW9wYWNpdHk6MTtzdHJva2U6bm9uZTtzdHJva2Utd2lkdGg6MC45OTk5OTlweDtzdHJva2UtbGluZWNhcDpidXR0O3N0cm9rZS1saW5lam9pbjptaXRlcjtzdHJva2Utb3BhY2l0eToxIiBkPSJNIDE0MS40MTc5Nyw0LjExMTMyODEgMTI0LjQwMjM0LDI0LjM3NSBjIDU3Ljg5NTM3LDQ4LjYxNjQyNiA4My40MTQwNyw5Ni4wNjQ2NyA4My40MTQwNywxNjMuOTQzMzYgMCw3Mi4zMTIyOCAtMzYuMTA3MzEsMTI0LjgyOTc3IC04Mi4wMTk1MywxNjYuMDQ4ODMgbCAxNy42Nzk2OCwxOS42ODc1IGMgNDkuMjAyOTksLTQ0LjE3MzQyIDkwLjc5Njg4LC0xMDQuNDk4MzcgOTAuNzk2ODgsLTE4NS43MzYzMyAwLC03NC44ODE1MiAtMzEuMTU5NDEsLTEzMi4zOTkwMjIgLTkyLjg1NTQ3LC0xODQuMjA3MDMxOSB6IE0gOTYuNTU2NjQxLDc1Ljg4NDc2NiBWIDEwMi4zNDE4IEggMTY2LjQ4MzA1IEMgMTYyLjM5Mjc0LDk0LjU1NDQyIDE1OC40NTE0Myw4Ni44NDE1NDIgMTQ4LjAyMjMzLDc1Ljg4NDc2NiBaIE0gMzE3Ljc3OTMsMjAyLjMwNjY0IHYgMzIuMjkyOTcgbCA1OS45OTAyMywtNDUuNTE3NTggLTU5Ljk5MDIzLC00NS41MTc1OCB2IDMyLjI4NTE2IGggLTY0LjQ3NDYxIHYgMjYuNDU3MDMgeiBNIDUwLjA1ODU5NCwxNzUuODQ5NjEgdiAyNi40NTcwMyBIIDE4Ny4yODEyNSBjIDEuMTU3NDUsLTguMDQ3MzcgMS4yODIzMSwtMTYuNzgzMTUgMCwtMjYuNDU3MDMgeiBtIDQ3LjAzNzEwOSwxMDAuMDQ2ODcgdiAyNi40NTcwNCBoIDUwLjY4MjY3NyBjIDguMDE2NTcsLTguMDE0NjYgMTQuNDYxNjksLTE2LjgxNTA0IDE5LjIyMzU3LC0yNi40NTcwNCB6IiB0cmFuc2Zvcm09Im1hdHJpeCgwLjI2NDU4MzMzLDAsMCwwLjI2NDU4MzMzLC0yNTguNjE5NzUsLTE2LjY2NzcxNSkiIHNvZGlwb2RpOm5vZGV0eXBlcz0iY2NzY2NzY2NjY2NjY2NjY2NjY2NjY2NjY2NjY2NjIi8+JiN4YTsgICAgPHBhdGggaWQ9InBhdGgxNjI3MS03IiBzdHlsZT0iY29sb3I6IzAwMDAwMDtvcGFjaXR5OjE7ZmlsbDojNjY5ZGY2O3N0cm9rZS1saW5lam9pbjpyb3VuZDstaW5rc2NhcGUtc3Ryb2tlOm5vbmU7ZmlsbC1vcGFjaXR5OjEiIGQ9Im0gLTIzNy45NTQwOCw1MS45MDU2ODYgYyAtNC4zNDYzLDEwZS03IC03LjkyMzgyLDMuNTc3NTIxIC03LjkyMzgyLDcuOTIzODI4IDAsNC4zNDYzMDcgMy41Nzc1Miw3LjkyMzgyOCA3LjkyMzgyLDcuOTIzODI4IDQuMzQ2MzEsMCA3LjkyMzgzLC0zLjU3NzUyMSA3LjkyMzgzLC03LjkyMzgyOCAwLC00LjM0NjMwNyAtMy41Nzc1MiwtNy45MjM4MjcgLTcuOTIzODMsLTcuOTIzODI4IHogbSAwLDUgYyAxLjY0NDExLDAgMi45MjM4MywxLjI3OTcxOCAyLjkyMzgzLDIuOTIzODI4IDAsMS42NDQxMSAtMS4yNzk3MiwyLjkyMzgyOCAtMi45MjM4MywyLjkyMzgyOCAtMS42NDQxMSwwIC0yLjkyMzgyLC0xLjI3OTcxOCAtMi45MjM4MiwtMi45MjM4MjggMCwtMS42NDQxMSAxLjI3OTcxLC0yLjkyMzgyOCAyLjkyMzgyLC0yLjkyMzgyOCB6IG0gLTEyLjc4NzYxLC0zMS40ODg1OTMgYyAtNC4zNDYzLDEwZS03IC03LjkyMzgyLDMuNTc3NTIxIC03LjkyMzgyLDcuOTIzODI4IDAsNC4zNDYzMDcgMy41Nzc1Miw3LjkyMzgyOCA3LjkyMzgyLDcuOTIzODI4IDQuMzQ2MzEsMCA3LjkyMzgzLC0zLjU3NzUyMSA3LjkyMzgzLC03LjkyMzgyOCAwLC00LjM0NjMwNyAtMy41Nzc1MiwtNy45MjM4MjcgLTcuOTIzODMsLTcuOTIzODI4IHogbSAwLDUgYyAxLjY0NDExLDAgMi45MjM4MywxLjI3OTcxOCAyLjkyMzgzLDIuOTIzODI4IDAsMS42NDQxMSAtMS4yNzk3MiwyLjkyMzgyOCAtMi45MjM4MywyLjkyMzgyOCAtMS42NDQxMSwwIC0yLjkyMzgyLC0xLjI3OTcxOCAtMi45MjM4MiwtMi45MjM4MjggMCwtMS42NDQxMSAxLjI3OTcxLC0yLjkyMzgyOCAyLjkyMzgyLC0yLjkyMzgyOCB6IG0gMTIuNjE2NTIsLTMxLjQzMTQ5MjkgYyAtNC4zNDYzLDZlLTcgLTcuOTIzODIsMy41Nzc1MjA4IC03LjkyMzgyLDcuOTIzODI4MSAwLDQuMzQ2MzA2OCAzLjU3NzUyLDcuOTIzODI3OCA3LjkyMzgyLDcuOTIzODI3OCA0LjM0NjMxLDAgNy45MjM4MywtMy41Nzc1MjEgNy45MjM4MywtNy45MjM4Mjc4IDAsLTQuMzQ2MzA3MyAtMy41Nzc1MiwtNy45MjM4Mjc1IC03LjkyMzgzLC03LjkyMzgyODEgeiBtIDAsNSBjIDEuNjQ0MTEsMmUtNyAyLjkyMzgzLDEuMjc5NzE4NCAyLjkyMzgzLDIuOTIzODI4MSAwLDEuNjQ0MTA5NiAtMS4yNzk3MiwyLjkyMzgyNzkgLTIuOTIzODMsMi45MjM4Mjc5IC0xLjY0NDExLDAgLTIuOTIzODIsLTEuMjc5NzE4MyAtMi45MjM4MiwtMi45MjM4Mjc5IDAsLTEuNjQ0MTA5NyAxLjI3OTcxLC0yLjkyMzgyNzkgMi45MjM4MiwtMi45MjM4MjgxIHoiLz4mI3hhOyAgPC9nPiYjeGE7PC9zdmc+;dashed=1;fillStyle=solid;strokeColor=#000000;strokeWidth=5;fillColor=#FFFFFF;direction=south;rotation=0;" vertex="1" parent="1">
          <mxGeometry x="749.75" y="-350" width="102" height="102" as="geometry" />
        </mxCell>
        <mxCell id="8_0EVFcnMzScwtMn9t5G-62" value="天翼云北京" style="text;html=1;strokeColor=none;fillColor=none;align=center;verticalAlign=middle;whiteSpace=wrap;rounded=0;dashed=1;fillStyle=solid;strokeWidth=5;fontSize=30;" vertex="1" parent="1">
          <mxGeometry x="969.25" y="-264" width="200" height="30" as="geometry" />
        </mxCell>
        <mxCell id="8_0EVFcnMzScwtMn9t5G-63" value="Elastic IP&#xa;Address" style="sketch=0;outlineConnect=0;fontColor=#232F3E;gradientColor=none;strokeColor=#232F3E;fillColor=#ffffff;dashed=0;verticalLabelPosition=bottom;verticalAlign=top;align=center;html=1;fontSize=12;fontStyle=0;aspect=fixed;shape=mxgraph.aws4.resourceIcon;resIcon=mxgraph.aws4.elastic_ip_address;fillStyle=solid;strokeWidth=5;" vertex="1" parent="1">
          <mxGeometry x="1099.5" y="-30" width="60" height="60" as="geometry" />
        </mxCell>
        <mxCell id="8_0EVFcnMzScwtMn9t5G-64" value="" style="verticalLabelPosition=bottom;html=1;verticalAlign=top;strokeWidth=1;align=center;outlineConnect=0;dashed=0;outlineConnect=0;shape=mxgraph.aws3d.elasticLoadBalancing;fillColor=#ECECEC;strokeColor=#5E5E5E;aspect=fixed;fillStyle=solid;fontSize=30;" vertex="1" parent="1">
          <mxGeometry x="892.62" y="-340" width="73.04" height="70" as="geometry" />
        </mxCell>
        <mxCell id="8_0EVFcnMzScwtMn9t5G-70" value="" style="edgeStyle=orthogonalEdgeStyle;rounded=0;orthogonalLoop=1;jettySize=auto;html=1;" edge="1" parent="1" source="8_0EVFcnMzScwtMn9t5G-65" target="8_0EVFcnMzScwtMn9t5G-55">
          <mxGeometry relative="1" as="geometry" />
        </mxCell>
        <mxCell id="8_0EVFcnMzScwtMn9t5G-65" value="ELB" style="text;html=1;strokeColor=none;fillColor=none;align=center;verticalAlign=middle;whiteSpace=wrap;rounded=0;dashed=1;fillStyle=solid;strokeWidth=5;fontSize=30;" vertex="1" parent="1">
          <mxGeometry x="895.49" y="-278" width="60" height="30" as="geometry" />
        </mxCell>
        <mxCell id="8_0EVFcnMzScwtMn9t5G-66" value="" style="aspect=fixed;perimeter=ellipsePerimeter;html=1;align=center;shadow=0;dashed=0;fontColor=#4277BB;labelBackgroundColor=#ffffff;fontSize=12;spacingTop=3;image;image=img/lib/ibm/miscellaneous/peer_cloud.svg;fillStyle=solid;strokeColor=#000000;strokeWidth=5;fillColor=#000000;" vertex="1" parent="1">
          <mxGeometry x="1148" y="-362.7" width="110" height="84.7" as="geometry" />
        </mxCell>
        <mxCell id="8_0EVFcnMzScwtMn9t5G-67" value="云间高速" style="text;html=1;strokeColor=none;fillColor=none;align=center;verticalAlign=middle;whiteSpace=wrap;rounded=0;dashed=1;fillStyle=solid;strokeWidth=5;fontSize=15;" vertex="1" parent="1">
          <mxGeometry x="1148" y="-284" width="101" height="30" as="geometry" />
        </mxCell>
      </root>
    </mxGraphModel>
  </diagram>
</mxfile>
